<?xml version="1.0" encoding="UTF-8"?>
<svg id="Calque_1" data-name="Calque 1" xmlns="http://www.w3.org/2000/svg" xmlns:xlink="http://www.w3.org/1999/xlink" viewBox="0 0 283.46 283.46">
  <defs>
    <style>
      .cls-1 {
        stroke: #dadada;
        stroke-miterlimit: 10;
        stroke-width: .25px;
      }

      .cls-1, .cls-2, .cls-3 {
        fill: none;
      }

      .cls-2, .cls-4, .cls-3 {
        stroke-width: 0px;
      }

      .cls-4 {
        fill: #dadada;
      }

      .cls-5 {
        clip-path: url(#clippath);
      }

      .cls-3 {
        isolation: isolate;
        opacity: .19;
      }
    </style>
    <clipPath id="clippath">
      <ellipse class="cls-1" cx="57.32" cy="130.16" rx="23.7" ry="23.71"/>
    </clipPath>
  </defs>
  <g>
    <g>
      <g class="cls-5">
        <path class="cls-4" d="M18.96,118.12c.16,0,.18.06.31,0,.13-.06.53-.32.66-.35.13-.04.22.01.02.12-.2.11-.59.35-.52.33.07-.02.27-.1.56-.24.28-.13.26-.07.33-.22.07-.14.11-.22.11-.22,0,0,.45.46.49.48.04.02.06,0,.08-.06.02-.06.07-.14.13-.11.06.03,0,.14.05.15.04.01.1,0,.22-.04.12-.04.06-.12.06-.12,0,0-.01,0,.12-.02.14-.01.57.15.7.2.13.05.51.09.62.13.11.04.15-.06.3.02.15.08.26.19.15.24-.11.06-.39.1-.25.13.14.04.36.08.57.07.21,0,.58-.08.7-.08s.19.07.29.25c.11.18.19.25.24.27.04.01-.04-.09-.02-.18.02-.09-.02-.26-.05-.32-.03-.06,0-.09-.05-.18-.05-.09-.13-.07.02-.15.15-.07.26-.18.44-.16.19.02.24.26.4.28.16.02.19.08.46.1.27.02.16,0,.47.02.31.02.19-.03.26-.19.06-.16.13-.19.21-.18.07,0,.33.04.33.07s-.11.2-.05.29c.05.08.28.22.28.22,0,0-.05-.19-.05-.21s-.02-.17.02-.2c.03-.03.21.01.33-.21.11-.22-.08-.21-.08-.21,0,0-.07,0-.04-.09.04-.09.24-.15.24-.15,0,0,.01.04-.01-.03-.03-.07-.16-.06-.3-.07-.14,0-.24-.03-.27-.15-.03-.12-.04-.38-.04-.55s.14-.11.17-.21c.03-.1,0-.58-.04-.68-.04-.1.05-.31.07-.45.02-.14.16-.08.16-.08-.03-.05.04-.18.23-.24s.56,0,.56,0c0,0-.03,0-.12.12-.09.12-.03.32-.17.47-.13.15-.48.1-.48.1,0,0,.11.24.06.32-.04.08-.07.24-.07.24,0,0,.3.08.32.27.02.19.17.22.2.4.03.18-.15.32-.11.35.04.03.05.04.16.04.11,0,.26.03.26.03,0,0-.06.09,0,.18.05.1.01.15.02.26,0,.1.07.19.09.17.03-.02.14-.28.17-.39.03-.12.04-.18.1-.18s.22.16.24.21c.02.06.03.13-.06.29-.1.15-.09.23,0,.29.08.06.09.04.24.11.15.07.12.07.21.04.09-.03-.04-.26-.03-.27,0,0,.22-.03.17-.15-.05-.12-.1-.18,0-.24.1-.06.17-.11.17-.11-.04-.07-.05-.08-.12-.28-.07-.2.06-.15.34-.13.27.02.29.12.43.19.15.07.05.1.1.22.05.12-.12.14-.12.14,0,0-.11.02-.09.11.03.09.08.2.16.35.08.14-.02.24-.15.36-.12.12-.27.15-.42.15-.15,0-.21.06-.22.02-.01-.04-.08-.08-.16-.06-.08.02-.26.09-.2.11.06.02.23.02.16.15-.07.13-.13.13-.27.12-.14-.01-.27-.01-.36-.02-.09,0-.53-.03-.53-.03,0,0,.3.18.53.26.24.07.49.03.49.03,0,0-.1.18-.21.37-.11.19-.22.11-.32.12-.1.01-.15.09-.33.11-.18.02-.55-.05-.5-.02.06.03.08.07.19.09.1.01.17.03.26.11.09.07-.06.09-.18.11-.12.02-.15.04-.2.12-.05.07-.26.36-.32.45-.06.09-.12.24-.15.41-.03.18-.18.39-.11.43.07.04.32.05.42.12.11.07.22.39.3.51.08.12.14.21.23.12.09-.1.27-.07.43-.01.17.06.5.29.61.4.11.1.29.09.5.12.21.03.23.11.23.11,0,0,.22.01.13.1-.09.09-.12,0-.03.16.09.15.09.36.06.47-.03.1.29.05.42.13.13.08.14.39.21.35.07-.04.18-.11.19-.19.01-.08,0-.19-.02-.34-.01-.14-.05-.4-.12-.51-.07-.1.13-.15.09-.19-.03-.04-.02-.13.11-.17.13-.04.14,0,.22-.06.07-.06.09-.32.1-.42.01-.1-.02-.3-.05-.38-.03-.08-.16-.32-.21-.38-.05-.05-.11-.07.02-.24.13-.17.05-.13.03-.18-.02-.05-.05-.18-.07-.29-.03-.11.05-.24,0-.4-.05-.16-.1-.12-.09-.16,0-.04.31-.03.54,0,.22.02.31-.02.38-.02s.18.06.3.14c.12.08.17.06.24.16.06.1.1.15.23.15.13,0,.27.06.27.06,0,0-.09.05-.08.23.02.18-.02.3-.02.37,0,.07.04.07.1.08.06,0,.22.15.39.21.17.06.21.04.27-.1.05-.14.07-.13.13-.13.07,0,.09.01.12-.01.03-.03-.05-.09-.03-.18.02-.1.11-.22.19-.29.08-.07.13.07.2.2.07.13.3.56.37.7.07.14.15.15.07.28-.08.13-.12.19,0,.25.12.06.24.16.23.26-.01.1-.04.1,0,.13.04.03.19-.05.3,0,.11.05.24.09.32.17.08.08.07.1-.04.14-.11.04-.22.08-.27.11-.05.03-.14.1-.14.15,0,.05-.02.13.06.07.09-.07.23-.13.33-.16.1-.03.03,0,.12-.01.09-.01.18.04.31.08.13.04.09.12.06.19-.03.07-.06.15,0,.23.05.08-.02.16-.13.26-.11.1-.19.12-.38.14-.18.02-.27.13-.4.25-.13.12-.19.09-.38.1-.19,0-.11-.09-.17-.07-.06.02-.13.08-.25.1-.12.01-.52.02-.67.06-.15.04-.11.15-.14.23-.04.09-.1.05-.21.09-.12.04-.25.21-.39.44-.13.23-.32.37-.32.37.04,0,.23-.13.32-.24.09-.11.48-.38.6-.46.12-.08.37-.21.43-.19.06.02.21.13.21.19s-.04.11-.15.21c-.11.1-.25,0-.24.04,0,.04.09.14.17.16.08.02.08.12.08.17s-.05.12.14.28c.19.16.33.17.47.16.14,0,.07.05.12.04.06,0,.07-.12.09-.21.02-.09.05-.17.1-.21.05-.04.09-.11.11.03.02.14-.06.32-.13.37-.07.04-.06.1-.06.14s-.08.04-.28.15c-.2.11-.26.14-.3.12-.04-.01-.11.02-.2.1-.1.09-.2.2-.27.2-.07,0-.13-.03-.04-.13.1-.1.13-.23.22-.28.1-.05.14-.04.22-.04s.04-.05.11-.09c.06-.05-.05-.03-.16-.05-.11-.02-.03-.11-.03-.11l-.11.06s-.17.09-.21.1c-.04,0-.03.04-.05.05-.01.02-.17.03-.17.03,0,0-.08.17-.21.19-.12.02-.04.01-.13.05-.09.04-.07-.04-.09-.02-.02.02-.04.04-.13.12-.1.07-.16.1-.23.37-.07.27.01.37,0,.41,0,.04-.12-.03-.16,0-.04.03-.12.13-.22.16s-.31.08-.36.13c-.05.05-.05.12-.07.23-.02.1-.15.35-.15.35,0,0,.03-.1-.06-.17-.09-.07-.07-.14-.07-.14,0,0-.02.1.01.2.03.1.1.2.07.31-.03.11-.08.25-.15.29-.07.04.02-.07.02-.16s-.04-.1-.07-.14c-.03-.04-.03-.16.02-.31.05-.15-.05-.06-.11.04-.06.1-.1.29,0,.41.09.12-.06.11,0,.29.06.18-.07.26-.05.29.03.03.1-.01.13.07.03.09-.06.05-.1.07-.03.02-.02.06,0,.1.02.05.06.02.04.03-.02.01-.06.07-.14.1-.08.03-.09-.02-.14.04-.05.06-.09.11-.14.18-.05.07-.09.04-.15.09-.06.05-.08.09-.15.15-.07.06-.23.15-.32.27-.09.12-.06.15-.11.33-.04.19.11.51.2.82.09.31.13.22.12.32-.01.1-.05.22-.12.29-.07.07-.1-.05-.2-.12-.09-.07-.02-.12-.11-.26-.09-.14-.08-.19-.09-.3,0-.1-.03-.25-.07-.37-.05-.11-.15-.26-.3-.2-.15.06-.11.03-.2,0-.08-.02-.3-.11-.42-.05-.11.06-.47-.02-.54,0-.07.02-.13.02-.13.07s-.03.06.1.09c.13.04.11.07.1.13,0,.06-.11-.03-.16-.05-.05-.02-.1.04-.19.04s-.11-.09-.19-.1c-.08-.01-.11,0-.19-.03-.08-.03-.18-.08-.27-.07-.09,0-.43.24-.6.36-.16.12-.29.24-.33.34-.04.1-.04.11.09.25.13.15.07.12.04.21-.03.08-.1.18-.19.4-.09.21-.04.32.07.52.11.21.21.35.3.44.09.09.15.18.23.21.08.03.09.04.13.08.04.04.03.05.15.02.12-.03.21-.08.3-.08s.17,0,.21.05c.05.04.05.02.05,0s.04-.11.05-.14c.01-.02.13-.19.15-.28.02-.09.02-.27.13-.28.11-.01.35-.07.57-.05.22.01.12.12.06.23-.06.11-.08.13-.08.21s.03.09-.04.14c-.07.05-.03-.03-.05.02-.03.05-.13.12-.12.11.01-.01.04.09.04.13s0,.07,0,.19-.23.23-.23.23c0,0,.08.05.2.05s.27,0,.4.06c.13.06.37-.05.55.04.18.09.12.14.13.23.01.08.03.37.02.43-.01.07-.1.25-.14.38-.04.13.13.23.29.33.16.11.3.15.38.18.08.02.24-.13.52-.11.28.02.38.26.38.26,0,0,.03-.15.16-.35.13-.2.13-.26.31-.33.17-.07.23-.08.51-.17.28-.09.23-.02.38-.01.15.01.49.04.82.14.34.1.86.13,1.05.21.2.08.29.32.49.51.2.19.46.36.57.45.11.09.72.17.85.23.13.05.32.27.33.4.01.13.15.2.33.27.19.08.24.17.36.4.12.24.08.3.25.36.17.06,1.32.37,1.6.48.29.11.65.42.75.45.1.04.27-.03.35.01.08.04-.04.27.05.43.1.16.1.17.04.29-.06.12-.29.4-.38.55-.09.14-.28.23-.39.29-.11.06-.2,0-.11.12.1.12,0,.22-.08.33-.08.11,0,.09-.02.44-.03.34,0,.72-.04.87-.04.15-.26-.13-.52.19-.26.32-.33.57-.48.6-.15.04-.51.21-.63.33-.12.11-.15.15-.22.32-.08.17-.15.51-.24.71-.08.21-.22.33-.52.61-.31.28-.44.57-.64.79-.2.22-.15.17-.19.21-.11.11-.54-.17-.43-.02.08.11-.05,0,.02.11.07.11.12.15-.03.34-.15.19-.33.15-.45.18-.12.03-.3-.13-.32-.05-.01.08-.08.27-.18.32-.1.05-.35.12-.34.15.12.56.37.62.11.6-.72-.07-.21-.24-.71.81-.08.16-.15.08-.14.27.01.19,0,.33.1.45.1.12.03.11-.14.27-.17.16-.19.14-.34.38-.16.24-.31.23-.26.42.06.18.07.46.17.73.1.27.29.23.61.42.31.19.35.09.5.14.15.05-.11.06-.38.11-.27.05-.45.1-.65.06-.19-.04-.64-.3-.8-.42-.15-.11-.4-.32-.49-.51-.09-.2-.15-.39-.27-.66-.11-.27-.03-.43.02-1.02.05-.59.09-1.05.17-1.36.08-.32.34-1.72.41-2.08.07-.36.4-1.84.42-2.07.03-.23.04-.41.1-.64.05-.23.02-.7.02-.73s-.02-.04-.09-.26c-.07-.22-.19-.31-.34-.4-.16-.1-.33-.21-.45-.3-.13-.09-.28-.21-.41-.37-.13-.16-.25-.49-.31-.63-.06-.14-.3-.6-.52-.92-.22-.32-.23-.33-.34-.67-.11-.34.1-.34.13-.54.04-.19.17-.38.31-.65.14-.27.33-.35.43-.58.11-.24.03-.24-.01-.47-.04-.23.01-.2-.06-.32-.07-.12-.11-.28-.17-.32-.06-.04-.16-.07-.22,0-.06.07-.16.26-.22.27-.06.01-.09-.06-.13-.1-.04-.04-.22-.04-.26-.08-.04-.04-.13-.05-.2-.08-.06-.03-.31-.16-.38-.22-.07-.06-.16-.2-.16-.36s-.13-.21-.43-.43c-.3-.21-.43-.24-.79-.33-.36-.09-.51-.34-.63-.42-.12-.07-.11-.15-.38-.12-.27.03-.59-.12-.8-.2-.2-.08-.57-.14-.72-.24-.15-.1-.42-.14-.54-.38-.12-.24-.1-.15-.05-.36.04-.21-.26-.39-.45-.6-.19-.2-.33-.23-.42-.48-.1-.25-.24-.24-.42-.42-.19-.18-.19-.4-.27-.61-.08-.2-.59-.49-.59-.49,0,0,.13.34.19.48.06.14.19.46.35.71.15.24.29.3.43.55.14.24,0,.39-.04.3-.05-.1-.26-.14-.26-.25s-.05-.18-.1-.27c-.04-.09-.24-.19-.43-.35-.19-.15-.33-.23-.2-.23s.29.11.26.04c-.03-.07-.25-.29-.35-.45-.1-.15-.13-.33-.24-.59-.1-.26-.48-.51-.66-.53-.19-.02-.24-.11-.3-.3-.06-.19-.08-.39-.16-.54-.08-.15-.44-.65-.45-.84,0-.19-.11-.74.02-1.05.13-.31.1-1,.08-1.14-.02-.14-.25-.4-.25-.5s.13-.04.24-.01c.1.03.32.12.32.12,0,0-.17-.31-.27-.42-.1-.11-.4-.24-.54-.27-.13-.03-.31-.08-.38-.19-.07-.11-.15-.26-.2-.36-.05-.09-.27-.21-.32-.31-.05-.1-.04-.3-.11-.4-.07-.1-.17-.16-.29-.12-.12.04-.15-.06-.24-.21-.09-.15-.29-.22-.35-.24-.06-.02-.26-.28-.27-.35-.01-.07-.33-.41-.43-.48-.1-.07-1.09-.39-1.12-.39s-.31.04-.39.02c-.08-.02-.34-.25-.47-.3-.13-.05-.23.05-.29.2-.06.15-.38.4-.55.52-.17.11-.31.13-.3.07.01-.06,0-.15.06-.3.06-.14.09-.18.27-.27.18-.09.17-.1.1-.09-.07,0-.12-.01.02-.09.14-.08.2-.1.19-.17,0-.07-.31.1-.5.25-.19.15-.31.26-.47.54-.17.27.02.17-.12.35-.14.18-.62.54-.76.68-.14.14-.72.44-.96.51-.24.07-.33.1-.45.2-.12.09-.4.12-.31.06.1-.07.27-.21.4-.29.12-.07.45-.2.54-.24.1-.04.36-.2.5-.35.13-.15.22-.32.31-.46.09-.14.11-.21-.08-.15-.19.06-.38.04-.47,0-.1-.04-.35.11-.43.05-.09-.07,0-.2-.05-.27-.06-.07-.26-.02-.38-.05-.13-.02-.31-.12-.31-.3s-.13-.33-.06-.47c.07-.14.17-.17.29-.25.11-.08.43-.18.5-.18s.15-.07.21-.12c.06-.06-.13-.27-.13-.27,0,0,.03-.02.11-.07.08-.05.02-.15-.12-.13-.13.02-.42.16-.6.2-.18.05-.42.02-.42-.06,0-.08.04-.13-.02-.18-.06-.06-.12-.13-.05-.15.06-.03.46-.25.46-.25,0,0,.14.15.29.17.15.02.48-.27.48-.27-.2-.13-.16-.16-.16-.16,0,0-.33,0-.41-.05-.08-.05-.1-.14-.12-.23-.02-.08-.34-.15-.26-.29.09-.14.26-.18.36-.32.11-.14.2-.39.52-.54.31-.14.69-.27.86-.39.17-.12.24,0,.31.01.06.02.46-.02.61-.02s.18.17.23.21c.05.04,1.4.08,1.4.08,0,0,1.14.02,1.37.08.23.07.65.24.65.24.25-.03.23-.34.39-.34ZM34.32,111.22s-.12.48-.57.61c-.46.13-1.3.5-1.34.52-.04.02.05.29.17.42.12.13.22.22.33.35.1.13.28.12.42.26.14.14.24.09.63.1.38,0,.28.04.71.06.43.02.88.06,1.02.19.15.13.36.64.49.95.13.31.37.82.37.87s-.15.42-.15.48.08.16.15.24c.07.08.03.15.02.23-.01.08.08.27.09.3.01.02.2-.19.33-.23.12-.04.42.21.42.39,0,.39.11.26-.53.72-.08.06-.17.53-.1.76.06.23.22.49.34.82.12.32.48.77.59.98.12.21.15.49.4.56.26.07.5.15.68.2.19.04.31.1.4-.07.09-.17.27-.83.42-1.3.15-.48-.01-.62.33-.73.34-.11.89-.32,1.04-.39.15-.07.12-.54.45-.69.33-.15.37-.14.69-.24.32-.1.77-.3,1.09-.53.32-.23.41-.11.52-.32.12-.21-.12-.51-.14-.82-.03-.31.1-.33.17-.61.06-.28.1-.46.35-.65.25-.19.38-.3.34-.48-.04-.18-.17-.45-.17-.64s.04-.08-.06-.36c-.1-.27-.1-.31,0-.57.1-.26.35-.19.33-.3-.02-.11-.41-.29-.42-.6,0-.32.07-.41.13-.49.06-.08.72-.59.76-.64.04-.05-.01-.18.31-.33.32-.15.43-.26.55-.3.12-.05.31-.04-.06-.15-.37-.11-.45-.15-.7-.12-.24.03-.33.17-.76.21-.43.04-.93.24-.93.24,0,0,.15-.13.02-.26-.13-.12.33-.54.41-.58.08-.05-.6-.21-.95-.28-.35-.07-1.04-.27-1.44-.24-.4.03-.98.02-1.18.09-.2.07-.17.32-.4.33-.22.01-.64-.13-.96-.08-.32.05-.83.27-.89.28-.06.01.2.17.36.2.17.04.38.38.38.38,0,0-.45-.15-.9-.27-.45-.12-.98,0-1.17.05-.19.05-.43.15-.8.17-.37.02-.79.32-1,.46-.21.14-.87.52-1.03.61-.17.09-.1.13.08.18.18.05.37.08.37.08ZM24.85,116.14c.05.22.05.53-.07.4-.12-.13-.22-.41-.41-.3-.19.11-.4.08-.37.06.03-.02,0-.14-.1-.18-.1-.04-.16.02-.26.08-.1.06-.43.14-.29.04.13-.1.09-.16.04-.28-.05-.12-.38.08-.56.21-.18.13-.29.32-.39.45-.11.13-.03.21.13.26.16.05.42.08.2.16-.22.08-.38.13-.27.2.11.07.3.08.49.06.19-.02.35-.08.66,0,.31.08.49.08.49.08,0,0-.11.07-.32.11-.2.04-.58,0-.77.04-.19.04-.49.09-.42.16.08.07.14.18.4.27.26.08.31,0,.47.04.16.04.07.22.12.25.04.03.34-.02.64-.08.3-.06.19-.1.42-.16.23-.06.24-.24.38-.28.14-.04.04.09.2.13.16.04.07.05.25.08.17.03.14.1.31.08.17-.01.37-.13.34-.15-.03-.02-.05-.07-.03-.15.02-.08-.17.02-.24.06-.07.04-.06-.11.08-.18.15-.07.27,0,.36,0s0-.25-.14-.29c-.15-.04-.22-.14-.45-.26-.23-.13-.11-.18-.18-.35-.07-.17-.21-.66-.34-.75-.13-.09-.26-.06-.39-.15,0,0-.03.12.03.34ZM21.32,115.8c.06.16.06.06-.05.23-.11.17-.05.24-.12.37-.08.13-.28.31-.22.39.06.09.27.14.35.21.09.07.17.21.32.15.15-.05.2-.09.31-.14.11-.06.2-.12.19-.26,0-.14,0-.21.03-.19.04.01.11.08.14-.02.03-.09.09-.21.17-.28.07-.07.28-.14.38-.23.1-.08.26-.17.31-.25.05-.07-.09-.13-.17-.16-.08-.03-.17-.16-.36-.16s-.29.14-.28.08c0-.06-.13-.1-.2-.12-.08-.03-.15-.07-.39-.04-.24.03-.34.04-.54.1-.17.05.06.15.12.31ZM26.86,117.7s-.14.07-.2.15c-.07.08.14.04.21.06.07.02.12.09.17.11.06.02.35.03.48-.03.12-.06.14-.08.12-.11-.01-.03-.26-.27-.43-.36-.18-.1-.18-.1-.22-.08-.04.02-.1.21-.13.25ZM26.06,115.85c-.12.06-.2.13,0,.23.2.1.26.18.39.27.13.08.19.32.46.21.28-.11.39-.23.43-.35.04-.11-.04-.13-.11-.24-.07-.1-.09-.15-.23-.13-.14.02-.19.02-.19.02,0,0,.09-.12.25-.19.15-.08.03-.13.1-.2.07-.07-.18-.11-.29-.08-.11.03-.12,0-.3-.02-.18,0-.47.16-.46.22.01.06.15.04.28.11.13.07.17.06.04.27-.13.2-.2-.05-.24-.08-.04-.03,0-.09-.13-.03ZM25.24,115.48c-.19.02-.26.15-.18.17.07.02.12-.02.23.1.12.12.22.19.26-.01.05-.2-.02-.29-.31-.26ZM22.16,113.95c-.21.17-.26.31-.42.41-.17.11-.13.2-.07.26.06.06.22,0,.3-.04.08-.04.14-.14.19-.08.05.06.24-.2.32-.29.08-.09.2-.18.22-.17.02,0-.07.1-.04.19.03.08.19.09.32-.06.14-.14.01-.27.12-.38.11-.11.2-.1-.01-.19-.21-.1-.34.01-.38.06-.04.05-.12-.03-.54.3ZM23.46,114.22c-.12,0-.17.02-.37.11-.2.09-.29.31-.33.44-.05.12.02.12.2.19.18.07.44-.02.5-.19.06-.17.13.04.1.13-.03.09.13,0,.2-.03.08-.04.31-.06.32-.06s-.19.15-.39.22c-.2.07-.36.1-.42.11-.06,0,.05.09.29.14.23.05.37-.14.71-.27.34-.13.32-.15.43-.12.11.03.23-.06.37-.09.14-.03.19.02.25-.18.06-.2.17-.4-.03-.41-.19-.01-.2-.01-.23.21-.03.22-.04.08-.04.08,0,0-.13-.19-.2-.29-.08-.1-.13-.25-.22-.34-.09-.08-.12.04-.26.18-.13.15-.03.2.11.27.13.06.23.23.16.27-.06.04-.14,0-.38.02-.24.03-.23-.08-.3-.11-.07-.03.11-.1-.15-.21-.26-.11-.24-.09-.33-.08ZM22.68,114.42s-.32.21-.38.29c-.05.08.05.07.16.06.11,0,.13-.2.22-.35ZM23.35,113.9c-.09.04-.09.07.06.09.14.02.23-.05.2-.11-.03-.06-.18,0-.25.02ZM24.08,113.14c-.09.02-.37.11-.39.16-.01.05,0,.15.04.23.04.08.06.09.3.03.24-.06.4-.19.32-.21-.08-.02-.13-.06-.2-.07-.07-.01.06-.05.22-.1.16-.05.21-.14-.3-.05ZM23.27,113.27c-.07.03-.09.03.05.09.14.05.29.05.27,0-.02-.04-.13-.18-.32-.09ZM23.82,112.88c-.13.05-.16.15-.19.19-.03.04.15-.03.23-.05.08-.02.1.03.18-.04.08-.07.24,0,.39-.03.14-.03.17-.13.14-.21-.03-.08-.36,0-.75.14ZM25.26,113.24s-.03.08,0,.15c.03.07.04.06.11.08.07.03.14.09.16.1.02.02.03.02.06-.05.03-.07-.01-.06-.1-.15-.08-.1-.14-.19-.25-.14ZM25.75,113.86c-.11-.03-.17.03-.21.05-.04.02.02.07.05.15.03.09,0,.11.17.13.16.01.21-.02.22-.12.01-.1-.12-.18-.23-.21ZM26.38,114.04c-.1-.07-.15-.13-.25-.09-.1.04-.02.09-.02.12s.12,0,.13.06c0,.07.04.09-.11.1-.15,0-.19,0-.25.05-.06.04.11,0,.16.06.05.07.14.08.28.05.14-.02.34-.05.34-.05,0,0-.1.1-.15.17-.04.07-.06.17.01.22.07.05.08-.05.29-.06.21,0,.27-.11.27-.11,0,0-.05-.05-.04-.15,0-.1,0-.13,0-.13,0,0,.08.06.1.08,0,0-.01-.06-.04-.17-.03-.11,0-.12-.04-.27-.03-.15-.03-.18-.18-.18-.16,0-.26.06-.39.06s-.18.02-.09.07c.09.05.11.11.15.16.04.05.04.18.04.18,0,0-.21-.17-.21-.17ZM25.6,114.61s0,0,0,0c-.06.03-.09.1-.09.15,0,.05.09.02.23-.03.14-.05.07-.19-.13-.13ZM27.61,114.34c-.12.06-.21.15-.28.23-.07.08,0,.09.17.18.18.09.37.11.45.01.08-.09-.04-.58-.34-.42ZM28.44,113.65c-.23.02-.16.06-.42-.03-.26-.09-.59-.1-.68-.1s-.05.04.04.19c.09.15.12.21.31.16.19-.05.35-.08.49.12.14.2.21.27.1.34-.12.07-.06.19,0,.35.07.15.22.15.43.15s1.57-.02,1.78-.06c.21-.04.4-.22.51-.3.11-.08.17-.21.02-.3-.15-.09-.37-.18-.54-.18s-.32.09-.58.12c-.26.03-.2.15-.44.16-.24,0-.12.11-.41,0-.29-.12-.5-.27-.37-.29.14-.02.25-.04.17-.1-.08-.07-.21-.24-.42-.22ZM25.73,112.54c.14.05.18.08.02.12-.16.04-.28.15-.12.13.16-.02.29.01.49.05.2.03.19.01.27.13.09.11.19.11.32.08.14-.03.16-.04.07-.14-.09-.1-.18-.28-.3-.35-.12-.07-.22-.17-.35-.16-.12.01-.15.01-.26-.13-.11-.14-.19-.07-.34-.04-.15.04-.2.15-.26.2-.12.1.31.06.45.11ZM27.57,111.08c-.17.21-.3.38-.11.4.19.02.27-.01.28.04.01.06-.03.1-.31.1s-.19.06-.04.25c.16.18.17.12.41.12.24,0,.32-.09.52-.04.2.05.26.1.08.15-.18.05-.6.15-.5.24.1.09.39.3.53.32.13.02.16-.09.45-.06.29.03.22.06.25-.02.03-.08.19-.29.22-.36.03-.07.11-.12.27-.16.16-.04.21-.09.06-.14-.15-.05-.32-.08-.3-.12.02-.04.11-.16.04-.23-.06-.06-.17-.06-.25-.09-.08-.03-.18-.18-.28-.25-.11-.07-.2-.07-.33-.17-.13-.1-.33-.34-.59-.32-.17,0-.25.11-.41.32ZM27.24,112.82c-.06.03-.22.04-.11.14.12.1.09.1.24.04.15-.06.37-.2.39-.24.02-.04-.15-.12-.27-.16-.11-.04-.19-.13-.43-.19-.35-.09.25.37.18.41ZM35.06,109.73c-.26-.07-1.21-.25-1.52-.18-.31.07-.29-.16-.72-.1-.43.06-1.08.02-1.29.06-.2.03.1.12.21.19.11.07-.53-.08-1.01.06-.49.13-.8.21-.28.4.52.2.59.25.59.25,0,0-.66-.12-.95-.23-.28-.11-.13-.1-.66.05-.53.15-1.04.23-1.01.39.03.16.43.37.69.43.26.06.81-.08.85-.1.04-.02-.21.21-.21.21,0,0,.27-.06.58-.14.31-.08.55-.17.83-.27.29-.1.34-.13.34-.13,0,0-.5.39-.85.52-.35.13-.8.22-1.01.23-.21,0-.18.14.03.25.21.11.37.35.49.43.11.08.13.21.13.21,0,0-.33-.26-.7,0-.37.26-.32.4-.22.43.09.03.42.06.48.17.06.11.49-.1.49-.1,0,0-.21.27-.42.27s-.2-.17-.49-.14c-.3.03-.28.1-.15.21.13.1.23.14,0,.24-.22.1-.32.13-.33.26,0,.13.29.13.48.13s.37-.02.71-.02c.34,0,.3-.12.43-.12s.26.04.2.17c-.05.13.05.05.43-.09.37-.13.2-.34.18-.41-.03-.07-.16-.1-.25-.13-.09-.04.26-.39.2-.51-.05-.12.42-.02.63-.3.21-.28.14-.48-.02-.53-.15-.05.28-.02.42-.1.14-.08.43-.17.55-.33.12-.15.16-.21-.13-.17-.29.03.42-.13.76-.35.34-.22.73-.48.82-.55.09-.06.16-.03-.24,0-.4.02-.88-.03-.61-.06.26-.03,1.05-.13,1.25-.28.2-.15.3-.2.3-.2ZM30.29,115.23c-.43-.04-1.05-.14-1.18.22-.13.37-.32,1.17-.34,1.33-.02.15.51.37.88.39.37.02.96.04.84-.05-.12-.09-.02-.13.32-.12.34.02.37-.07.37-.14s.06.09.3.21c.24.13.44.48.66.69.21.21.69.48.6.64-.09.16.1.71-.63.84-.73.13-.77.04-.77.21,0,.17.04.24.33.24s.69-.24.83-.06c.14.17.32.24.44.28.12.04-.14.11-.21.13-.07.02.14.05.56.25.42.2.92.22.67.08-.25-.14-.37-.4-.48-.49-.11-.09,0-.02.19.03.2.05.37.21.46.28.09.07.13-.02.19-.3.06-.28-.03-.28-.36-.5-.33-.22-.43-.4-.47-.56-.03-.16.17-.19.26-.3.09-.11.32.2.49.38.16.18.3.5.43.27.13-.23.25-.75.25-.86s-.13,0-.67-.26c-.55-.27-.83-.37-.88-.37s.14-.1.38-.22c.24-.12.34-.1-.17-.59-.51-.48-.66-.59-.99-.62-.33-.03-.43-.38-.66-.5-.24-.12-.79.14-.95.18-.16.04-.11.1-.32-.19-.2-.29-.37-.51-.37-.51ZM30.67,115.23c-.21.03.13.41.4.43.27.02.5-.12.56-.14.06-.02-.63-.33-.96-.29ZM29.71,119.17c-.04.09-.12.33-.13.49-.01.16-.04.18-.07.29-.03.1.1-.02.19.13.09.15.05.19.21.02.16-.17.34-.23.56-.16.22.07.4.1.32-.04-.08-.14-.18-.13-.33-.31-.15-.18-.27-.23-.46-.3-.19-.07-.21-.3-.29-.11ZM31.32,133.07c-.07-.14-.17-.36-.58-.44-.41-.08-.55.08-.71.13-.15.05.14.08.34,0,.2-.08.35-.02.37.02.03.04-.07.06-.1.02-.03-.04-.04.09.18.17.22.08.28.12.3.21.02.1.02.15.07.23.05.08.07.11-.02.15-.09.04-.06.03,0,.07.07.04.21.11.4.13.19.02.26.05.12-.13-.14-.18-.37-.53-.39-.57ZM31.94,133.95c.11.11.08.23.07.29,0,.06-.12.01-.34-.04-.21-.06-.18-.03,0,.07.19.1.31.08.3.21,0,.13.17.01.25-.07.08-.08.07,0,.4.04.33.05.4.11.35-.04-.05-.14.15-.13-.14-.27-.29-.14-1.01-.33-.89-.2ZM31,134.03c-.12-.14-.28-.16-.28-.04,0,.12.04.11.16.14.12.03.2-.01.12-.1ZM33.4,134.62c-.14-.05-.16.06-.07.14.09.08.23.06.36.05.14,0-.06-.11-.29-.19ZM31.84,118.02c-.18.08-.28.13-.13.33.16.21.25.33.31.18.06-.15.12-.65-.18-.52ZM30.41,120.22c-.27.04-.36.05-.32.2.04.15.12.13.3.04.18-.09.31-.29.02-.24ZM30.97,120.45s-.06.12,0,.21c.06.1.17-.03.23-.15.05-.12-.06-.12-.23-.07ZM28.02,113.13c-.26,0-.64.1-.43.1.21,0,.39.05.73.03.34-.02.38-.04.39-.21,0-.17-.23.06-.69.08ZM26.43,111.73c-.26.08-.2.13.11.27.31.14.32.07.28-.18-.03-.25-.24-.13-.39-.09ZM44.63,118.37c-.32.09-.43.04-.49.2-.06.16-.19.08-.26.1-.07.02-.18.48-.23.41-.05-.07-.07-.11-.14-.26-.07-.16.02-.13-.12-.29-.14-.17-.42-.15-.44-.08-.02.07.19.12.12.2-.07.08-.25.17-.31.23-.07.06.13.03.25,0,.12-.03.2.09.25.18.05.08-.06.17-.11.21-.05.04.18.03.27.05.09.02.14.09.08.2-.06.1.27.01.46,0,.18-.01.23.13.51.04.28-.09.41-.08.67-.27.25-.19.23-.14.4-.27.17-.12.13-.16.14-.29,0-.13.11.04.07-.17-.04-.2-.25-.15-.39-.16-.15-.02-.14-.13-.21-.17-.07-.04-.17.06-.5.15ZM66.19,135.85s-.03.1-.03.21-.01.22,0,.33c0,.11.01.18.07.21.06.02.1.05.2,0,.1-.05.19-.13.14-.25-.05-.12-.14-.29-.19-.38-.05-.09-.16-.21-.18-.12ZM66.12,135.7s.02.04.05.07c.02.03.04,0,.01-.04-.03-.04-.03-.05-.03-.05,0,0-.04-.01-.04.02M75.31,142.03s0,0-.01.01c-.17.18-.33.13-.63.22-.31.09-.84.4-.88.54-.04.14,0,.15-.04.14-.04-.02-.1-.1-.1-.1,0,0-.08.17-.06.32.02.15.09.24.08.43,0,.19-.08.3-.07.43,0,.13.22.38.28.54.06.15.1.11.13.39.03.28.18.43.03.58-.15.15-.26.12-.08.27.18.15.33.26.61.15.29-.1.21-.19.43-.24.22-.05.27-.09.46-.11.19-.01.33,0,.4-.13.07-.14.02-.13.21-.23.19-.09.17-.12.3-.14.13-.02.21.07.38-.07.17-.14.04-.15.43-.15s.54.05.68.1c.14.05.37.17.43.26.06.09.13.2.16.2s.06,0,.15-.08c.09-.09.34-.27.34-.27,0,0-.01.19-.07.26-.06.07-.06.17-.06.21s.15-.11.17-.12c.02,0,.04.26.06.29.02.02.08.01.13.09.06.08.13.14.19.29.06.15.3.3.45.32.15.02.29.01.4,0,.11-.02.12-.15.24-.1.12.05,0,.17.28.14.29-.02.36-.12.48-.2.11-.08.13.11.27-.09.15-.2.17-.15.2-.4.03-.24.02-.29.16-.52.14-.23.17-.12.27-.46.1-.34.22-.66.2-.94-.01-.28,0-.1-.06-.41-.06-.32-.02-.28-.22-.41-.2-.13-.26-.1-.31-.28-.05-.18.01-.24-.08-.24s-.18.04-.24-.08c-.06-.13-.05-.17-.16-.29-.11-.12-.21-.1-.41-.18-.2-.09-.1-.11-.1-.27s.01-.32-.15-.39c-.16-.07-.06.04-.06-.21s0-.22-.13-.26c-.13-.04-.17-.04-.25-.19-.08-.15-.19-.41-.23-.51-.04-.1-.09.01-.14.09-.05.08-.12.24-.12.4s.07.24.07.45-.14.41-.23.53c-.09.12-.16.01-.24-.02-.08-.03-.09-.15-.26-.23-.16-.08-.46-.15-.6-.27-.14-.12-.04-.13,0-.25.04-.13.1-.23.2-.31.1-.08.07-.12-.06-.19-.13-.07-.31-.08-.52-.08s-.34-.02-.33.11c.01.12.14.17-.04.13-.18-.04-.34-.05-.42.04-.08.09-.1.14-.14.33-.05.19.01.2-.06.2s-.38-.15-.48-.19c-.1-.04-.16-.04-.28.07-.12.11-.53.47-.69.56-.15.09-.15.07-.3.56ZM69.63,136.67c-.09-.01-.14-.04-.03.11.11.14.14.17.25.27.11.1.14-.07.23.12.08.19.05.19.13.27.08.07.15.09.17.16.02.07.05.18.14.26.09.08.09.07.15.22.06.15.14.27.18.4.04.13.29.25.41.41.12.16.33.39.37.33.03-.06.12,0,.19-.02.06-.02.09-.12.13-.34.04-.22-.04-.33-.1-.38-.06-.05-.17-.06-.2-.11-.03-.05-.08-.21-.15-.26-.07-.05-.09,0-.09-.12s.09-.11-.02-.19c-.11-.07-.12-.12-.15-.16-.03-.04-.26-.09-.32-.15-.06-.06-.31-.18-.43-.3-.12-.12-.25-.21-.29-.3-.04-.09-.16-.16-.55-.21ZM72.11,139.23c-.1,0-.15-.06-.22.06-.07.12-.06.12.05.12s.09.06.08.07c0,.02-.05-.01.17.08.22.09.37.05.43.02.06-.03.08.08.38.13.3.05.46-.03.65.02.19.05.15-.02,0-.13-.14-.1-.12-.05-.26-.15-.14-.1-.33-.1-.42-.12-.09-.02.08.1-.2.06-.27-.04-.17.02-.32-.07-.14-.09-.14-.11-.23-.12-.09-.02-.11.02-.11.02ZM74.27,139.67c-.08.02-.23.07-.16.1.07.03.02.05.24.03.23-.02.42-.05.45-.1.03-.05-.04-.02-.13-.04-.09-.03-.09.02-.21.04-.13.02-.19-.03-.19-.03ZM75.06,139.65c-.15.02-.13.05-.01.09.12.04.23.05.32.03.09-.02.1-.05.27-.08.17-.03.22-.02.35-.04l.13-.02s-.01-.03-.1-.02c-.09,0-.15,0-.24,0s-.24.08-.31.08c-.06,0-.19-.04-.22-.02-.03.02-.03-.04-.19-.02ZM75.91,139.84s0,0,0,0c-.11.07-.11.09-.1.15,0,.06-.01.08-.01.08,0,0,.16,0,.27-.13.12-.12.12-.12.24-.16.12-.04.26-.18.26-.18,0,0-.1.02-.2.01-.11,0-.21.06-.24.08-.03.03.03.04-.21.13ZM75.02,139.91c-.11-.08-.22-.07-.23-.02,0,.05-.1.05.06.1.16.06.31.13.29.05-.01-.08-.08-.11-.13-.14ZM74.01,136.6c-.06.09.06.07-.03.15-.09.08-.17.04-.26.16-.09.12-.23.2-.29.25-.06.04-.25.09-.34.21-.09.11.03.18.03.18,0,0-.05.02-.19-.03-.14-.05-.14-.11-.14-.11,0,0-.1,0-.15.14-.06.15-.09.16.01.25.1.09-.07.09-.05.15.02.06.02.17.08.18.06.01.07-.06.15.04.07.09.01.35.11.36.09.01.16-.03.24,0,.08.04.14.07.25.03.11-.04.22,0,.28.03.06.03.26.1.35.09.1,0,.11.02.13-.12.02-.14,0-.27.12-.38.12-.11.12-.11.13-.21,0-.1,0-.2.08-.31.07-.1.11.06.15-.02.04-.08.08-.08.06-.12-.02-.04-.13-.04-.17-.12-.04-.08.01-.12-.04-.27-.05-.15-.08-.1,0-.18.07-.09.13-.1.14-.17,0-.07.04-.07.13-.13.09-.06-.01-.03-.1-.1-.08-.06-.24-.3-.34-.3-.05,0-.26.24-.32.33ZM86.59,145.02s-.08,0,.02.1c.09.11.1.08.16.08.06,0,.11.22.14.28.03.06.1.12.1.12,0,0,.03.24,0,.35-.03.11-.09.15-.11.25-.02.1.1.07.17.1.08.03.06.03.03.12-.03.09-.12.13-.12.14s.17.11.26,0c.09-.11.23-.27.27-.38.04-.12-.07-.06.06-.15.12-.08.11-.04.17-.15.06-.1.13-.21.06-.27-.07-.06-.15.07-.22.09-.06.02-.11.03-.2-.02-.09-.04-.11-.04-.14-.12-.03-.08-.08-.12-.08-.12,0,0-.03.13-.09.09-.06-.04-.05-.09-.09-.17-.05-.08-.05-.1-.08-.15-.03-.06,0-.16-.15-.18-.15-.02-.13-.01-.17-.04ZM86.62,146.46s-.12.1-.23.25c-.11.15-.12.2-.16.28-.03.08-.16.17-.36.28-.2.11-.28.15-.35.25-.07.1-.31.41-.34.44-.03.04.11.07.26.07s.38.13.51,0c.13-.14.26-.47.34-.59.08-.12.16-.16.29-.28.13-.11.34-.33.34-.41s-.06-.22-.06-.22c0,0-.05.09-.16.08-.11-.01-.09-.16-.09-.16ZM85.61,147.99c-.15-.08-.18.07-.2.22-.02.15.06.02.19-.05.13-.07.07-.14,0-.17ZM80.55,146.95c-.17-.06-.14.1-.11.22.03.12.06.21.12.31.06.1.3.13.4.09.09-.04.16-.19.26-.33.09-.14.14-.3.12-.38-.02-.08-.14.08-.21.11-.08.04-.18.13-.32.09-.14-.04-.18-.1-.24-.12ZM78.43,138.43c-.14.03-.2-.09-.32-.32-.11-.23-.2-.26-.48-.16-.28.1-.24.08-.05.15.19.07.21.1.24.1s.3.04.24.08c-.06.04-.32.08-.15.19.16.11.09.03.52.25.43.21.49.06.63.33.14.28.14.23.03.3-.11.07-.26.14-.2.15.06,0,.17.03.46.05.29.02.02.18.34.18s.41-.1.54-.25c.13-.15.15-.07.43,0,.27.06.37.3.71.4.34.1.49.22.27.02-.21-.2-.29-.34-.58-.57-.29-.23-.31-.25-.39-.43-.09-.17-.38-.38-.72-.52-.33-.13-.52-.15-.91-.26-.4-.11-.47.29-.6.32ZM76.19,137.63c-.13.09-.14.03-.24-.02-.1-.06-.07.12-.28.02-.21-.1-.29-.15-.52.02-.23.17-.08.24-.09.36,0,.12-.19.45-.26.58-.07.12-.07.17-.02.25.05.08.13.05.16.09.03.04,0,.35-.04.45-.04.1.09.12.22.09.13-.03.02-.04.02-.15s.06-.16.06-.36v-.3s.04-.02.09.05c.05.07.12.26.17.36.06.1.12.17.21.1.09-.07.17-.15.17-.15,0,0-.17-.05-.17-.11s.07-.11-.05-.31c-.12-.2-.19-.21-.03-.22.15-.01.15-.16.24-.21.09-.04.22-.03.22-.03,0,0-.09-.09-.23-.05-.14.04-.26.06-.38.12-.12.06-.22.1-.24-.01-.02-.12-.04-.15-.02-.31.02-.16.2-.04.34-.08.14-.04.14-.03.44-.01.3.02.32-.05.41-.17.09-.12.14-.27.14-.27,0,0-.21.17-.33.26ZM76.9,137.2s-.22.17-.27.21c-.05.04,0,.11.03.17.03.06.03.28.04.33.01.05.14.09.14.09,0,0,0-.15.04-.21.05-.07,0-.15,0-.27s-.07-.17.01-.32ZM76.41,138.5c-.2-.07-.27-.03-.27.08s-.02.15.19.15.44-.09.08-.23ZM76.8,138.44s-.1.17-.07.26c.03.09.06.03.17.01.11-.02.09-.11.23-.12.14-.01.42.1.42.1,0,0,.06-.07-.16-.21-.22-.14-.32-.13-.59-.04ZM72.91,133.39s-.2,0-.23,0-.1.08-.15.11c-.05.03-.05.07-.01.15.03.08.09.08.19.11.1.03.06-.04.13-.07.07-.03.09-.09.1-.15.01-.06.06-.08.08-.1.02-.02-.06-.09-.06-.09,0,0-.06.04-.06.04ZM75.21,133.67c-.08-.06-.12.14-.14.25-.02.1-.05.17,0,.25.04.08.02.1.02.1l-.11-.08s-.03.1-.03.18-.03.12.09.18c.13.06.17.03.19.12.02.09.02.13.1.15.09.02.18.05.22.11.03.06.02-.15.08-.14.06.01.13.09.17.15.04.07.11.07.11.07,0,0-.1-.16-.06-.18.04-.02.06-.04-.06-.1-.11-.07-.2-.05-.29-.06-.09-.01-.09.06-.15-.11-.06-.17-.01-.27-.01-.31s.05.06.1-.06c.05-.11.06-.21.06-.32,0-.11.08-.15.01-.16-.06,0-.25,0-.29-.03ZM76.23,135.8c.01.08-.08-.02-.11.02-.03.05-.05.04-.11.06-.05.02-.19.14-.19.14,0,0,0-.08,0-.1,0-.02-.04-.11-.08-.05-.04.06-.08.1-.17.15-.09.04-.15.11-.16.19-.01.08.05.08.05.08,0,0,.04-.03.09-.12.06-.09.07-.09.18-.1.11-.01.1-.01.13.05.03.06,0,.15.01.21,0,.06,0,.14.11.18.11.04.06,0,.16,0,.1,0,.1,0,.08-.06-.01-.05-.04-.09-.05-.15,0-.06.06-.08.08-.1.02-.01.03.06.06.13.03.07.04.07.06.01.01-.06.05-.19.04-.26-.01-.07-.02-.13-.02-.19s-.05-.13-.08-.15c-.03-.02-.13-.11-.13-.11,0,0,.01.08.03.16ZM75.73,135.31s0-.05-.09-.14c-.09-.09-.09-.12-.24-.14-.14-.02-.28.01-.22.16.06.15.08.17.2.19.12.02.19-.05.19-.05,0,0,0,.02-.1.09-.11.07-.13.21-.04.26s.09.13.14.09c.05-.04.09-.18.19-.28.1-.1.11-.11.12-.21.01-.1,0-.19,0-.19l-.15.2ZM75.98,135.02s-.09,0,0,.07c.08.07.15.09.14.15,0,.06,0,.07-.05.06-.04,0-.06-.02-.08-.02-.02,0-.02.04,0,.07.01.03,0,0,.05.05.04.06.03.08.04.14.01.07.04.03.04.03,0,0,0-.16,0-.19,0-.03-.01-.11.04-.09.05.03.04.12.07.03.03-.09.02-.17,0-.24-.02-.07-.07-.07-.14-.07s-.09,0-.09,0ZM74.87,135.3s-.05.04-.07.15c-.02.11-.08.17-.15.23-.07.06-.24.24-.25.27-.01.03-.01.01.12-.05.13-.06.24-.15.25-.23.02-.08-.02-.03.1-.09.12-.06.06-.07.06-.16,0-.09-.01-.13-.07-.12ZM81.93,138.55c-.01.11.03.14-.07.22-.1.08-.22.08-.33.1-.11.02-.03-.02-.16-.02-.13,0-.17,0-.11.07.06.07.05.13.24.13.2,0,.36-.11.49-.15.13-.04.12-.14.13-.19.01-.05-.18-.27-.2-.16ZM82.48,138.78c.05.08.03.07.1.17.07.1.18.12.26.15.08.03,0-.03-.06-.11-.06-.08-.07-.13-.16-.21-.09-.08-.24-.13-.15,0ZM75.29,132.11c-.27.17-.4.16-.29.38.11.22.18.31.19.36.01.04.07-.03.14-.2.07-.17.08-.4.11-.47.03-.07-.07-.12-.16-.06ZM79.96,123.55c.03.12.06.29,0,.31-.07.02-.12.15-.13.28-.02.13-.05.3.02.4.07.1.02.11.02.2s.03.31-.02.44c-.04.13-.07.16-.05.3.02.14,0,.17,0,.37s-.01.36,0,.44c0,.08.05-.04.08-.07.03-.03.14-.04.21.02l.06.07s.1.04-.04-.26c-.14-.3-.17-.24-.13-.51.04-.27.06-.28.2-.31.14-.03.22.17.24.19.02.02-.01-.07-.06-.22-.05-.15-.1-.21-.11-.4-.02-.19-.08-.36-.15-.41-.08-.06-.04-.15,0-.22.03-.08.05-.19.03-.32-.02-.13-.06-.31-.08-.38-.02-.07-.11.04-.11.04l.03.05ZM79.83,126.59c0,.09.02.17-.04.27-.06.1-.02.12-.05.26-.03.14-.2,0-.2.03s-.03.13-.07.16c-.04.04-.19.04-.14.18.04.14.12.29.12.29,0,0,.09-.08.11-.09.03,0,.09-.03.09-.03,0,0-.01-.04-.11-.08-.09-.04-.09-.14-.07-.16.01-.03.13,0,.21,0,.08,0,.14-.05.23.03.09.08.23.1.23.1,0,0,.02-.11.06-.19.04-.08.17-.04.29-.08.12-.04.22-.06.17-.11-.04-.05-.04-.17-.06-.25-.03-.09-.11,0-.17.03-.06.03-.14,0-.23-.05-.09-.06-.24-.27-.29-.35,0,0-.09-.04-.08.04ZM79.45,127.89s-.09.12-.08.24c0,.12.11,0-.02.35-.13.36-.19.44-.32.53-.12.09-.24.09-.29.07-.05-.02.01-.1.05-.13.04-.02-.11-.03-.17-.02-.06,0,0,.08,0,.13,0,.06-.12.21-.11.28.01.07.01.09-.06.11-.08.02-.13-.06-.15-.07-.02-.01-.14.02-.29.04-.15.02-.19.07-.25.18-.06.11-.21.13-.32.17-.11.04-.07.2-.19.25-.12.05-.12.15-.13.23,0,.08.07.02.09.02.01,0,.01-.11.09-.1.07.01.08.01.04.1-.04.08-.06.13-.1.2-.04.07.01.1.07.18.06.07.11-.02.23-.15.12-.13.13-.16.12-.3,0-.15-.06-.15-.15-.19-.09-.04-.11,0,0-.11.1-.11.14,0,.21-.05.07-.05.23-.05.39-.09.16-.04.31-.09.31-.04,0,.05.05.22.06.26,0,.04.11-.05.21-.09.11-.04,0-.06,0-.12,0-.07.05-.11.05-.11,0,0,.05.11.22.03.17-.08.18-.11.23-.1.04.01.07.06.14.01.07-.04.08,0,.07.03-.01.04.2-.07.25-.1.05-.03.02,0,0-.13-.02-.12-.08-.13-.04-.29.04-.16.03-.18.04-.28,0-.1.05-.12.07-.12.03,0,.03-.14.08-.21.05-.07.04-.1.04-.27s-.09-.13-.1-.25c0-.12.02-.23.02-.23,0,0-.18.07-.2.11l-.02.04s-.03-.03-.09,0ZM78.26,129.68c-.19.03-.32.05-.43.09-.11.04-.14.09-.12.2.02.11.06.22.08.28.02.06.08,0,.18-.06.11-.06.1-.22.2-.22s.06.12.2-.05c.14-.16.03-.18.04-.26,0-.08-.14.02-.14.02ZM90.19,120.87c-.2-.04-.26-.08-.28-.01-.02.07-.04.1.09.14.13.05.19-.03.31.06.12.09.15.09.24.07.09-.01.13-.06.13-.06,0,0-.34-.17-.49-.2ZM87.89,117.69c-.07.02-.13-.05-.12.13.02.18.06.2.29.17.23-.03.06,0,.38-.03.32-.02.39-.07.39-.07,0,0-.04-.09-.15-.17-.11-.08-.25.06-.5.01-.25-.04-.29-.04-.29-.04ZM80.69,115.01c0,.07.32.26.43.32.12.06.2.03.45,0,.24-.03.26-.13.29-.19.03-.06-.11-.04-.28-.07-.16-.03-.3.03-.35,0-.06-.03.09-.06-.06-.11-.14-.05-.18.02-.21,0-.03-.02-.04-.07-.11-.08-.07,0-.17.07-.16.13ZM79.44,115.42c-.11.04-.1.08.02.19.12.1.08.08.03.15-.05.07,0,0,.18.08.18.08.25.23.36.26.11.03.19,0,.19,0,0,0-.04-.12-.14-.26-.11-.14-.33-.18-.37-.31-.04-.13-.11-.16-.26-.1ZM80.58,114.84s-.16-.1-.41-.25c-.25-.15-.34-.2-.42-.21-.08-.01-.07.09-.1.16-.03.08-.05.06-.18,0-.13-.06-.26-.16-.39-.19-.13-.03-.21.08-.36.23-.15.15-.06.19.12.41.18.22.26.23.41.15.15-.09.11-.14.21-.1.11.04.47-.04.48-.04s-.02.2.14.15c.16-.05.31-.08.38-.16.07-.08.12-.14.12-.14ZM69.52,110.59s-.32.02-.46.24c-.14.22-.24.07-.31.2-.07.13-.13.3-.13.3,0,0,.13.15.26.14.14-.01.37.05.51.23.13.18.23.18.55.23.32.05.17.1.34.08.17-.02.4.02.34-.06-.05-.08-.09-.13-.07-.3.02-.16.17-.15,0-.26-.17-.11-.3-.02-.29-.04,0-.02.16-.08.1-.08-.06,0-.35-.02-.39-.19-.03-.17.08-.18.14-.19.06-.01.04-.03-.13-.15-.17-.12-.4-.25-.4-.25-.11.06-.02.07-.06.11ZM71.12,111.79c-.12.02-.23.15-.3.25-.07.11-.22.27-.31.34-.09.07-.06.09.08.14.14.05.4-.09.47-.1.07,0,.13.11.36.08.23-.03.58-.07.41-.19-.17-.12-.11-.06-.3-.21-.19-.15-.43-.16-.43-.16,0,0,.39-.13.29-.14-.09,0-.29-.01-.29-.01ZM61.27,109.83c-.22.08-.14.12-.29.23-.14.12-.05.15.26.07.31-.08.33-.11.53-.2.2-.09-.17-.23-.5-.11ZM61.77,110.39c-.21.09-.15.19-.1.27.06.08.21-.05.25.04.04.09.06.05.25-.08.2-.13.12-.09.05-.23-.08-.14-.09-.16-.45,0ZM60.6,110.33c-.13.06-.13.06,0,.12.13.06.44.11.6,0,.16-.1.15-.08-.05-.11-.2-.03-.39-.08-.54,0ZM58.63,110.57c.21-.02.4-.03.57,0,.17.02.11.16-.2.19-.31.03.03.08.25.07.22,0,.08-.19.26-.25.18-.06.3-.02.51-.1.22-.08-.12-.15-.38-.15-.25,0-.34.02-.55,0-.21-.01-.39.08-.61.12-.45.08-.06.13.15.12ZM60.26,110.63c-.18,0-.62.1-.25.14.37.04.34.06.5,0,.15-.06-.05-.14-.24-.14ZM61.55,110.71c-.26-.09-.27-.05-.47-.04-.2,0-.28.13-.15.19.13.05.22.03.33.02.11-.02.1-.05.03-.08-.07-.03.41-.03.26-.08ZM62.64,110.39c-.2.02-.21.06-.23.12-.02.07.03.05.24.02.21-.03.31-.06.45-.13.14-.07-.03-.26-.03-.29s-.19.1-.25.15c-.05.05.06.1-.18.13ZM47,121.8c-.1.28-.27.41-.07.33.2-.08.39-.32.38-.11-.01.2-.2.18-.14.38.06.2.02.18.34.26.33.07.06.05.14.24.08.19.14.25.05.31-.09.06-.34-.18-.35-.08-.02.1.03.17.1.31.06.14-.04.21-.23.3-.19.09-.03.15.12.14.15,0,.51-.08.45.05-.06.13-.24-.02-.36.19-.13.21-.59.4-.35.38.24-.01.21-.08.92-.18.72-.1.22,0,.69-.15.47-.14.32-.18.06-.14-.26.04.17-.26.11-.53-.06-.28-.23-.01-.34-.19-.11-.18-.1-.23.12-.16.21.06.19-.04-.22-.3-.41-.26-.16-.21-.34-.43-.19-.22-.5-.19-.5-.19,0,0,.14-.08.22-.24.08-.16.1-.15.18-.34.09-.19-.09-.18-.3-.13-.22.05-.29.07-.24-.02.05-.09.08-.12.18-.23.1-.11.12-.16-.07-.12-.19.04-.21.04-.37.11-.24.11-.08.26-.18.54ZM46.49,122.45c-.33.13-.24.21-.18.26.06.05.16-.04-.15.13-.31.18-.31.37-.15.41.16.04.14-.09-.03.23-.17.32-.29.54.06.46.35-.08.44-.26.61-.28.17-.02.2-.15.2-.35s-.11-.2.02-.37c.13-.17.14-.34-.12-.42-.26-.08-.05-.13-.26-.05ZM50.62,126.93s.02.17-.11.25c-.13.08.06.16.11.24.04.08.1-.27.09-.44-.01-.17-.03-.19-.08-.05ZM50.55,127.59c-.22.1-.23.18-.26.34-.03.16.17.03.12.17-.05.14,0,.22.22.08.23-.14.1-.26.13-.43.03-.17.06-.31-.22-.17ZM53.89,129.35c-.19-.02-.27.1.05.14.33.04.47.04.59.01.12-.03.02,0-.14-.11-.16-.11-.26-.01-.5-.04ZM55.71,129.45c-.26-.06-.19.26.08.21.27-.05.17.02.29-.18.12-.2-.09.02-.36-.04ZM49.18,127.97c-.21.03-.23.1-.06.14.17.04.14,0,.24-.08.09-.07-.08-.08-.17-.07ZM36.28,124.09c-.13.1-.28.26-.47.59-.19.33-.17.3-.34.48-.18.18-.09.14.47.25.56.11.51.19.64.15.13-.04.15.07.15.18s.12.05.18-.13c.06-.18-.06-.5-.17-.68-.12-.18-.14-.18-.32-.14-.18.05-.12-.04-.19-.18-.06-.14-.17-.03-.01-.24.15-.21.19-.38.06-.28ZM19.28,123.71c0,.18.19.48.33.58.14.1.11.04.05-.17-.06-.21-.01-.21-.04-.35-.03-.13-.33-.13-.33-.07ZM20.21,124.67s.15.2.34.33c.2.13.25.15.45.21.2.06.29-.02.16-.14-.13-.12-.02-.11-.26-.16-.24-.06-.29-.04-.41-.11-.12-.08-.37-.21-.29-.12ZM15.02,122.7c-.15-.03-.21-.04-.32.04-.11.08-.13.15-.08.25.06.09.02.04.16-.05.13-.09.07-.1.24-.15.17-.04.13-.1.13-.1,0,0-.04.03-.13,0ZM14.96,122.49c-.1.06-.14.11-.02.09.12-.02.1-.09.17-.07.07.01.1-.01.1-.01,0,0-.14-.07-.25,0ZM12.02,122.02c-.14.07-.27-.01-.19.04.09.05.2.1.3.09.09-.01.15-.01.12-.06-.03-.04-.04-.06-.04-.1,0-.06-.04-.04-.19.03ZM59.16,141.41c-.16.36-.5.18-.78.44-.27.26-.23.18-.03.55.2.36-.17.33-.26.75-.09.43.11.35.22.71.11.36.16.25.37.21.2-.05.35-.14.35-.14,0,0,.03-.32.17-.79.14-.47.23-.81.26-1.12.03-.31.05-.53.12-.44.07.1.08.1.08-.06s-.08-.57-.21-.67c-.23-.17-.12.19-.28.55ZM59.4,117c-.22.05-.33.19-.17.24.16.05.15.02.42-.07.27-.1-.03-.22-.25-.17ZM63.57,112.95c-.08-.12-.14.04-.93.38-.78.34-.78.05-1.51.63-.73.58-.57.51-.61.86-.04.35-.21.2-.28.52-.07.32-.44.33-.26.6.19.26.43.41.83.52.39.11.5,0,.42-.05-.09-.04-.38-.51-.32-1.04.06-.53.26-.45.43-.65.17-.2.61-.71.9-.89.28-.17,1.03-.41,1.41-.54.01,0,.02,0,.03-.01.3-.33-.03-.21-.1-.33ZM61.46,116.52c-.09.01-.14.02.03.18.17.17.32.29.26.07-.06-.22-.21-.27-.3-.25ZM64.26,114.9c-.12-.06-.19-.12-.22-.02-.03.1.14.22.31.25.17.03.03-.17-.09-.23ZM34.94,124.89c-.19-.09-.37-.17-.5-.17s.03.13.22.24c.2.11.39-.01.28-.07ZM34.49,125.68c.01-.16-.1.18.04.26.14.08.21.09.3,0,.09-.09.02-.03-.11-.06-.12-.02-.24-.07-.23-.2ZM90.29,120.22c-.23.02-.4-.04-.4-.04,0,0-.01.18-.08.27-.07.09-.02.18-.02.18,0,0-.23-.1-.36-.15-.13-.05-.26,0-.33-.21-.08-.2-.31-.17-.49-.17s-.13-.23-.13-.23h-.11c-.11.01-.09.27-.23.36-.14.08-.58.14-.58.14,0,0,.28.2.34.37.06.17.17.33.17.33,0,0-.03.08-.36.01-.34-.07-.32.07-.68.21-.36.15-.78.38-.88.46-.1.08-.11.04-.43-.04-.32-.08-.38.09-.47.13-.08.04-.05-.19-.05-.19,0,0-.12,0-.26.07-1.46.74-.45.7-.5.85,0,0-.15.58-.15.58-.21.64-.36.3-.54.81-.57,1.61-.91-.25-.91-.67,0-.26-.06-.6.11-.68,1.43-.67.13-.09,1.48-1.01.43-.3.2-.48.29-.56.1-.08.25-.11.25-.11l-.24-.02c-.24-.02-.24.03-.43.23-.19.2-.33.24-.29.08.04-.15.04-.32-.1-.23-.14.08-.2.07-.46.12-.26.05-.54.18-.78.48-.24.3-.1.26-.03.33.08.07-.38.05-.59.04-.22-.02-.1-.06.03-.1.13-.04-.19-.08-.47-.14-.28-.06-.17.05-.34.11-.17.07-.16-.06-.24-.08-.08-.02-.45-.04-.72-.07-.26-.03-.24.02-.31.11-.07.09-.56.52-.77.76-.21.24-.47.3-.71.52-.24.23-.27.21-.08.25.19.04.22.02.25.2.03.18.12.24.33.24s.15.05.19-.1c.04-.15-.05-.33.12-.2.17.14.31.24.36.43.05.2-.01.34-.1.67-.09.33-.12.8-.24,1.04-.12.24-.22.42-.35.68-.13.26-.79.92-.93.98-.15.06-.24.07-.31-.07-.07-.13-.12-.11-.29.04-.17.15-.24.24-.31.48-.06.24-.2.24-.35.42-.15.18-.19.14-.08.34.11.2.29.42.31.61.02.2-.09.48-.16.61-.07.12-.4.18-.4.12,0-.06.01-.36,0-.53-.01-.17-.14-.17-.1-.23.05-.05.23-.14.1-.27-.13-.12-.23-.02-.29-.17-.06-.15.03-.27,0-.32-.03-.05-.13-.11-.33-.13-.2-.02-.24.18-.29,0-.04-.17.02-.19-.07-.26-.09-.07-.17-.02-.4.17-.23.2-.28.15-.47.24-.19.08-.19.13-.15.2.04.07.2.35.34.38.13.03.23-.06.43-.06s.24.03.19.11c-.05.08-.19.16-.44.4-.25.25-.17.2-.09.3.08.1.2.23.29.42.09.2,0,.27-.01.38-.01.11-.03.29.13.46.17.18.05.12.03.18-.02.07-.3.58-.43.83-.13.26-.13.28-.54.57-.42.29-.6.32-.82.36-.22.04-.42.11-.53.16-.11.05-.07.14-.08.2-.01.06-.12,0-.1-.08.02-.09,0-.15-.05-.18-.06-.02-.24-.1-.42.08-.19.18-.41.19-.49.42-.08.23-.06.15.02.24.08.09.49.48.58.69.1.21.12.36.12.59,0,.23-.46.64-.66.78-.2.14-.25.27-.22.05.03-.21-.09-.34-.24-.5-.15-.16-.59-.29-.68-.31-.08-.02.03-.15-.03-.14-.06,0-.19-.03-.17.18.02.21-.13.14-.17.35-.03.21-.07.42.06.4.13-.02.11.18.21.41.1.23.06.1.32.31.26.21.19.17.25.38.06.21.04.33.17.52.13.19.13.23-.08.12-.21-.11-.38-.24-.47-.37-.08-.13-.13-.46-.19-.63-.05-.17-.4-.36-.51-.48-.12-.12-.04-.21.01-.49.06-.27-.03-.54-.04-.7-.02-.17-.15-.63-.22-.79-.06-.16-.04-.14-.14,0-.1.14-.18.22-.27.22s-.24-.01-.22-.08c.01-.06.11-.3.08-.39-.03-.09-.12-.38-.25-.48-.13-.1-.29-.24-.37-.48-.09-.23-.11-.17-.27-.04-.17.12-.55.14-.73.15-.18.01-.03.1-.08.19-.04.09-.26.21-.69.65-.43.45-.5.46-.61.51-.11.05-.18.03-.18.22,0,.18.02.28,0,.45-.02.16-.07.23-.12.34-.05.11-.1.3-.11.39-.01.1-.11.21-.25.32-.14.1-.14.08-.2-.07-.06-.15-.4-.72-.66-1.26-.27-.54-.2-.63-.23-.79-.03-.15-.03-1.08-.02-1.15,0-.04-.13.11-.17.18-.04.08-.04.17-.19.18-.15.01-.19.02-.33-.13-.14-.14-.21-.23-.19-.22.03,0,.19-.02.29-.06.1-.05.06-.1.06-.1,0,0-.1.01-.23.02-.12,0-.07-.03-.23-.09-.16-.07-.2-.07-.23-.14-.03-.07-.07-.18-.09-.23-.02-.06-.04-.06-.07-.13-.03-.07-.11.01-.28.02-.18,0-.14.01-.35.1-.21.08-.24.05-.49.05-.24,0-.41-.11-.53-.15-.12-.04-.14-.02-.32-.05-.18-.03-.14-.12-.19-.19-.04-.08-.12-.09-.35-.08-.23.02-.24,0-.37-.03-.13-.04-.14-.08-.25-.19-.11-.11-.07-.02-.15-.08-.07-.06-.14-.14-.2-.29s-.04-.19-.11-.26c-.07-.07-.06-.05-.27-.05s-.11.01-.14.03c-.03.01-.09.11-.15.18-.06.07.05.17.13.27.08.1.01.09.14.23.13.15.09.13.18.34.09.2.15.26.17.32.02.06.04-.02.06-.08.02-.06,0-.25,0-.25,0,0,.04.08.08.23.04.15.01.15.04.24.03.09,0,.08.16.08s.26,0,.43-.04c.18-.04.25-.2.34-.25.08-.05.08-.21.14-.2.06.02,0,.2.05.31.05.12.06.08.19.13.12.05.16.08.28.13.13.05.04.05.11.18.07.13.06.06.13.1.07.04.04.01,0,.16-.05.15-.06.15-.17.27-.11.12-.11.08-.13.08-.02,0-.05-.09-.05-.09,0,0-.07.14-.08.31-.01.17.06.11-.15.19-.2.08-.32.12-.4.18-.08.07-.08.16-.12.2-.04.04-.11,0-.24.05-.14.05-.1.04-.21.13-.11.09-.01.08-.16.13-.15.06-.41.18-.55.2-.13.01-.11.05-.14.1-.03.05-.04.08-.21.1-.17.03-.38.05-.49.1-.1.05-.26.17-.37.14-.11-.02-.08-.03-.12-.13-.04-.1-.06-.17-.07-.33-.02-.16-.07-.41-.17-.57-.09-.16-.09-.17-.19-.33-.1-.16-.17-.3-.26-.37-.09-.06-.13-.07-.18-.11-.04-.05-.02-.21-.06-.35-.04-.14-.07-.27-.14-.35-.07-.08-.17-.17-.26-.33-.09-.16-.1-.18-.23-.44-.13-.25-.18-.29-.27-.46-.09-.17-.03-.14-.06-.24-.03-.1-.12.16-.18.22-.07.05-.1.03-.15-.13-.05-.15-.1-.28-.14-.22-.04.06-.07.12-.02.28.06.16.08.13.15.28.07.15.27.54.35.69.08.16.05.08.12.32.07.24.12.27.22.37.1.1.08.05.13.21.04.16.03.35.03.45,0,.1.06.15.18.25.12.1.06.06.11.17.06.11.11.25.14.36.03.1.07.17.16.22.09.05.12.05.21.09.09.03.06.06.13.14.06.08.19.14.26.27.08.13.03.09.02.22,0,.13-.04.07.01.13.06.07.15.12.31.23.16.11.03.03.18.03.15,0,.17-.04.33-.08.16-.03.36-.09.55-.14.19-.05.38-.08.48-.11.1-.03.1.08.03.24-.07.17-.11.31-.17.44-.06.13-.09.15-.13.26-.05.11-.36.56-.43.7-.07.14-.14.25-.24.37-.1.12-.4.33-.54.44-.14.11-.1.11-.21.25-.1.13-.42.5-.51.63-.09.13-.13.18-.2.31-.06.13-.24.31-.26.4-.01.09-.11.11-.04.19.08.08.12.09.14.2.03.1-.09.22-.01.41.07.19.02.05.13.2.11.15.1.25.11.47.01.22.02.44-.01.58-.03.14-.08.24-.13.37-.05.13-.32.22-.48.29-.16.07-.15.04-.22.13-.07.09-.28.27-.35.4-.07.14-.12.12-.1.21.03.09.09.2.16.36.07.16.02.15,0,.28-.02.14-.01.12-.03.28-.02.17-.22.17-.44.26-.22.09-.14.04-.17.16-.03.12-.01.36-.02.5,0,.14-.08.09-.2.26-.12.18-.17.26-.3.47-.13.21-.12.18-.28.32-.16.13-.29.17-.37.32-.07.15-.16.05-.51.16-.35.11-.1.06-.43.1-.33.04-.45.06-.63.1-.18.03-.15,0-.26-.13-.11-.12-.13-.11-.17-.21-.05-.1-.01-.12-.03-.3-.01-.18-.03-.18-.1-.3-.07-.11-.06-.13-.13-.31-.07-.18-.1-.23-.19-.35-.08-.12-.1-.08-.18-.16-.07-.08-.08-.14-.09-.25-.02-.11-.04-.37-.08-.64-.04-.27,0-.13-.05-.24-.04-.11-.09-.25-.17-.41-.07-.15-.05-.11-.16-.3-.11-.19-.1-.16-.17-.33-.07-.16-.08-.09-.08-.16,0-.06.04-.18.04-.29,0-.11.04-.24.07-.41.03-.17-.04-.17.03-.29.07-.12.15-.22.19-.36.05-.13.04-.14.04-.31s-.02-.15-.07-.3c-.05-.14-.07-.31-.13-.53-.06-.23-.06-.22-.07-.31,0-.09-.05-.28-.09-.4-.04-.12-.06-.07-.16-.15-.09-.08-.03-.04-.11-.13-.08-.09-.07-.11-.14-.21-.08-.09-.09-.1-.15-.2-.06-.11-.03-.04-.02-.22,0-.18.06-.51.09-.71.03-.19.04-.18-.04-.27-.07-.08-.13-.2-.19-.22-.06-.02-.2.02-.4.02-.2,0-.19-.05-.28-.15-.09-.1-.2-.24-.24-.28-.04-.04-.11-.04-.46-.01-.35.03-.14.03-.37.07-.23.04-.32.16-.5.22-.18.06-.23.05-.54-.02-.31-.06-.47.07-.62.14-.16.07-.23.04-.35-.04-.11-.08-.18-.14-.36-.23-.18-.09-.14-.13-.31-.22-.17-.09-.12-.09-.26-.23-.14-.14-.16-.28-.26-.42-.1-.14-.19-.34-.32-.49-.13-.15-.27-.45-.33-.55-.07-.09-.12-.1-.12-.14,0-.04.13-.3.18-.43.05-.13.07-.12.09-.2.02-.08-.03-.32-.08-.45-.05-.13-.11-.41-.15-.54-.04-.13.02-.13.07-.2.05-.07.17-.23.29-.45.12-.23.19-.34.25-.44.06-.11.21-.43.31-.52.1-.09.34-.26.44-.32.1-.05.19-.08.21-.13.02-.05.06-.44.09-.6.03-.16-.01-.26.11-.32.12-.06.31-.18.41-.24.1-.06.11-.14.17-.26.05-.12.07-.27.15-.32.08-.05.06.02.16.09.1.07.12.07.16.08.05.01.09-.04.21-.04.12,0,.13.01.2.05.07.04.03.04.23-.09.2-.12.36-.2.62-.3.26-.1.44-.15.56-.16.12-.01.06,0,.2.06.14.05.14.08.17.04.03-.04.12-.15.17-.15.06,0,.12.03.27.05.15.03.21.01.27-.02.06-.03.14-.1.15-.1s.14.04.24.08c.1.04.1.04.08.07-.02.03-.05.05-.1.16-.05.11-.03.05.02.17.05.12.08.11.06.2-.02.09-.12.16-.19.25-.07.08-.05.1.12.19.17.1.13.08.33.17.19.09.2.06.43.12.23.07.2.08.28.17.08.09.08.18.22.23.14.05.28.05.36.1.08.05.14.12.25.14.11.02.11.03.16-.04.05-.08.09-.15.07-.19-.02-.04-.08-.1-.06-.14.01-.04.1-.19.13-.23.03-.05.1-.06.27-.07.17,0,.29-.03.31.07.03.1.02.05.15.11.13.05.14.05.25.1.11.04.05.1.11.1.06,0,.14-.01.25.02.1.03.29.12.49.13.2,0,.27-.05.3-.07.03-.01.17-.19.25-.07.08.12.19.12.4.11.21-.01.21-.04.26-.1.05-.05.17-.26.21-.39.04-.14.15-.44.18-.58.03-.14,0-.24-.01-.33-.01-.08,0-.14.04-.23.03-.09-.1-.04-.15-.02-.05.02-.07-.03-.12-.04-.05-.01-.1-.03-.14.07-.04.09-.02.14-.22.13-.2-.01-.16-.02-.22-.09-.06-.07-.17-.09-.26-.11-.09-.03-.1-.02-.1.03s0,.09-.07.12c-.06.02-.21,0-.33-.06-.12-.06-.16-.09-.28-.2-.12-.12-.1-.12-.15-.3-.05-.18-.05-.34-.03-.39.02-.05.06-.07-.04-.04-.09.03-.15.04-.09-.09.06-.14.12-.14.18-.16.06-.02.16-.02.28-.03.12,0,.21-.07.26-.09.04-.02.13-.05.09-.06-.04-.01-.18-.03-.16-.06.02-.04.04-.04.11-.04.07,0,.19-.01.28-.02.1,0,.15.01.19-.05.03-.06.07-.14.15-.19.07-.05.16-.02.35-.03.2,0,.17.04.23.09.06.05.11.02.19.04.08.02.03.07.1.09.06.03.18.05.32.1.14.05.05.03.22.03s.17,0,.31-.02c.14-.02.2-.08.29-.14.1-.07.03-.22,0-.34-.04-.12-.19-.19-.26-.25-.07-.05-.22-.22-.3-.29-.08-.07-.17-.09-.26-.14-.09-.05-.25-.13-.26-.2-.01-.07.03-.07.17-.1.13-.03.09-.06.11-.13.03-.07.04-.07.14-.11.11-.04-.13-.12-.16-.17-.03-.05.07-.03.18-.06.11-.03.12-.08.13-.12.02-.05.01-.07-.12-.07-.13,0-.29.06-.5.11-.22.06-.12.06-.25.16-.13.1-.14.06-.12.11.02.06.03.11.16.18.13.07.08.07.11.08.04,0,.13.02.09.04-.04.01-.08.07-.14.07s-.09.06-.19.12c-.1.06-.15.07-.22.08-.07.01-.13-.01-.12-.14.01-.13-.04-.04-.12-.07-.08-.03-.11-.06-.11-.06,0,0,.08-.03.16-.08.08-.05.11-.08.15-.18.04-.1-.09-.04-.17-.06-.09-.01-.06-.02-.15-.03-.09-.01-.12-.08-.12-.08,0,0,.04.02.11,0,.07,0,.06-.03.09-.05.03-.02.05-.04.03-.04s-.11,0-.17,0c-.06,0-.1-.01-.19,0-.09.01-.05.05-.12.09-.06.04-.07.06-.1.12-.03.06-.04.05-.07.09-.02.04-.02.14-.02.21s-.02.09-.06.14c-.04.06-.04.03-.11.07-.07.03-.02.06-.03.13,0,.07-.03.09-.04.18,0,.09-.04.09-.09.15-.05.06-.08.06-.09.13,0,.06-.01.09,0,.21.01.12.05.09.14.22.1.13.15.08.11.14-.03.06-.03.04-.14.03-.12-.01-.14,0-.22.09-.09.08-.1.13-.15.16-.04.03-.03-.06-.05-.1-.02-.04-.21-.06-.35-.1-.13-.04-.17-.06-.2-.06s-.09,0-.23.07c-.14.08-.11.12-.1.22,0,.1.12.12.09.36-.03.24.12.13.18.27.06.15,0,.13-.03.15-.04.02-.08.14-.11.26-.03.12,0,.13-.03.13-.04,0-.08.02-.14-.08-.07-.1-.12,0-.13-.06,0-.06-.09-.15-.06-.28.03-.13.08-.14-.03-.21-.11-.07-.09-.08-.14-.22-.05-.14-.07-.17-.17-.29-.11-.13-.1-.09-.07-.22.03-.13.05-.29-.01-.38-.06-.09-.33-.34-.55-.45-.22-.12-.26-.03-.36-.21-.1-.18-.14-.38-.3-.49-.16-.11-.08-.12-.23-.07-.15.06-.16.08-.14.12.01.04.05.1.03.23-.02.12-.05.08.11.18.16.1.09.07.17.25.08.18.09.21.16.28.06.07.09.13.25.17.16.04.13,0,.18.03.04.04-.11.05-.08.07.03.02.06.07.2.15.13.08.27.17.31.24.04.07.15.31-.02.13-.17-.18-.18-.1-.22.03-.05.13.04.22.04.31,0,.09-.09.06-.14.13-.05.07-.08.16-.15.21-.06.05-.04-.05-.08-.05s-.05.04-.09.13c-.04.09,0,.12.02.24.02.12.05.13-.07.12-.12,0-.1-.12-.21-.2-.12-.08-.18-.05-.28-.11-.1-.06.04-.07.28-.1.24-.03.27-.05.34-.11.07-.06.05-.07.13-.18.08-.11,0-.16-.05-.29-.05-.14-.16-.2-.19-.23-.04-.03-.12-.11-.19-.18-.07-.08-.14-.09-.27-.12-.12-.03-.1-.14-.17-.17-.07-.03-.13-.13-.29-.27-.15-.14-.1-.25-.17-.37-.07-.13-.14-.22-.29-.22s-.27.11-.42.26c-.15.15-.12.22-.3.11-.18-.11-.24-.1-.37,0-.13.11-.15.21-.15.43s-.15.13-.27.18c-.12.06-.23.21-.42.56-.19.35.01.18-.03.3-.04.12.01.21-.16.37-.17.15-.1-.02-.2.11-.1.12-.24.23-.49.2-.24-.03-.17.07-.33.1-.15.04-.24.09-.2-.08.04-.17,0-.15-.29-.14-.29.01-.4.09-.37.05.03-.04.04-.11.07-.28.03-.17.08-.22.03-.22s-.14.02-.07-.27c.07-.3.1-.35.06-.52-.03-.17.01-.4-.03-.51-.04-.1.08-.2.03-.26-.05-.05-.11-.12-.07-.12s.2,0,.4.04c.2.04.42-.03.54-.02.12.01.38.07.63.11.26.04.25-.04.22-.41-.03-.37.02-.55-.06-.62-.08-.08-.16-.07-.24-.17-.08-.1-.02-.25-.2-.3-.18-.05-.38-.01-.28-.05.1-.04.13-.05.03-.13-.1-.08-.13-.16-.05-.17.08-.01.29-.01.29-.01,0,0,.02.11.13.06.11-.05.26-.09.23-.17-.03-.08-.09-.17-.07-.17s.06.11.31.11.22-.04.2-.14c-.02-.1.16-.1.28-.18.12-.08-.04-.18-.02-.26.03-.08.17-.13.42-.14.25-.02.2-.06.18-.09-.03-.03,0-.16.03-.32.02-.16-.02-.21.11-.29.13-.08.09-.05.35-.07.26-.02.1-.08.15-.09.05-.01.36-.09.42-.11.06-.02.05-.02,0-.13-.05-.11-.12-.18-.18-.7-.06-.52-.04-.52.27-.62.32-.1.25-.07.22.23-.03.29-.17.29-.2.51-.03.21,0,.34.13.57.13.23.12.11.41.11s.22.07.42.14c.19.07.13-.12.31-.18.19-.07.15.04.58-.02.17-.02.22-.03.24-.03-.01,0-.06,0-.01-.03.1-.06.13-.17.27-.18.15-.02.25.04.24-.18,0-.23-.09-.19-.06-.36.03-.17.03-.09.04-.23.01-.14-.02-.16.17-.21.19-.05.06.17.28.21.22.05.19.08.23-.09.04-.17.16-.4.05-.39-.11.01-.13,0-.24-.17-.11-.16-.17-.2-.1-.2s.31-.07.64-.05c.34.01.43.04.45,0,.02-.04-.06-.07.06-.14.12-.07.49.04.43-.03-.06-.07-.39-.15-.61-.12-.22.04-.77.1-.85.09-.08,0-.24-.07-.27-.11-.04-.04-.16-.07-.16-.27s.07-.27-.04-.46c-.12-.19.21-.35.43-.55.22-.2.17-.37.3-.38.13-.01.19-.08.12-.15-.06-.07-.3-.29-.42-.32-.11-.02-.29-.15-.47.15-.18.31.01.34.04.5.03.16-.25.28-.46.43-.21.15-.29.11-.35.49-.06.38-.13.39.11.52.24.13.28.2.17.31-.11.11-.34.11-.48.38-.14.27-.08.4-.14.52-.06.12-.24.17-.29.29-.05.12-.05.34-.27.31-.22-.04-.1-.33-.19-.48-.1-.15-.17-.27-.29-.46-.11-.18-.03-.36-.13-.46-.11-.09-.13-.29-.13-.29l-.04.09c-.04.09-.02.14-.24.41-.22.27-.54.29-.7.22-.16-.07-.13-.22-.13-.42s-.04-.46,0-.77c.03-.31.12-.29.46-.49.34-.2.34-.19.43-.32.08-.13.33-.32.47-.43.14-.12.38-.57.51-.89.13-.32.36-.52.59-.86.23-.34.64-.65,1.16-.87.52-.22.43-.24.56-.42.12-.17.17-.07.38-.11.2-.04.17,0-.03.2-.2.2-.29.42-.12.26.17-.16.31-.35.57-.34.27.01.16,0,.42.12.26.12.31.13.16.23-.15.1-.4.07-.4.07,0,0,.08.2.33.23.24.03.38-.19.54-.11.16.08.2.14-.01.13-.22-.02-.28.12-.01.21.27.1.29.11.65.15.35.05.5.3.77.42.27.11.58.02.49.26-.09.24.07.48-.4.59-.47.11-.45-.04-.84-.16-.39-.12-.66-.24-.66-.24,0,0,.1.14.28.3.18.17.2.32.18.62-.02.3-.1.39.2.54.31.15.26.11.36.08.1-.02.26-.05.22-.1-.04-.05-.07-.14-.17-.18-.1-.05-.11-.16,0-.21.1-.05.2.05.42.04.22-.01,0-.08.11-.2.11-.11.12-.3.38-.41.26-.1.54.05.61-.07.07-.11.15-.24,0-.42-.15-.17-.26-.23-.17-.32.09-.08.27-.3.35-.18.08.13.29.26.03.24-.27-.02-.08.4.16.38.24-.02.22-.1.42-.2.2-.1.59-.41.86-.51.27-.1.33-.07.44-.02.11.05.11.14.41.08.3-.06.39-.13.67-.18.28-.05-.02.1.11.14.13.04.14.08.24.01.1-.07.4-.17.26-.28-.14-.11-.24-.18-.24-.18,0,0,.1-.23.37-.21.27.02.68.27.94.45.26.18.58.56.58.56,0,0,.11-.2.02-.52-.1-.33-.34-.25-.34-.56s-.22-.23-.15-.45c.08-.22.29-.3.35-.58.06-.28.11-.51.31-.51s.63.06.63.06c0,0,0,.26-.16.64-.16.38.08.42.04.89-.04.46-.04.52.06.63.11.11.31.24.24.44-.08.2-.12.33-.4.44-.29.11-.65.05-.52.14.13.09.31.17.5.2.19.03.1-.01.25-.14.15-.13.5-.38.49-.49-.01-.12-.2-.3-.07-.39.13-.09.18-.23.38-.11.2.11.39.54.39.52s-.04-.42-.27-.65c-.24-.24-.63-.01-.63-.22s.11-.49.08-.72c-.03-.23-.11-.45.03-.65.15-.2.15-.35.15-.35,0,0,.06.18.01.42-.05.23.03.37.13.37s.59,0,.33-.07c-.26-.08-.34-.15-.08-.29.26-.14.25-.05.63.04.38.09.47.15.6.15.13,0,.11-.02.06-.13-.04-.11-.1-.19-.22-.27-.12-.08-.2.02-.24-.1-.04-.12-.11-.42-.14-.53-.03-.11.1-.02.3-.02s.76-.03,1.19-.04c.43-.01,0-.46-.03-.77-.03-.32.79-.33,1.19-.39.4-.06.87-.04,1.62-.22.75-.18.27-.15.38-.36.11-.21.29-.25.52-.25s.43.04.35.07c-.08.03-.33.15.06.24.39.08.29.08.08.15-.2.07-.03.2.36.2s.16-.04.1-.17c-.06-.13.06-.08.38-.03.33.05.45.11.63.27.18.17.21.13.27.36.06.23,0,.2-.28.41-.27.21-.44.21-.84.46-.4.25-.3.38-.52.55-.22.17-.16.12.3,0,.46-.12.71-.2.95-.17.24.02.35.11.53.11s-.01.03.55.03.48,0,.27.16c-.2.16.04.21.29.21s.56.01.79-.02c.23-.04.03-.21.31-.22.27-.01.36-.04.66-.04s.2.12.31.23c.1.11.24.18.15.39-.1.21-.15.22-.09.51.06.29.2.33.38.39.18.05.18-.26.35-.37.17-.11.21.21.41.17.2-.05.42-.02.59.03.17.05.32.08.56.03.24-.05.17-.15.08-.3-.08-.15-.09-.14.06-.29.15-.15.26-.08.75.05.5.13.34.13.62.21.28.08.19.06.62.26.43.2.35.43.54.55.2.13.21,0,.61-.04.4-.04.39.05.82.16.43.11.32.26.32.38s-.12.22.15.28c.27.06.38.11.61.05.23-.06.03.06.54.07.51,0,.34-.06.49.05.15.11.19.32.44.3.25-.02.23-.02.13-.24-.1-.22-.17-.26-.02-.25.15,0,.45.07,1,.16.56.09.57.19,1.03.48.45.29.58.31.91.57.13.1.15.13.15.13,0,0,.04.01.17.07.36.17.29.11.6.26.31.15.57.36.57.36,0,0,.02.03-.21.05ZM60.48,126.27s-.03.05.14-.1c.18-.14-.08,0-.19-.04-.1-.03-.13-.08-.1-.21.03-.13-.01-.13-.12-.3,0,0-.06-.04-.18.04-.12.07-.19-.07-.34-.02-.15.05-.31.03-.4.25-.09.22-.19.08-.22.26-.03.18-.31.27-.31.27,0,0,.11.11.19.21.08.1.03.04.11.37.08.33.14.3.26.35.12.05.29.16.29.16,0,0-.11-.07-.11.11s-.17.3-.15.57c.02.26-.24.51-.03.53.2.02.14.11.36.17.22.06.35.1.68.1s.15-.13.1-.31c-.04-.18-.07-.3-.08-.51-.01-.2-.09-.15-.14-.27-.05-.13.03-.2.18-.2s.17,0,.09-.14c-.08-.14-.03-.19-.13-.25-.1-.06-.15.2-.15.2,0,0-.06-.06-.04-.31.03-.25.04-.13-.03-.18-.08-.05-.12.01-.22-.15-.1-.17-.01-.13-.13-.33-.12-.2-.06-.1.08-.1s.06-.03,0-.09c-.06-.07-.11-.17.06-.15.17.01.4.05.48.05.08,0,.05.03.05.03ZM36.65,117.1c-.06.1.1.23.22.19.12-.04.15,0,.22-.05.07-.05.07-.13,0-.2-.08-.08-.05-.12-.06-.13-.15-.09-.31.09-.37.19ZM68.23,110.54c-.17,0-.36.01-.2.07.16.05.1.32.4.17.31-.15.24-.16.45-.25.21-.09.09-.05-.17-.11-.16-.04-.31.12-.49.13Z"/>
      </g>
      <ellipse class="cls-1" cx="57.32" cy="130.16" rx="23.7" ry="23.71"/>
    </g>
    <path class="cls-2" d="M80.97,126.23h0v-.04s0,.03,0,.04Z"/>
    <path class="cls-4" d="M87.76,143.36c-.57.93-.79,1.02-1.37,1.87-.39.57-.48.79-1.23,2.26-.53,1.02-.09.18-1.9,3.64-.79,1.51-1.1,2.17-1.37,2.66-.35.66-.66,1.33-1.28,2.62-.57,1.15-.75,1.6-.97,2.26-.18.67-.27,1.2-.31,1.69-.18,1.16-.13,2.09-.13,2.62.05.89.09,1.55.35,2.35.26.76.53,1.15.84,1.69.71,1.28.66,1.78,1.41,4.26.97,3.11,1.32,3.11,1.19,3.64-.93,3.15-13.8,2.79-14.55,0-.09-.4.09-.66.09-2.75,0-.57,0-1.33-.05-2.26-.09-1.38-.22-1.33-.4-3.28-.09-.76-.26-1.56-.22-2.31,0-.36.05-.71-.13-1.16-.09-.27-.22-.4-.31-.71-.09-.35,0-.62,0-.8.09-.62-.09-1.2-.4-2.22-.26-.8-.4-.93-.53-1.6-.04-.4-.04-.67-.04-.94,0-2.53-.05-3.81-.13-4.26-.02-.06-.04-.15-.06-.26,0-.02,0-.03,0-.03-.03-.22,1.6-.94,1.6-.94,0,0,.63-.23,1.35-.68.7-.44,1.27-.83,1.67-1.12,2.04-1.47,3.3-2.77,3.64-3.14.07-.07.26-.28.51-.56.61-.68,1.41-1.59,2.13-2.79.38-.62.31-.62.78-1.39.27-.45.47-.74.69-1.24.12-.28.14-.35.32-.87.02-.06.04-.12.06-.17.26-.6.5-1.22.73-1.86,0,0,0,0,0,0,.11-.31.23-.64.35-1.06.01-.05.03-.1.04-.15.05-.16.1-.32.14-.48v-.4c0-.44-.05-.84-.22-1.2-.13-.31-.53-.8-.66-1.64-.09-.62,0-.93-.22-1.51-.17-.53-.4-.62-.7-1.07-.09-.09-.14-.18-.18-.27-.18-.27-.27-.57-.35-.84-.04-.05-.04-.09-.04-.13,0-.04-.04-.13-.04-.18-.05-.04-.05-.09-.05-.13-.04-.05-.04-.13-.04-.18-.05-.09-.05-.18-.05-.27v-.35c0-.44,0-.82.07-1.16.07-.27.18-.5.37-.71.35-.36.97-.71,1.54-.58.88.22,1.15,1.51,1.23,1.46,0,0,.05-.04.05-.09v-.04s.04-.05.04-.09v-.18c0-.07,0-.17-.02-.27,0-.01,0-.03,0-.04h.03c.13-.04-.35-1.73-.75-3.15-1.19-4.26-.88-3.59-1.1-4.13-.22-.57-.44-.98-.4-1.64.03-.18.06-.32.09-.44.01-.04.02-.07.03-.11,0-.02.01-.04.02-.06.07-.26.12-.53.09-.89-.05-.53-.31-.62-.35-1.07-.09-.8.18-2.09,1.24-2.53.97-.4,1.98.18,2.47.8.44.62.09.89.35,2.35.22,1.24.71,2.26,1.5,3.91.26.53.22.44.35.71.79,1.73.44,2.3.97,3.99.44,1.46.88,1.6.97,2.75.04.44,0,.75.17,1.2.27.75.71.93.75,1.51.04.35-.13.53-.27.98-.31.88-.27,1.68-.18,2.79.13,1.42.4,1.2.49,2.44.04,1.24-.22,1.55.13,2.26.22.49.53.66.62,1.28.05.35,0,.49.05,1.07.09.58.17.76.22,1.06.22.62-.13,1.24-.75,2.22Z"/>
    <path class="cls-4" d="M26.92,143.32c.57.93.79,1.02,1.37,1.87.39.57.48.79,1.23,2.26.53,1.02.09.18,1.9,3.64.79,1.51,1.1,2.17,1.37,2.66.35.66.66,1.33,1.28,2.62.57,1.15.75,1.6.97,2.26.18.67.27,1.2.31,1.69.18,1.16.13,2.09.13,2.62-.05.89-.09,1.55-.35,2.35-.26.76-.53,1.15-.84,1.69-.71,1.28-.66,1.78-1.41,4.26-.97,3.11-1.32,3.11-1.19,3.64.93,3.15,13.8,2.79,14.55,0,.09-.4-.09-.66-.09-2.75,0-.57,0-1.33.05-2.26.09-1.38.22-1.33.4-3.28.09-.76.26-1.56.22-2.31,0-.36-.05-.71.13-1.16.09-.27.22-.4.31-.71.09-.35,0-.62,0-.8-.09-.62.09-1.2.4-2.22.26-.8.4-.93.53-1.6.04-.4.04-.67.04-.94,0-2.53.05-3.81.13-4.26.02-.06.04-.15.06-.26,0-.02,0-.03,0-.03.03-.22-1.6-.94-1.6-.94,0,0-.63-.23-1.35-.68-.7-.44-1.27-.83-1.67-1.12-2.04-1.47-3.3-2.77-3.64-3.14-.07-.07-.26-.28-.51-.56-.61-.68-1.41-1.59-2.13-2.79-.38-.62-.31-.62-.78-1.39-.27-.45-.47-.74-.69-1.24-.12-.28-.14-.35-.32-.87-.02-.06-.04-.12-.06-.17-.26-.6-.5-1.22-.73-1.86,0,0,0,0,0,0-.11-.31-.23-.64-.35-1.06-.01-.05-.03-.1-.04-.15-.05-.16-.1-.32-.14-.48v-.4c0-.44.05-.84.22-1.2.13-.31.53-.8.66-1.64.09-.62,0-.93.22-1.51.17-.53.4-.62.7-1.07.09-.09.14-.18.18-.27.18-.27.27-.57.35-.84.04-.05.04-.09.04-.13,0-.04.04-.13.04-.18.05-.04.05-.09.05-.13.04-.05.04-.13.04-.18.05-.09.05-.18.05-.27v-.35c0-.44,0-.82-.07-1.16-.07-.27-.18-.5-.37-.71-.35-.36-.97-.71-1.54-.58-.88.22-1.15,1.51-1.23,1.46,0,0-.05-.04-.05-.09v-.04s-.04-.05-.04-.09v-.18c0-.07,0-.17.02-.27,0-.01,0-.03,0-.04h-.03c-.13-.04.35-1.73.75-3.15,1.19-4.26.88-3.59,1.1-4.13.22-.57.44-.98.4-1.64-.03-.18-.06-.32-.09-.44-.01-.04-.02-.07-.03-.11,0-.02-.01-.04-.02-.06-.07-.26-.12-.53-.09-.89.05-.53.31-.62.35-1.07.09-.8-.18-2.09-1.24-2.53-.97-.4-1.98.18-2.47.8-.44.62-.09.89-.35,2.35-.22,1.24-.71,2.26-1.5,3.91-.26.53-.22.44-.35.71-.79,1.73-.44,2.3-.97,3.99-.44,1.46-.88,1.6-.97,2.75-.04.44,0,.75-.17,1.2-.27.75-.71.93-.75,1.51-.04.35.13.53.27.98.31.88.27,1.68.18,2.79-.13,1.42-.4,1.2-.49,2.44-.04,1.24.22,1.55-.13,2.26-.22.49-.53.66-.62,1.28-.05.35,0,.49-.05,1.07-.09.58-.17.76-.22,1.06-.22.62.13,1.24.75,2.22Z"/>
    <path class="cls-2" d="M79.77,137.6c-.23.65-.47,1.27-.73,1.86.3-.82.52-1.31.73-1.86Z"/>
    <path class="cls-2" d="M80.3,135.51v.4c-.04.16-.09.32-.14.48l.09-.35v-.4c0-.08.01-.16.01-.23,0-.35-.09-.67-.23-.96-.17-.35-.53-.8-.66-1.64-.13-.62,0-.93-.22-1.51-.18-.49-.4-.62-.71-1.06-.04-.09-.13-.18-.18-.27-.17-.27-.26-.58-.35-.84,0-.04,0-.09-.04-.13,0-.05-.05-.13-.05-.18,0-.05,0-.09-.04-.13,0-.09,0-.13-.05-.18,0-.09-.04-.18-.04-.27v-.36c0-.49.02-.92.12-1.29-.07.34-.07.72-.07,1.16v.35c0,.09,0,.18.05.27,0,.04,0,.13.04.18,0,.04,0,.09.05.13,0,.05.04.13.04.18,0,.05,0,.09.04.13.09.27.18.57.35.84.04.09.09.18.18.27.3.44.53.53.7,1.07.22.57.13.89.22,1.51.13.84.53,1.33.66,1.64.17.35.22.75.22,1.2Z"/>
    <path class="cls-2" d="M81.05,126.37v.18s0,.09-.04.09v-.09c0-.08-.04-.16-.04-.31h.04s.02-.03.02-.08c0-.01,0-.03,0-.06.02.1.02.2.02.27Z"/>
    <path class="cls-2" d="M81.05,126.06h-.03c-.06-.48-.44-1.84-.77-2.97-1.19-4.3-.88-3.59-1.1-4.13-.22-.58-.44-1.02-.4-1.64,0-.22.04-.44.13-.62-.03.12-.06.27-.09.44-.04.66.18,1.07.4,1.64.22.53-.09-.13,1.1,4.13.4,1.42.88,3.11.75,3.15Z"/>
    <path class="cls-3" d="M35.5,117.18v.44c0-.22-.09-.35-.13-.53.04-.04.04-.09.09-.13,0,.04.04.13.04.22Z"/>
  </g>
  <g>
    <path class="cls-4" d="M95.01,128.24c0-8.19,6.46-14.14,15.29-14.14s15.29,5.95,15.29,14.14-6.46,14.14-15.29,14.14-15.29-5.95-15.29-14.14ZM116.38,128.24c0-4.21-2.71-6.76-6.08-6.76s-6.08,2.55-6.08,6.76,2.71,6.76,6.08,6.76,6.08-2.55,6.08-6.76Z"/>
    <path class="cls-4" d="M155.63,114.72v27.04h-7.51l-10.3-12.28v12.28h-8.9v-27.04h7.51l10.3,12.28v-12.28h8.9Z"/>
    <path class="cls-4" d="M177.97,127.5h7.94v11.43c-3.29,2.24-7.82,3.44-11.81,3.44-8.75,0-15.14-5.83-15.14-14.14s6.39-14.14,15.33-14.14c5.34,0,9.64,1.85,12.39,5.21l-5.84,5.14c-1.7-1.97-3.68-2.98-6.08-2.98-4.03,0-6.58,2.59-6.58,6.76s2.55,6.76,6.46,6.76c1.12,0,2.21-.19,3.33-.66v-6.84Z"/>
    <path class="cls-4" d="M120.14,169.55c0,4.43-3.75,7.02-10.78,7.02h-14.35v-25.44h13.62c7.03,0,10.31,2.8,10.31,6.65,0,2.36-1.2,4.33-3.53,5.49,2.99,1.09,4.74,3.27,4.74,6.29ZM103.46,157.11v3.78h4.01c1.93,0,2.8-.65,2.8-1.89s-.87-1.89-2.8-1.89h-4.01ZM111.47,168.56c0-1.31-.95-2-2.84-2h-5.17v4h5.17c1.89,0,2.84-.69,2.84-2Z"/>
    <path class="cls-4" d="M122.95,165.11v-13.99h8.6v13.74c0,3.89,1.49,5.34,3.9,5.34s3.9-1.45,3.9-5.34v-13.74h8.45v13.99c0,7.63-4.59,12.03-12.42,12.03s-12.42-4.4-12.42-12.03Z"/>
    <path class="cls-4" d="M150.12,174.52l2.77-6.25c2.4,1.42,5.61,2.33,8.41,2.33,2.44,0,3.31-.51,3.31-1.38,0-3.2-14.1-.62-14.1-10.1,0-4.73,3.97-8.58,11.88-8.58,3.42,0,6.96.73,9.62,2.22l-2.59,6.22c-2.51-1.27-4.88-1.89-7.1-1.89-2.51,0-3.31.73-3.31,1.6,0,3.05,14.1.51,14.1,9.89,0,4.65-3.97,8.58-11.87,8.58-4.26,0-8.56-1.05-11.11-2.62Z"/>
    <path class="cls-4" d="M174.64,163.84c0-7.71,6.08-13.3,14.39-13.3s14.39,5.6,14.39,13.3-6.08,13.3-14.39,13.3-14.39-5.6-14.39-13.3ZM194.75,163.84c0-3.96-2.55-6.36-5.72-6.36s-5.72,2.4-5.72,6.36,2.55,6.36,5.72,6.36,5.72-2.4,5.72-6.36Z"/>
    <path class="cls-4" d="M206.55,151.12h8.6v18.79h11.51v6.65h-20.11v-25.44Z"/>
    <path class="cls-4" d="M246.76,172.13h-9.69l-1.71,4.43h-8.74l11.15-25.44h8.45l11.15,25.44h-8.89l-1.71-4.43ZM244.4,165.95l-2.48-6.4-2.48,6.4h4.95Z"/>
  </g>
</svg>