<?xml version="1.0" encoding="UTF-8"?>
<svg id="Calque_1" data-name="Calque 1" xmlns="http://www.w3.org/2000/svg" xmlns:xlink="http://www.w3.org/1999/xlink" viewBox="0 0 283.46 283.46">
  <defs>
    <style>
      .cls-1 {
        fill: url(#Dégradé_sans_nom_40);
      }

      .cls-1, .cls-2, .cls-3, .cls-4 {
        stroke-width: 0px;
      }

      .cls-2 {
        fill: #e50c7e;
        isolation: isolate;
        opacity: .19;
      }

      .cls-3, .cls-5 {
        fill: #2864ae;
      }

      .cls-4 {
        fill: #3caf73;
      }

      .cls-6 {
        clip-path: url(#clippath);
      }

      .cls-7 {
        fill: url(#Dégradé_sans_nom_40-2);
      }
    </style>
    <linearGradient id="Dégradé_sans_nom_40" data-name="Dégradé sans nom 40" x1="70.33" y1="144.91" x2="90.24" y2="146.1" gradientUnits="userSpaceOnUse">
      <stop offset="0" stop-color="#ffef26"/>
      <stop offset=".02" stop-color="#fee921"/>
      <stop offset=".1" stop-color="#fdd70e"/>
      <stop offset=".19" stop-color="#fdcb03"/>
      <stop offset=".28" stop-color="#fdc800"/>
      <stop offset=".67" stop-color="#f5a026"/>
      <stop offset=".89" stop-color="#f5a026"/>
      <stop offset="1" stop-color="#f5a026"/>
    </linearGradient>
    <clipPath id="clippath">
      <path class="cls-3" d="M80.13,128.08s0,.09-.04.09c-.13.04-.38-1.19-1.19-1.4-.55-.13-1.15.17-1.49.55-.47.51-.47,1.11-.47,1.91v.34c0,.09,0,.17.04.26,0,.04,0,.13.04.17,0,.04,0,.09.04.13,0,.04.04.13.04.17s0,.09.04.13c.09.26.17.55.34.81.04.09.09.17.17.26.3.43.51.51.68,1.02.21.55.13.85.21,1.45.13.81.51,1.28.64,1.57.17.34.21.72.21,1.15h0v.38c-.34,1.23-.77,2.38-1.24,3.45-.13.26-.26.47-.38.72-.98,1.83-2.17,3.45-3.5,4.89-.47.51-1.88,2.04-4.05,3.7-.64.47-1.15.85-1.54,1.15-.94.51-1.92.98-2.86,1.36-.3.13-.55.21-.85.3-.77.26-1.58.47-2.43.64-.6.13-9.21,1.7-17.14-2.77-.38-.3-.9-.68-1.54-1.15-2.17-1.66-3.58-3.19-4.05-3.7-1.32-1.49-2.52-3.06-3.5-4.89-.13-.26-.26-.47-.38-.72-.38-.89-.77-1.87-1.11-2.94-.04-.13-.09-.3-.13-.47h0v-.04c0-.38.04-.77.21-1.11.17-.34.51-.77.68-1.57.09-.6,0-.89.21-1.45.17-.47.38-.6.68-1.02.09-.09.13-.17.17-.3.04-.09.09-.13.09-.21.21-.43.3-.89.34-1.28v-.51c0-.81-.04-1.45-.47-1.91-.34-.34-.94-.68-1.49-.55-.85.21-1.11,1.45-1.19,1.4-.04,0,0-.21.04-.51l-.04.04s-.04-.04-.04-.09v-.13c.09-.51.43-1.74.72-2.81.68-2.43.85-3.19.94-3.53.17-.34.34-.68.51-1.02.04-.17.04-.34.04-.51v-.51c0-.09,0-.17-.04-.21.43-.64.85-1.19,1.19-1.66,1.15-1.53,3.28-4.38,7.08-6.64,2.26-1.36,4.52-2.13,6.57-2.6h.04c1.32-.43,2.77-.72,4.35-.89,2.26-.26,8.36-.6,14.41,3.02,3.8,2.26,5.93,5.06,7.08,6.64.38.51.81,1.11,1.28,1.79-.04.17-.09.34-.13.6-.04.64.17,1.02.38,1.57.21.51-.09-.13,1.07,3.96.38,1.36.85,2.98.72,3.02h-.04v-.04c.04.13.04.26.04.34,0,.09,0,.13,0,.17Z"/>
    </clipPath>
    <linearGradient id="Dégradé_sans_nom_40-2" data-name="Dégradé sans nom 40" x1="47.2" y1="144.07" x2="27.08" y2="146.49" xlink:href="#Dégradé_sans_nom_40"/>
  </defs>
  <g>
    <path class="cls-3" d="M94.53,127.69c0-8.19,6.46-14.14,15.29-14.14s15.29,5.95,15.29,14.14-6.46,14.14-15.29,14.14-15.29-5.95-15.29-14.14ZM115.89,127.69c0-4.21-2.71-6.76-6.08-6.76s-6.08,2.55-6.08,6.76,2.71,6.76,6.08,6.76,6.08-2.55,6.08-6.76Z"/>
    <path class="cls-3" d="M155.15,114.17v27.04h-7.51l-10.3-12.28v12.28h-8.9v-27.04h7.51l10.3,12.28v-12.28h8.9Z"/>
    <path class="cls-3" d="M177.49,126.96h7.94v11.43c-3.29,2.24-7.82,3.44-11.81,3.44-8.75,0-15.14-5.83-15.14-14.14s6.39-14.14,15.33-14.14c5.34,0,9.64,1.85,12.39,5.21l-5.84,5.14c-1.7-1.97-3.68-2.98-6.08-2.98-4.03,0-6.58,2.59-6.58,6.76s2.55,6.76,6.46,6.76c1.12,0,2.21-.19,3.33-.66v-6.84Z"/>
  </g>
  <g>
    <path class="cls-3" d="M119.66,169c0,4.43-3.75,7.02-10.78,7.02h-14.35v-25.44h13.62c7.03,0,10.31,2.8,10.31,6.65,0,2.36-1.2,4.33-3.53,5.49,2.99,1.09,4.74,3.27,4.74,6.29ZM102.98,156.57v3.78h4.01c1.93,0,2.8-.65,2.8-1.89s-.87-1.89-2.8-1.89h-4.01ZM110.99,168.02c0-1.31-.95-2-2.84-2h-5.17v4h5.17c1.89,0,2.84-.69,2.84-2Z"/>
    <path class="cls-3" d="M122.47,164.57v-13.99h8.6v13.74c0,3.89,1.49,5.34,3.9,5.34s3.9-1.45,3.9-5.34v-13.74h8.45v13.99c0,7.63-4.59,12.03-12.42,12.03s-12.42-4.4-12.42-12.03Z"/>
    <path class="cls-3" d="M149.64,173.98l2.77-6.25c2.4,1.42,5.61,2.33,8.41,2.33,2.44,0,3.31-.51,3.31-1.38,0-3.2-14.1-.62-14.1-10.1,0-4.73,3.97-8.58,11.88-8.58,3.42,0,6.96.73,9.62,2.22l-2.59,6.22c-2.51-1.27-4.88-1.89-7.1-1.89-2.51,0-3.31.73-3.31,1.6,0,3.05,14.1.51,14.1,9.89,0,4.65-3.97,8.58-11.87,8.58-4.26,0-8.56-1.05-11.11-2.62Z"/>
    <path class="cls-3" d="M174.16,163.29c0-7.71,6.08-13.3,14.39-13.3s14.39,5.6,14.39,13.3-6.08,13.3-14.39,13.3-14.39-5.6-14.39-13.3ZM194.26,163.29c0-3.96-2.55-6.36-5.72-6.36s-5.72,2.4-5.72,6.36,2.55,6.36,5.72,6.36,5.72-2.4,5.72-6.36Z"/>
    <path class="cls-3" d="M206.07,150.57h8.6v18.79h11.51v6.65h-20.11v-25.44Z"/>
    <path class="cls-3" d="M246.28,171.58h-9.69l-1.71,4.43h-8.74l11.15-25.44h8.45l11.15,25.44h-8.89l-1.71-4.43ZM243.91,165.4l-2.48-6.4-2.48,6.4h4.95Z"/>
  </g>
  <g>
    <path class="cls-1" d="M86.61,144.2c-.55.89-.77.98-1.32,1.79-.38.55-.47.77-1.19,2.17-.51.98-.09.17-1.83,3.49-.77,1.45-1.07,2.08-1.32,2.55-.34.64-.64,1.28-1.24,2.51-.55,1.11-.72,1.53-.94,2.17-.17.64-.26,1.15-.3,1.62-.17,1.11-.13,2-.13,2.51.04.85.09,1.49.34,2.26.26.72.51,1.11.81,1.62.68,1.23.64,1.7,1.36,4.08.94,2.98,1.28,2.98,1.15,3.49-.9,3.02-13.35,2.68-14.07,0-.09-.38.09-.64.09-2.64,0-.55,0-1.28-.04-2.17-.09-1.32-.21-1.28-.38-3.15-.09-.72-.26-1.49-.21-2.21,0-.34.04-.68-.13-1.11-.09-.26-.21-.38-.3-.68-.09-.34,0-.6,0-.77.09-.6-.09-1.15-.38-2.13-.26-.77-.38-.89-.51-1.53-.04-.38-.04-.64-.04-.89,0-2.43-.04-3.66-.13-4.08-.04-.13-.09-.34-.09-.6v-.04c.94-.38,1.92-.81,2.86-1.36.38-.3.9-.68,1.54-1.15,2.17-1.66,3.58-3.19,4.05-3.7,1.32-1.49,2.52-3.06,3.5-4.89.13-.26.26-.47.38-.72.47-1.02.9-2.17,1.24-3.45v-.38h0c.04-.43-.04-.81-.21-1.15-.17-.34-.51-.77-.64-1.57-.13-.6,0-.89-.21-1.45-.17-.47-.38-.6-.68-1.02-.04-.09-.13-.17-.17-.26-.17-.26-.26-.55-.34-.81,0-.04,0-.09-.04-.13,0-.04-.04-.13-.04-.17s0-.09-.04-.13c0-.09,0-.13-.04-.17,0-.09-.04-.17-.04-.26v-.34c0-.81.04-1.45.47-1.91.34-.34.94-.68,1.49-.55.85.21,1.11,1.45,1.19,1.4,0,0,.04-.04.04-.09v-.13c0-.09-.04-.17-.04-.34v.04h.04c.13-.04-.34-1.7-.72-3.02-1.15-4.13-.85-3.45-1.07-3.96-.21-.55-.43-.98-.38-1.57,0-.21.04-.43.13-.6.09-.3.17-.6.13-1.02-.04-.51-.3-.6-.34-1.02-.09-.77.17-2,1.19-2.43.94-.38,1.92.17,2.39.77.43.6.09.85.34,2.26.21,1.19.68,2.17,1.45,3.74.26.51.21.43.34.68.77,1.66.43,2.21.94,3.83.43,1.4.85,1.53.94,2.64.04.43,0,.72.17,1.15.26.72.68.89.72,1.45.04.34-.13.51-.26.94-.3.85-.26,1.62-.17,2.68.13,1.36.38,1.15.47,2.34.04,1.19-.21,1.49.13,2.17.21.47.51.64.6,1.23.04.34,0,.47.04,1.02.09.55.17.72.21,1.02.21.6-.13,1.19-.72,2.13Z"/>
    <g>
      <path id="SVGID" class="cls-3" d="M80.13,128.08s0,.09-.04.09c-.13.04-.38-1.19-1.19-1.4-.55-.13-1.15.17-1.49.55-.47.51-.47,1.11-.47,1.91v.34c0,.09,0,.17.04.26,0,.04,0,.13.04.17,0,.04,0,.09.04.13,0,.04.04.13.04.17s0,.09.04.13c.09.26.17.55.34.81.04.09.09.17.17.26.3.43.51.51.68,1.02.21.55.13.85.21,1.45.13.81.51,1.28.64,1.57.17.34.21.72.21,1.15h0v.38c-.34,1.23-.77,2.38-1.24,3.45-.13.26-.26.47-.38.72-.98,1.83-2.17,3.45-3.5,4.89-.47.51-1.88,2.04-4.05,3.7-.64.47-1.15.85-1.54,1.15-.94.51-1.92.98-2.86,1.36-.3.13-.55.21-.85.3-.77.26-1.58.47-2.43.64-.6.13-9.21,1.7-17.14-2.77-.38-.3-.9-.68-1.54-1.15-2.17-1.66-3.58-3.19-4.05-3.7-1.32-1.49-2.52-3.06-3.5-4.89-.13-.26-.26-.47-.38-.72-.38-.89-.77-1.87-1.11-2.94-.04-.13-.09-.3-.13-.47h0v-.04c0-.38.04-.77.21-1.11.17-.34.51-.77.68-1.57.09-.6,0-.89.21-1.45.17-.47.38-.6.68-1.02.09-.09.13-.17.17-.3.04-.09.09-.13.09-.21.21-.43.3-.89.34-1.28v-.51c0-.81-.04-1.45-.47-1.91-.34-.34-.94-.68-1.49-.55-.85.21-1.11,1.45-1.19,1.4-.04,0,0-.21.04-.51l-.04.04s-.04-.04-.04-.09v-.13c.09-.51.43-1.74.72-2.81.68-2.43.85-3.19.94-3.53.17-.34.34-.68.51-1.02.04-.17.04-.34.04-.51v-.51c0-.09,0-.17-.04-.21.43-.64.85-1.19,1.19-1.66,1.15-1.53,3.28-4.38,7.08-6.64,2.26-1.36,4.52-2.13,6.57-2.6h.04c1.32-.43,2.77-.72,4.35-.89,2.26-.26,8.36-.6,14.41,3.02,3.8,2.26,5.93,5.06,7.08,6.64.38.51.81,1.11,1.28,1.79-.04.17-.09.34-.13.6-.04.64.17,1.02.38,1.57.21.51-.09-.13,1.07,3.96.38,1.36.85,2.98.72,3.02h-.04v-.04c.04.13.04.26.04.34,0,.09,0,.13,0,.17Z"/>
      <g>
        <path class="cls-5" d="M80.13,128.08s0,.09-.04.09c-.13.04-.38-1.19-1.19-1.4-.55-.13-1.15.17-1.49.55-.47.51-.47,1.11-.47,1.91v.34c0,.09,0,.17.04.26,0,.04,0,.13.04.17,0,.04,0,.09.04.13,0,.04.04.13.04.17s0,.09.04.13c.09.26.17.55.34.81.04.09.09.17.17.26.3.43.51.51.68,1.02.21.55.13.85.21,1.45.13.81.51,1.28.64,1.57.17.34.21.72.21,1.15h0v.38c-.34,1.23-.77,2.38-1.24,3.45-.13.26-.26.47-.38.72-.98,1.83-2.17,3.45-3.5,4.89-.47.51-1.88,2.04-4.05,3.7-.64.47-1.15.85-1.54,1.15-.94.51-1.92.98-2.86,1.36-.3.13-.55.21-.85.3-.77.26-1.58.47-2.43.64-.6.13-9.21,1.7-17.14-2.77-.38-.3-.9-.68-1.54-1.15-2.17-1.66-3.58-3.19-4.05-3.7-1.32-1.49-2.52-3.06-3.5-4.89-.13-.26-.26-.47-.38-.72-.38-.89-.77-1.87-1.11-2.94-.04-.13-.09-.3-.13-.47h0v-.04c0-.38.04-.77.21-1.11.17-.34.51-.77.68-1.57.09-.6,0-.89.21-1.45.17-.47.38-.6.68-1.02.09-.09.13-.17.17-.3.04-.09.09-.13.09-.21.21-.43.3-.89.34-1.28v-.51c0-.81-.04-1.45-.47-1.91-.34-.34-.94-.68-1.49-.55-.85.21-1.11,1.45-1.19,1.4-.04,0,0-.21.04-.51l-.04.04s-.04-.04-.04-.09v-.13c.09-.51.43-1.74.72-2.81.68-2.43.85-3.19.94-3.53.17-.34.34-.68.51-1.02.04-.17.04-.34.04-.51v-.51c0-.09,0-.17-.04-.21.43-.64.85-1.19,1.19-1.66,1.15-1.53,3.28-4.38,7.08-6.64,2.26-1.36,4.52-2.13,6.57-2.6h.04c1.32-.43,2.77-.72,4.35-.89,2.26-.26,8.36-.6,14.41,3.02,3.8,2.26,5.93,5.06,7.08,6.64.38.51.81,1.11,1.28,1.79-.04.17-.09.34-.13.6-.04.64.17,1.02.38,1.57.21.51-.09-.13,1.07,3.96.38,1.36.85,2.98.72,3.02h-.04v-.04c.04.13.04.26.04.34,0,.09,0,.13,0,.17Z"/>
        <g class="cls-6">
          <path class="cls-4" d="M17.4,107.14c.21,0,.26.09.43,0s.72-.43.94-.51c.17-.04.3,0,.04.17-.3.17-.85.47-.72.47.09-.04.38-.13.77-.34.38-.17.38-.09.47-.3.09-.21.17-.3.17-.3l.68.68s.09,0,.13-.09.09-.21.17-.17,0,.21.09.21c.04,0,.13,0,.3-.04s.09-.17.09-.17h.17c.21,0,.81.21.98.26s.72.13.9.17c.17.04.21-.09.43.04s.38.26.21.34-.55.13-.34.17c.21.04.51.13.81.09.3,0,.81-.13.98-.13s.26.09.43.34.26.34.34.38c.04,0-.04-.13-.04-.26.04-.13-.04-.38-.09-.47-.04-.09,0-.13-.09-.26s-.17-.09.04-.21c.21-.09.38-.26.64-.21s.34.38.55.38c.21.04.26.13.64.13.38.04.21,0,.64.04s.26-.04.38-.26c.09-.21.17-.26.3-.26.09,0,.47.04.47.09s-.17.3-.09.38c.09.13.38.3.38.3,0,0-.17-.17-.17-.21s-.04-.26.04-.26c.04-.04.3,0,.47-.3s-.13-.3-.13-.3c0,0-.09,0-.04-.13s.34-.21.34-.21c0,0,0,.04,0-.04-.04-.09-.21-.09-.43-.09s-.34-.04-.38-.21-.04-.51-.04-.77.21-.17.21-.3c.04-.13,0-.81-.04-.94s.09-.43.09-.64c.04-.21.21-.13.21-.13-.04-.09.04-.26.34-.34s.77,0,.77,0c0,0-.04,0-.17.17s-.04.47-.21.64c-.17.21-.68.13-.68.13,0,0,.13.34.09.43-.04.13-.09.34-.09.34,0,0,.43.13.43.38.04.26.21.3.3.55.04.26-.21.47-.17.47.04.04.09.04.21.04.17,0,.34.04.34.04,0,0-.09.13,0,.26s0,.21.04.34c0,.13.09.26.13.26.04-.04.21-.38.26-.55.04-.17.04-.26.13-.26s.3.21.34.3c.04.09.04.17-.09.38-.13.21-.13.3,0,.38s.13.04.34.17c.21.09.17.09.3.04s-.04-.38-.04-.38c0,0,.3-.04.26-.21-.09-.17-.13-.26,0-.34s.26-.17.26-.17c-.04-.09-.09-.13-.17-.38-.09-.3.09-.21.47-.17s.38.17.6.26.09.13.13.3c.09.17-.17.21-.17.21,0,0-.17.04-.13.17.04.13.13.3.21.47.13.21-.04.34-.21.51s-.38.21-.6.21-.3.09-.3.04-.13-.13-.21-.09c-.13.04-.38.13-.3.17s.34.04.21.21c-.09.3-.17.3-.34.3s-.38,0-.51-.04c-.13,0-.72-.04-.72-.04,0,0,.43.26.77.34s.68.04.68.04c0,0-.13.26-.3.51-.17.26-.3.17-.47.17-.13,0-.21.13-.47.17-.26.04-.77-.09-.68-.04s.13.09.26.13c.13,0,.21.04.34.17.13.09-.09.13-.26.17-.17.04-.21.04-.3.17-.09.09-.34.51-.47.64-.09.13-.17.34-.21.6-.04.26-.26.55-.17.6.09.04.47.09.6.17s.3.55.43.72.21.3.34.17c.13-.13.38-.09.6,0s.72.43.85.55.43.13.68.17.34.17.34.17c0,0,.3,0,.17.13-.13.13-.17,0-.04.21s.13.51.09.64c-.04.13.38.09.6.17.17.13.21.55.3.51.09-.04.26-.17.26-.26,0-.13,0-.26-.04-.47,0-.21-.09-.55-.17-.72-.09-.13.17-.21.13-.26s-.04-.17.17-.26c.17-.04.21,0,.3-.09s.13-.47.13-.6-.04-.43-.09-.51c-.04-.13-.21-.47-.3-.51-.09-.09-.17-.09.04-.34.17-.21.09-.17.04-.26-.04-.09-.09-.26-.09-.38-.04-.17.09-.34,0-.55s-.13-.17-.13-.21.43-.04.77,0c.3.04.43-.04.51-.04s.26.09.43.21.26.09.34.21.13.21.34.21c.17,0,.38.09.38.09,0,0-.13.09-.13.34.04.26-.04.43-.04.51s.04.09.13.13c.09,0,.3.21.55.3.26.09.3.04.38-.13.09-.21.09-.17.17-.17h.17s-.09-.13-.04-.26.17-.3.26-.43c.13-.09.17.09.3.3s.43.77.51.98.21.21.09.38-.17.26,0,.34.34.21.3.38c0,.13-.04.13,0,.17s.26-.09.43,0,.34.13.43.26c.13.13.09.13-.04.21-.17.04-.3.13-.38.17-.09.04-.21.13-.21.21s-.04.17.09.09c.13-.09.3-.17.47-.21.13-.04.04,0,.17,0s.26.04.43.13c.17.04.13.17.09.26-.04.09-.09.21,0,.34s-.04.21-.17.38c-.17.13-.26.17-.51.21s-.38.17-.55.34-.26.13-.51.13-.17-.13-.26-.09c-.09.04-.17.13-.34.13s-.72.04-.94.09-.13.21-.21.34c-.04.13-.13.09-.3.13-.17.04-.34.3-.55.6-.17.34-.43.51-.43.51.04,0,.3-.17.47-.34.13-.17.68-.55.85-.64.17-.13.51-.3.6-.26.09.04.3.17.3.26s-.04.17-.21.3c-.17.13-.34,0-.34.04s.13.17.26.21c.13.04.13.17.13.26s-.09.17.21.38c.26.21.47.26.64.21.21,0,.09.09.17.04.09,0,.09-.17.13-.3.04-.13.09-.26.13-.3.09-.04.13-.17.13.04.04.17-.09.47-.17.51-.09.04-.09.13-.09.17s-.13.04-.38.21c-.3.17-.38.17-.43.17s-.17.04-.3.13c-.13.13-.3.3-.38.3s-.17-.04-.04-.17.17-.34.3-.38c.13-.09.21-.04.3-.04.13,0,.04-.09.13-.13.09-.09-.09-.04-.21-.09-.17-.04-.04-.17-.04-.17l-.17.09s-.26.13-.3.13-.04.04-.09.09c0,.04-.26.04-.26.04,0,0-.13.26-.3.26-.17.04-.04,0-.17.09-.13.04-.09-.04-.13-.04l-.17.17c-.13.09-.21.13-.3.51-.09.38,0,.51,0,.6,0,.04-.17-.04-.21,0s-.17.17-.3.21-.43.13-.51.17c-.09.09-.09.17-.09.3-.04.13-.21.47-.21.47,0,0,.04-.13-.09-.26-.13-.09-.09-.17-.09-.17,0,0-.04.13,0,.3.04.13.13.3.09.43-.04.17-.13.34-.21.38s.04-.09.04-.21-.04-.13-.09-.21c-.04-.04-.04-.21.04-.43s-.09-.09-.13.04c-.09.13-.13.38,0,.6.13.17-.09.17,0,.38.09.26-.09.38-.09.38.04.04.13,0,.17.09.04.13-.09.09-.13.09-.04.04-.04.09,0,.13.04.09.09.04.04.04s-.09.09-.21.13c-.13.04-.13-.04-.21.04s-.13.17-.21.26-.13.04-.21.13-.13.13-.21.21-.34.21-.43.38c-.13.17-.09.21-.13.47-.04.26.13.72.3,1.15.13.43.17.3.17.47,0,.13-.09.3-.17.38s-.13-.09-.3-.17c-.13-.09-.04-.17-.17-.34-.13-.21-.13-.26-.13-.43,0-.13-.04-.34-.09-.51-.09-.17-.21-.34-.43-.3-.21.09-.17.04-.3,0-.13-.04-.43-.17-.6-.09-.17.09-.64-.04-.77,0-.09.04-.17.04-.17.09,0,.09-.04.09.13.13s.17.09.13.17c0,.09-.13-.04-.21-.09s-.13.04-.26.04-.13-.13-.26-.13-.17,0-.26-.04c-.13-.04-.26-.13-.38-.09-.13,0-.6.34-.85.51-.21.17-.38.34-.47.47-.04.13-.04.17.13.34.17.21.09.17.04.3s-.13.26-.26.55c-.13.3-.04.43.09.72.17.3.3.51.43.6.13.13.21.26.34.3s.13.04.17.13c.04.04.04.09.21.04s.3-.13.43-.13.21,0,.3.09q.09.04.09,0s.04-.17.09-.17c0-.04.17-.26.21-.38s.04-.38.17-.38c.17,0,.51-.09.81-.09s.17.17.09.34c-.09.17-.13.17-.13.3s.04.13-.04.21-.04-.04-.09.04-.17.17-.17.17c0,0,.04.13.04.17v.26c0,.17-.3.34-.3.34,0,0,.13.09.3.09s.38,0,.55.09.51-.09.77.04c.26.13.17.21.17.3,0,.13.04.51.04.6s-.13.34-.21.55c-.04.17.17.3.38.47s.43.21.55.26.34-.17.72-.17c.38.04.51.34.51.34,0,0,.04-.21.21-.51s.17-.38.43-.47.34-.13.72-.21c.38-.13.34-.04.51,0,.21,0,.68.04,1.15.21.47.13,1.19.17,1.49.3.3.13.38.43.68.72.3.26.64.51.81.64s1.02.26,1.19.3c.17.09.47.38.47.55s.21.26.47.38.34.21.51.55c.17.34.13.43.34.51s1.83.51,2.26.68c.38.17.9.6,1.07.64.13.04.38-.04.47,0s-.04.38.09.6c.13.21.13.26.04.43-.09.17-.38.55-.51.77-.13.21-.38.34-.55.43s-.3,0-.17.17c.13.17,0,.3-.13.47s0,.13-.04.6c-.04.47,0,1.02-.04,1.23s-.38-.17-.72.26c-.34.47-.47.81-.68.85s-.72.3-.9.47-.21.21-.3.47c-.13.21-.21.72-.34,1.02s-.3.47-.72.85-.64.81-.9,1.11c-.3.3-.21.26-.26.3-.13.13-.77-.26-.6-.04.13.17-.09,0,.04.17.09.17.17.21-.04.47s-.47.21-.64.26-.43-.17-.43-.09c0,.13-.13.38-.26.43-.13.09-.51.17-.47.21.17.81.51.85.13.85-1.02-.09-.3-.34-.98,1.15-.13.21-.21.13-.21.38s0,.47.13.64.04.17-.21.38-.26.21-.47.55-.43.34-.34.6c.09.26.09.64.21,1.02s.43.3.85.6c.43.26.51.13.72.17.21.09-.17.09-.55.17s-.64.13-.9.09-.9-.43-1.11-.6-.55-.43-.68-.72c-.13-.26-.21-.55-.38-.94s-.04-.6.04-1.45c.09-.81.13-1.45.26-1.91.13-.43.47-2.43.55-2.94.09-.51.55-2.6.6-2.89.04-.34.04-.6.13-.89.09-.34.04-.98.04-1.02s-.04-.04-.13-.38c-.09-.3-.26-.43-.47-.55s-.47-.3-.64-.43-.38-.3-.55-.51-.34-.68-.43-.89c-.09-.17-.43-.85-.72-1.28-.3-.47-.34-.47-.47-.94-.17-.47.13-.47.17-.77.04-.26.21-.55.43-.89.21-.38.47-.47.6-.81.17-.34.04-.34,0-.64s0-.26-.09-.47c-.09-.17-.17-.38-.26-.47-.09-.04-.21-.09-.3,0s-.21.34-.3.38c-.09,0-.13-.09-.17-.13-.04-.04-.3-.04-.38-.13-.04-.04-.17-.09-.3-.13-.09-.04-.43-.21-.55-.3-.09-.09-.21-.3-.21-.51s-.17-.3-.6-.6c-.43-.3-.6-.34-1.11-.47-.51-.13-.72-.47-.9-.6-.17-.09-.17-.21-.51-.17-.38.04-.85-.17-1.11-.3-.3-.13-.81-.21-1.02-.34s-.6-.21-.77-.55-.13-.21-.09-.51c.04-.3-.38-.55-.64-.85s-.47-.34-.6-.68c-.13-.34-.34-.34-.6-.6-.26-.26-.26-.55-.38-.85-.13-.3-.81-.68-.81-.68,0,0,.17.47.26.68.09.17.26.64.47.98s.38.43.6.77,0,.55-.04.43c.13-.17-.17-.21-.17-.38s-.09-.26-.13-.38-.34-.26-.6-.47c-.26-.21-.47-.3-.3-.3s.43.17.38.04-.34-.43-.51-.64c-.13-.21-.17-.47-.34-.81-.13-.38-.68-.72-.94-.72-.26-.04-.34-.17-.43-.43s-.13-.55-.21-.77c-.13-.21-.64-.89-.64-1.19,0-.26-.17-1.02.04-1.49.17-.43.13-1.4.13-1.57-.04-.17-.34-.55-.34-.68s.17-.04.34,0c.13.04.43.17.43.17,0,0-.21-.43-.38-.6-.13-.17-.55-.34-.77-.38-.17-.04-.43-.13-.51-.26-.09-.17-.21-.38-.3-.51-.09-.13-.38-.3-.43-.43-.09-.13-.04-.43-.17-.55-.09-.13-.26-.21-.38-.17s-.21-.09-.34-.3-.38-.3-.47-.34c-.09-.04-.34-.38-.38-.47,0-.09-.47-.6-.6-.68-.13-.09-1.54-.55-1.58-.55s-.43.04-.55.04c-.13-.04-.47-.34-.68-.43-.17-.09-.34.09-.43.3s-.51.55-.77.72c-.26.17-.43.17-.43.09s0-.21.09-.43.13-.26.38-.38q.26-.13.13-.13c-.09,0-.17,0,.04-.13s.3-.13.26-.21c0-.09-.43.13-.68.34s-.43.38-.68.77c-.21.38.04.26-.17.51s-.85.77-1.07.94c-.21.17-1.02.6-1.36.72-.34.09-.47.13-.64.26-.17.13-.55.17-.43.09.13-.09.38-.3.55-.38.17-.09.64-.3.77-.34.13-.04.51-.3.68-.51s.3-.47.43-.64c.13-.21.17-.3-.13-.21-.26.09-.51.04-.68,0-.13-.04-.47.17-.6.09-.13-.09,0-.3-.09-.38-.09-.09-.34-.04-.55-.09-.17-.04-.43-.17-.43-.43s-.17-.47-.09-.64c.09-.21.26-.26.38-.34.17-.13.6-.26.68-.26s.21-.09.3-.17-.17-.38-.17-.38c0,0,.04-.04.17-.09.13-.09.04-.21-.17-.17-.17.04-.6.21-.85.3s-.6.04-.6-.09.04-.17-.04-.26c-.09-.09-.17-.17-.09-.21.09-.04.64-.34.64-.34,0,0,.21.21.43.26s.68-.38.68-.38c-.3-.17-.21-.21-.21-.21,0,0-.47,0-.55-.09-.13-.09-.13-.21-.17-.3-.04-.13-.47-.21-.34-.38.13-.17.34-.26.51-.47s.3-.55.72-.77.98-.38,1.19-.55c.21-.17.34,0,.43,0,.09.04.64-.04.85-.04s.26.26.34.3c.09.04,1.96.13,1.96.13,0,0,1.62.04,1.92.13.34.09.9.34.9.34.51-.17.47-.6.72-.6ZM38.93,97.44s-.17.68-.81.85-1.83.68-1.88.72c-.04.04.09.38.21.6.17.17.3.3.47.51s.38.17.6.34c.21.21.34.13.9.13s.38.04.98.09c.6.04,1.24.09,1.45.26.21.17.51.89.68,1.32s.51,1.15.51,1.23-.21.6-.21.68.13.21.21.34.04.21.04.3c0,.13.13.38.13.43s.3-.26.47-.3c.17-.04.6.3.6.55,0,.55.13.34-.72,1.02-.13.09-.21.72-.13,1.06.09.3.3.68.47,1.15.17.47.68,1.06.85,1.36s.21.68.55.77.68.21.94.26.43.13.55-.09c.13-.26.38-1.15.6-1.83s0-.85.47-1.02,1.24-.47,1.45-.55.17-.77.64-.98.51-.21.98-.34c.47-.13,1.07-.43,1.54-.72s.55-.17.72-.43c.17-.3-.17-.72-.21-1.15s.13-.47.21-.85.13-.64.47-.94c.34-.26.55-.43.47-.68-.04-.26-.26-.64-.26-.89s.04-.13-.09-.51c-.13-.38-.13-.43,0-.81.13-.34.51-.26.47-.43-.04-.17-.55-.38-.6-.85,0-.43.09-.6.17-.68.09-.13,1.02-.85,1.07-.89.04-.09,0-.26.43-.47.47-.21.6-.34.77-.43.17-.09.43-.04-.09-.21s-.64-.21-.98-.17-.47.21-1.07.3c-.6.04-1.32.34-1.32.34,0,0,.21-.17.04-.34s.47-.77.55-.81c.13-.09-.85-.3-1.32-.38-.51-.09-1.45-.38-2-.34-.55.04-1.36.04-1.66.13-.3.09-.26.47-.55.47s-.9-.17-1.36-.13c-.47.09-1.15.38-1.24.38s.3.21.51.3.55.55.55.55c0,0-.64-.21-1.28-.38s-1.36,0-1.62.09c-.26.09-.6.21-1.11.26s-1.11.47-1.41.64c-.3.21-1.24.72-1.45.85s-.13.17.13.26c.26.04.51.09.51.09ZM25.67,104.33c.09.3.09.72-.09.55s-.3-.55-.55-.43c-.26.17-.55.13-.51.09s0-.21-.13-.26-.21.04-.38.13c-.13.09-.6.21-.43.04.17-.13.13-.21.04-.38s-.55.13-.81.3c-.26.17-.38.47-.55.64-.13.17-.04.3.17.38s.6.13.3.21c-.3.13-.55.17-.38.3.17.09.43.13.68.09s.51-.09.94,0c.43.13.68.13.68.13,0,0-.17.09-.47.17-.3.04-.81,0-1.07.04s-.68.13-.6.21c.13.09.17.26.55.38s.43,0,.64.04.09.3.17.34c.04.04.47-.04.9-.13s.26-.13.6-.21c.34-.09.34-.34.51-.38.17-.04.04.13.3.17.21.04.09.09.34.13.26.04.21.13.43.13.26,0,.51-.17.47-.21s-.09-.09-.04-.21-.26.04-.34.09-.09-.17.13-.26c.21-.09.38,0,.51,0s0-.34-.21-.38c-.21-.04-.3-.17-.64-.38-.34-.17-.17-.26-.26-.47s-.3-.94-.47-1.06-.38-.09-.55-.21c.09-.04.04.13.13.43ZM20.68,103.87c.09.21.09.09-.09.34s-.09.34-.17.51c-.13.17-.38.43-.3.55s.38.21.51.3.26.3.47.21.3-.13.43-.21c.17-.09.26-.17.26-.34,0-.21,0-.3.04-.26.04,0,.17.09.21-.04s.13-.3.21-.38.38-.21.51-.3c.13-.13.38-.26.43-.34.09-.09-.13-.17-.21-.21-.13-.04-.26-.21-.51-.21s-.43.21-.38.13c0-.09-.17-.13-.3-.17-.13-.04-.21-.09-.55-.04-.34.04-.47.04-.77.13-.17-.04.13.13.21.34ZM28.49,106.55s-.17.09-.3.21c-.09.13.21.04.3.09.09.04.17.13.26.17.09.04.51.04.68-.04.17-.09.17-.13.17-.17s-.34-.38-.6-.51-.26-.13-.3-.09c-.09,0-.17.3-.21.34ZM27.33,103.95c-.17.09-.3.17,0,.3.26.13.38.26.55.38.17.13.26.47.64.3.38-.17.55-.34.6-.47.04-.17-.04-.17-.17-.34-.09-.13-.13-.21-.3-.17-.21.04-.26.04-.26.04,0,0,.13-.17.34-.26.21-.09.04-.17.13-.3s-.26-.17-.43-.13c-.17.04-.17,0-.43-.04-.26,0-.68.21-.64.3,0,.09.21.04.38.17.17.09.21.09.04.38s-.26-.09-.34-.13c0-.04.04-.13-.13-.04ZM26.18,103.44c-.26.04-.34.21-.26.26.09.04.17-.04.34.13.17.17.3.26.38,0,.04-.3-.04-.43-.47-.38ZM21.88,101.27c-.3.26-.34.43-.6.6-.21.17-.17.3-.09.34.09.09.3,0,.43-.04s.21-.21.26-.13c.09.09.34-.3.47-.43s.26-.26.3-.26-.09.13-.04.26c0,.17.21.17.43-.04.17-.21,0-.38.17-.55.13-.17.26-.13,0-.26-.3-.13-.47,0-.55.09-.09.09-.17-.04-.77.43ZM23.71,101.65c-.17,0-.26.04-.51.17-.3.13-.38.43-.47.6-.09.17.04.17.3.26.26.09.6-.04.68-.26.09-.26.17.04.13.17-.04.13.17,0,.3-.04s.43-.09.47-.09-.26.21-.55.3-.51.13-.6.17c-.09,0,.09.13.38.21.34.09.51-.21.98-.38s.47-.21.6-.17c.17.04.34-.09.51-.13.17-.04.26.04.34-.26.09-.3.21-.55-.04-.55s-.3,0-.34.3-.04.13-.04.13c0,0-.17-.26-.3-.43-.13-.13-.17-.34-.3-.47s-.17.04-.34.26c-.17.21-.04.3.13.38s.3.3.21.38c-.09.04-.17,0-.51.04s-.34-.09-.43-.17c-.09-.04.17-.13-.21-.3-.3-.17-.26-.13-.38-.13ZM22.6,101.95c.04-.09-.47.3-.51.38-.09.13.09.09.21.09.13,0,.17-.26.3-.47ZM23.54,101.18c-.13.04-.13.09.09.13s.3-.09.26-.17c-.04-.04-.26,0-.34.04ZM24.56,100.16c-.13.04-.51.17-.55.21,0,.09,0,.21.04.34s.09.13.43.04.55-.26.47-.3c-.13-.04-.17-.09-.3-.09-.09,0,.09-.09.3-.13.26-.09.34-.21-.38-.09ZM23.41,100.33c-.09.04-.13.04.09.13s.43.09.38,0c-.04-.09-.17-.26-.47-.13ZM24.22,99.78c-.17.09-.21.21-.26.26s.21-.04.34-.09c.13-.04.13.04.26-.04.13-.09.34,0,.55-.04s.26-.17.17-.3c-.09-.13-.55,0-1.07.21ZM26.23,100.29s-.04.13,0,.21.04.09.17.13c.09.04.21.13.21.13t.09-.09c.04-.09,0-.09-.13-.21-.13-.13-.21-.26-.34-.17ZM26.91,101.14c-.17-.04-.26.04-.3.09-.04.04.04.09.09.21s0,.17.21.17.3-.04.3-.17c.04-.13-.13-.26-.3-.3ZM27.8,101.4c-.13-.09-.21-.17-.34-.13-.13.04-.04.13-.04.17s.17,0,.17.09.04.13-.17.13-.26,0-.34.09c-.09.04.17,0,.21.09.09.09.21.09.38.09.21-.04.47-.09.47-.09,0,0-.13.13-.21.26-.04.09-.09.26,0,.3.09.09.13-.09.43-.09s.38-.17.38-.17c0,0-.09-.09-.04-.21v-.17s.13.09.13.13c0,0,0-.09-.04-.26-.04-.17,0-.17-.04-.38s-.04-.26-.26-.26-.38.09-.55.09-.26.04-.13.09c.13.09.17.13.21.21s.04.26.04.26c.04.04-.26-.21-.26-.21ZM26.69,102.21h0c-.09.04-.13.17-.13.21,0,.09.13.04.34-.04.17-.04.09-.26-.21-.17ZM29.51,101.82c-.17.09-.3.21-.38.34-.09.13,0,.13.26.26s.51.17.64,0c.09-.13-.09-.81-.51-.6ZM30.7,100.84c-.3.04-.21.09-.6-.04-.38-.13-.81-.13-.94-.13s-.09.04.04.26c.13.21.17.3.43.21s.47-.13.68.17.3.38.13.47-.09.26,0,.47.3.21.6.21,2.22-.04,2.52-.09c.3-.04.55-.3.72-.43.17-.13.26-.3.04-.43-.21-.04-.51-.17-.77-.17s-.47.13-.81.17c-.38.04-.3.21-.6.21-.34,0-.17.17-.6,0s-.72-.38-.51-.43.34-.04.26-.13c-.13-.13-.34-.34-.6-.34ZM26.86,99.31c.21.09.26.13.04.17-.21.04-.38.21-.17.17s.43,0,.68.09c.3.04.26,0,.38.17s.26.17.47.13q.21-.04.09-.21c-.13-.13-.26-.38-.43-.51-.17-.09-.3-.26-.47-.21-.17,0-.21,0-.34-.17-.13-.21-.26-.09-.47-.04-.21.04-.3.21-.38.26-.21.13.43.09.6.17ZM29.47,97.27c-.21.3-.43.55-.17.55.26.04.38,0,.38.04,0,.09-.04.13-.43.13s-.26.09-.04.34c.21.26.26.17.6.17s.47-.13.72-.04c.3.09.38.13.13.21s-.85.21-.72.34.55.43.72.47c.17.04.21-.13.64-.09s.3.09.34-.04c.04-.13.26-.38.3-.51.04-.09.17-.17.38-.21s.3-.13.09-.21-.47-.13-.43-.17.17-.21.04-.3c-.09-.09-.21-.09-.34-.13-.13-.04-.26-.26-.38-.34-.13-.09-.3-.09-.47-.26-.17-.13-.47-.47-.81-.47-.21.09-.34.21-.55.51ZM29,99.7c-.09.04-.3.04-.13.17.17.13.13.13.34.04s.51-.26.55-.34c.04-.04-.21-.17-.38-.21s-.26-.17-.6-.26c-.51-.09.3.55.21.6ZM39.96,95.36c-.38-.09-1.71-.34-2.13-.26-.43.09-.43-.21-1.02-.13s-1.54.04-1.79.09c-.3.04.13.17.3.26.17.09-.72-.13-1.41.09-.68.17-1.11.3-.38.55.72.3.81.34.81.34,0,0-.94-.17-1.32-.34s-.17-.13-.94.09c-.72.21-1.45.34-1.41.55s.6.51.98.6c.38.09,1.15-.13,1.19-.13.04-.04-.3.3-.3.3,0,0,.38-.09.81-.17.43-.13.77-.21,1.15-.38.43-.13.47-.17.47-.17,0,0-.72.55-1.19.72-.47.17-1.11.3-1.41.34-.3,0-.26.21.04.34.3.17.51.47.68.6s.17.3.17.3c0,0-.47-.38-.98,0-.51.38-.43.55-.3.6.13.04.6.09.68.26.09.17.68-.13.68-.13,0,0-.3.38-.6.38s-.26-.26-.68-.21-.38.13-.21.3c.17.13.34.17,0,.34-.3.13-.47.17-.47.38,0,.17.43.17.68.17s.51-.04.98-.04.43-.17.6-.17.34.04.3.21c-.09.17.09.09.6-.13.51-.17.3-.47.26-.6-.04-.09-.21-.13-.34-.17-.13-.04.34-.55.3-.72-.09-.17.6-.04.9-.43.3-.38.17-.68-.04-.72-.21-.09.38-.04.6-.13.17-.13.6-.26.77-.47s.21-.3-.17-.26c-.43.04.6-.17,1.07-.47s1.02-.68,1.15-.77c.13-.09.21-.04-.34,0-.55.04-1.24-.04-.85-.09s1.45-.17,1.75-.38c.26-.26.38-.34.38-.34ZM33.26,103.1c-.6-.04-1.45-.21-1.66.3-.17.51-.47,1.66-.47,1.87-.04.21.72.51,1.24.55.51.04,1.36.04,1.19-.09-.17-.13-.04-.17.47-.17.47.04.51-.09.51-.21s.09.13.43.3.64.68.94.98c.3.3.98.68.85.89s.13.98-.9,1.19c-1.02.17-1.11.04-1.07.3,0,.21.04.34.47.34s.98-.34,1.15-.09.47.34.64.38c.17.04-.21.17-.3.17-.09.04.21.09.81.34.6.3,1.28.3.94.13-.34-.21-.51-.55-.68-.68s0-.04.26.04c.26.09.51.3.64.38s.17-.04.26-.43-.04-.38-.51-.68c-.47-.3-.6-.55-.64-.77s.26-.26.34-.43c.13-.17.47.3.68.55s.43.68.6.38c.17-.34.34-1.06.34-1.19,0-.17-.17,0-.94-.38-.77-.38-1.15-.51-1.24-.51s.21-.13.55-.3.47-.13-.26-.81c-.72-.68-.94-.81-1.41-.85-.47-.04-.6-.55-.94-.68-.34-.17-1.11.21-1.32.26s-.17.13-.43-.26c-.3-.55-.55-.85-.55-.85ZM33.82,103.1c-.3.04.17.6.55.6.38.04.72-.17.81-.17.09-.04-.9-.51-1.36-.43ZM32.49,108.59c-.04.13-.17.47-.17.68s-.04.26-.09.38c-.04.13.13-.04.26.17.13.21.09.26.3.04.21-.26.47-.34.77-.21.3.09.55.13.47-.04-.13-.21-.26-.17-.47-.43s-.38-.34-.64-.43c-.3-.13-.34-.43-.43-.17ZM34.71,128.08c-.09-.21-.21-.51-.81-.6-.6-.13-.77.13-.98.17-.21.09.21.13.47,0s.47-.04.51.04c.04.04-.09.09-.13.04-.04-.04-.04.13.26.26s.38.17.43.3.04.21.09.3c.09.13.09.17-.04.21-.13.04-.09.04,0,.09s.3.17.55.17c.26.04.38.09.17-.17-.13-.3-.47-.77-.51-.81ZM35.61,129.27c.17.17.13.34.09.43s-.17,0-.47-.04c-.3-.09-.26-.04,0,.09.26.13.43.09.43.3,0,.17.26,0,.34-.09s.09,0,.55.04c.47.09.55.17.47-.04-.09-.21.21-.17-.21-.38-.34-.21-1.36-.47-1.19-.3ZM34.28,129.4c-.17-.21-.38-.21-.38-.04s.04.17.21.21c.17,0,.3-.04.17-.17ZM37.65,130.25c-.17-.09-.21.09-.09.21s.34.09.51.09c.17-.04-.09-.21-.43-.3ZM35.48,106.97c-.26.09-.38.17-.17.47.21.3.34.47.43.26.09-.21.17-.89-.26-.72ZM33.47,110.08c-.38.04-.51.09-.43.3.04.21.17.17.43.04.21-.17.38-.43,0-.34ZM34.24,110.38c-.09,0-.09.17,0,.3s.26-.04.3-.21c.09-.13-.04-.17-.3-.09ZM30.11,100.12c-.34,0-.9.13-.6.13s.55.09,1.02.04c.47-.04.51-.04.55-.3,0-.21-.34.13-.98.13ZM27.85,98.16c-.38.13-.26.17.17.38.43.17.43.09.38-.26-.04-.34-.34-.17-.55-.13ZM53.43,107.48c-.47.13-.6.04-.68.3-.09.21-.26.09-.38.13-.09.04-.26.68-.3.55-.09-.09-.09-.13-.21-.38-.09-.21.04-.17-.17-.43-.21-.21-.6-.21-.64-.13s.26.17.17.3-.34.26-.43.3c-.09.09.17.04.34,0s.3.13.34.26c.09.13-.09.21-.17.3-.09.04.26.04.38.09.13.04.21.13.13.26s.38,0,.64,0,.34.17.72.04c.38-.13.6-.13.94-.38.34-.26.34-.21.55-.38.26-.17.17-.21.17-.43,0-.17.17.04.09-.21-.04-.3-.34-.21-.55-.21-.21-.04-.21-.17-.3-.21-.04-.04-.21.13-.64.26ZM83.67,131.95c0,.09-.04.13-.04.3v.47c0,.17,0,.26.09.3s.13.09.3,0,.26-.17.21-.34c-.09-.17-.21-.43-.26-.55-.09-.13-.26-.3-.3-.17ZM83.58,131.74c0,.09.04.04.09.09.04.04.04,0,0-.04s-.04-.09-.04-.09c0,0-.04,0-.04.04M96.5,140.59s-.04.04,0,0c-.26.26-.47.21-.9.34s-1.19.55-1.24.77c-.04.17,0,.21-.04.17l-.13-.13s-.13.21-.09.43.13.34.13.6-.13.43-.09.6c0,.17.3.55.38.77s.13.17.17.55c.04.38.26.6.04.81s-.34.17-.13.38c.26.21.47.34.85.21s.3-.26.6-.34.38-.13.64-.17c.26,0,.47,0,.55-.17.09-.21.04-.17.3-.3.26-.13.26-.17.43-.21s.3.09.55-.09.04-.21.6-.21.77.09.94.13c.21.09.51.26.6.38.09.13.17.26.21.26s.09,0,.21-.13.47-.38.47-.38c0,0,0,.26-.09.38-.09.09-.09.26-.09.3s.21-.17.21-.17c.04,0,.04.38.09.38.04.04.13,0,.17.13.09.13.17.21.26.38s.43.43.64.47.38,0,.55,0c.17-.04.17-.21.34-.13.17.09,0,.21.38.21.38-.04.51-.17.68-.26.17-.13.17.17.38-.13s.26-.21.3-.55c.04-.34.04-.43.21-.72.21-.34.26-.17.38-.64.13-.47.3-.94.3-1.32s0-.13-.09-.6c-.09-.43-.04-.38-.3-.6-.3-.17-.34-.13-.43-.38-.09-.26,0-.34-.13-.34s-.26.04-.34-.13c-.09-.17-.09-.26-.21-.43-.17-.17-.3-.13-.55-.26-.3-.13-.13-.17-.13-.38s0-.47-.21-.55c-.21-.09-.09.04-.09-.3s0-.3-.17-.38c-.17-.04-.26-.04-.34-.26-.13-.21-.26-.55-.3-.72-.04-.13-.13,0-.17.13-.09.09-.17.34-.17.55s.09.34.09.64-.21.6-.34.72c-.13.17-.21,0-.34-.04s-.13-.21-.34-.3c-.21-.13-.64-.21-.85-.38-.17-.17-.04-.17,0-.34s.13-.34.3-.43c.13-.13.09-.17-.09-.26s-.43-.09-.72-.09-.47-.04-.47.17c0,.17.21.26-.04.17-.26-.04-.47-.09-.6.04-.13.13-.13.21-.21.47s0,.3-.09.3-.51-.21-.68-.26c-.13-.04-.21-.04-.38.09-.17.17-.77.68-.98.77-.26.13-.21.09-.43.77ZM88.53,133.1c-.13,0-.21-.04-.04.17s.21.26.34.38c.17.13.21-.09.3.17.13.26.09.26.17.38.13.09.21.13.26.21s.09.26.21.38.13.09.21.3.21.38.26.55.38.34.55.6c.17.21.47.55.51.47.04-.09.17,0,.26-.04.09-.04.13-.17.17-.47.04-.3-.04-.47-.13-.51-.09-.09-.26-.09-.3-.17-.04-.09-.13-.3-.21-.38-.09-.09-.13,0-.13-.17s.13-.17-.04-.26-.17-.17-.21-.21-.38-.13-.47-.21c-.09-.09-.43-.26-.6-.43s-.34-.3-.43-.43c0-.17-.17-.26-.68-.34ZM91.98,136.67c-.13,0-.21-.09-.3.09s-.09.17.09.17.13.09.13.09c0,.04-.09,0,.21.09.3.13.51.09.6.04s.13.13.51.17c.43.09.64-.04.9.04s.21-.04,0-.17c-.17-.13-.17-.09-.38-.21-.17-.13-.47-.13-.6-.17-.13-.04.13.13-.26.09-.38-.04-.26.04-.43-.09s-.21-.17-.34-.17c-.09,0-.13.04-.13.04ZM95.01,137.27c-.13.04-.34.09-.21.13.09.04.04.09.34.04s.6-.09.64-.13c.04-.09-.04-.04-.17-.04-.13-.04-.13.04-.3.04-.21.04-.3-.04-.3-.04ZM96.12,137.27c-.21.04-.17.09,0,.13.17.04.34.09.47.04s.13-.09.38-.09c.21-.04.3-.04.51-.04l.17-.04s0-.04-.13-.04h-.34c-.13,0-.34.13-.43.09s-.26-.04-.3-.04c-.09.04-.09-.04-.34,0ZM97.31,137.52h0q-.17.13-.13.21v.13s.21,0,.38-.17.17-.17.34-.21c.17-.04.38-.26.38-.26,0,0-.13.04-.3,0-.13,0-.3.09-.34.13-.09.04.04.04-.34.17ZM96.08,137.61c-.17-.13-.3-.09-.3-.04,0,.09-.13.09.09.13.21.09.43.17.43.09-.04-.09-.13-.13-.21-.17ZM94.67,133.01c-.09.13.09.09-.04.21s-.21.04-.38.21c-.13.17-.34.3-.43.34s-.34.13-.47.3c-.13.17.04.26.04.26,0,0-.09.04-.26-.04-.17-.09-.21-.17-.21-.17,0,0-.13,0-.21.21s-.13.21,0,.34-.09.13-.09.21c.04.09.04.26.13.26s.09-.09.21.04c.09.13,0,.47.13.51.13,0,.21-.04.34,0s.21.09.34.04c.17-.04.3,0,.38.04s.34.13.51.13c.13,0,.17.04.17-.17.04-.21,0-.38.17-.51s.17-.17.17-.3,0-.3.13-.43c.09-.13.17.09.21-.04.04-.13.13-.13.09-.17s-.17-.04-.26-.17c-.04-.09,0-.17-.04-.38-.09-.21-.13-.13,0-.26.09-.13.17-.13.21-.26,0-.09.04-.09.17-.17.13-.09,0-.04-.13-.13-.13-.09-.34-.43-.47-.43-.09.04-.34.38-.43.51ZM112.32,144.8s-.13,0,.04.13c.13.17.13.13.21.13s.17.3.21.38.13.17.13.17c0,0,.04.34,0,.47-.04.17-.13.21-.17.34s.13.09.26.13c.13.04.09.04.04.17-.04.13-.17.17-.17.21s.26.17.38,0,.34-.38.38-.55c.04-.17-.09-.09.09-.21.17-.13.17-.04.26-.21.09-.13.17-.3.09-.38-.09-.09-.21.09-.3.13s-.17.04-.3-.04c-.13-.04-.17-.04-.21-.17-.04-.13-.13-.17-.13-.17,0,0-.04.17-.13.13s-.09-.13-.13-.21-.09-.13-.13-.21c-.04-.09,0-.21-.21-.26-.21.04-.17.09-.21.04ZM112.37,146.8s-.17.13-.3.34c-.17.21-.17.3-.21.38s-.21.26-.51.38c-.3.17-.38.21-.47.34s-.43.55-.47.64c-.04.04.17.09.38.09s.55.17.72,0c.17-.21.34-.64.47-.81.13-.17.21-.21.38-.38s.47-.47.47-.6-.09-.3-.09-.3c0,0-.09.13-.21.13-.21,0-.17-.21-.17-.21ZM110.96,148.93c-.21-.13-.26.09-.3.3s.09.04.26-.04c.21-.09.13-.21.04-.26ZM103.84,147.48c-.26-.09-.21.13-.17.3s.09.3.17.43.43.17.55.13c.13-.04.21-.26.34-.47s.17-.43.17-.55c-.04-.13-.17.09-.3.17-.13.04-.26.17-.47.13-.17-.04-.21-.09-.3-.13ZM100.85,135.57c-.17.04-.3-.13-.43-.43-.17-.34-.26-.38-.68-.21-.38.13-.34.13-.09.21s.3.13.34.13.43.04.34.13c-.09.04-.43.13-.21.26s.13.04.72.34c.6.3.68.09.9.47.17.38.17.34.04.43-.17.09-.34.21-.26.21s.26.04.64.09c.43.04.04.26.47.26.47,0,.55-.13.77-.34s.21-.09.6,0,.51.43.98.55.68.3.38.04c-.3-.3-.43-.47-.81-.81q-.43-.34-.55-.6c-.13-.26-.55-.55-1.02-.72-.47-.17-.72-.21-1.28-.38-.55-.21-.64.34-.85.38ZM97.7,134.46c-.17.13-.21.04-.34-.04s-.09.17-.38.04-.43-.21-.72.04c-.34.26-.13.34-.13.51s-.26.64-.38.81c-.09.17-.09.26-.04.34.09.13.17.09.21.13.04.04,0,.51-.04.64s.13.17.3.13.04-.04.04-.21.09-.21.09-.51v-.43s.04-.04.13.09c.09.09.17.38.26.51.09.13.17.26.3.13.13-.09.26-.21.26-.21,0,0-.26-.09-.26-.17s.09-.17-.09-.43c-.17-.3-.26-.3-.04-.3s.21-.21.34-.3c.13-.04.3-.04.3-.04,0,0-.13-.13-.34-.09-.21.04-.38.09-.51.17-.17.09-.3.13-.34,0-.04-.17-.04-.21-.04-.43.04-.21.3-.04.47-.13q.21-.04.6,0c.38.04.47-.09.6-.26.13-.17.21-.38.21-.38,0,0-.21.26-.43.38ZM98.72,133.82c.04-.09-.3.26-.38.3s0,.17.04.26.04.38.04.47.21.13.21.13c0,0,0-.21.04-.3.09-.09,0-.21,0-.38.04-.17-.09-.26.04-.47ZM98.04,135.65c-.26-.09-.38-.04-.38.13s-.04.21.26.21.64-.13.13-.34ZM98.59,135.57c-.09.04-.13.26-.09.38s.09.04.26,0c.17-.04.13-.17.34-.17s.6.13.6.13c0,0,.09-.09-.21-.3-.38-.17-.51-.17-.9-.04ZM93.09,128.5h-.3s-.13.09-.21.13c-.09.04-.09.09,0,.21.04.13.13.13.26.17s.09-.04.17-.09.13-.13.13-.21.09-.13.13-.13c.04-.04-.09-.13-.09-.13,0-.04-.09.04-.09.04ZM96.33,128.88c-.13-.09-.17.21-.21.34s-.09.26,0,.34c.04.09.04.13.04.13l-.17-.13s-.04.13-.04.26-.04.17.13.26c.17.09.26.04.26.17.04.13.04.17.13.21.13.04.26.09.3.17.04.09.04-.21.13-.17.09,0,.17.13.26.21.04.09.17.09.17.09,0,0-.13-.21-.09-.26s.09-.04-.09-.13c-.17-.09-.3-.09-.38-.09-.13,0-.13.09-.21-.17s0-.38,0-.43.09.09.13-.09c.09-.17.09-.3.09-.43,0-.17.13-.21,0-.21-.09-.04-.34-.04-.43-.09ZM97.78,131.86c0,.13-.13-.04-.17.04-.04.09-.09.04-.13.09-.09.04-.26.21-.26.21v-.13s-.04-.17-.13-.09-.13.13-.26.21c-.13.04-.21.17-.21.26,0,.13.09.13.09.13,0,0,.04-.04.13-.17s.09-.13.26-.13.13,0,.17.09c.04.09,0,.21,0,.3s0,.21.17.26.09,0,.21,0,.13,0,.13-.09-.04-.13-.09-.21c0-.09.09-.13.13-.13s.04.09.09.17q.04.09.09,0c.04-.09.09-.26.04-.38,0-.09-.04-.17-.04-.26s-.09-.17-.13-.21-.17-.17-.17-.17c0,0,.04.13.09.21ZM97.1,131.18s0-.09-.13-.21-.13-.17-.34-.21-.38,0-.3.21.13.26.26.26c.17.04.26-.09.26-.09,0,0,0,.04-.13.13-.17.09-.17.3-.04.34s.13.17.17.13c.09-.04.13-.26.26-.38s.17-.17.17-.3v-.26l-.17.38ZM97.4,130.8s-.13,0,0,.09.21.13.21.21,0,.09-.09.09c-.04,0-.09-.04-.09-.04-.04,0-.04.04,0,.09,0,.04,0,0,.09.09.04.09.04.13.04.21s.04.04.04.04v-.26s0-.17.04-.13c.09.04.04.17.09.04.04-.13.04-.26,0-.34-.04-.09-.09-.09-.21-.09-.09-.04-.13,0-.13,0ZM95.86,131.18s-.09.04-.09.21c-.04.17-.13.21-.21.34-.09.09-.34.34-.34.38s0,0,.17-.09.34-.21.34-.34c.04-.13-.04-.04.13-.13s.09-.09.09-.21c.04-.13,0-.21-.09-.17ZM105.76,135.74c0,.17.04.21-.09.3-.13.13-.3.13-.47.13-.17.04-.04-.04-.21-.04s-.26,0-.17.09c.09.09.09.17.34.17.3,0,.51-.17.68-.21.17-.04.17-.21.17-.26.04-.04-.21-.34-.26-.17ZM106.57,136.03c.09.13.04.09.13.26.09.13.26.17.38.21.13.04,0-.04-.09-.17s-.09-.17-.21-.3c-.17-.13-.38-.17-.21,0ZM96.46,126.71c-.38.26-.55.21-.38.55.17.3.26.43.26.51,0,.04.09-.04.21-.3.09-.26.13-.55.17-.68,0-.09-.13-.17-.26-.09ZM103.03,114.72c.04.17.09.43,0,.43-.09.04-.17.21-.17.38-.04.17-.09.43.04.55.09.13.04.17.04.3s.04.43-.04.6-.09.21-.09.43c.04.21,0,.21,0,.51v.6c0,.13.09-.04.13-.09s.21-.04.3.04l.09.09s.13.04-.04-.34c-.21-.43-.21-.34-.17-.72.04-.38.09-.38.3-.43s.3.26.34.26c.04.04,0-.09-.09-.3s-.13-.3-.17-.55c-.04-.26-.13-.51-.21-.6s-.04-.21,0-.3.09-.26.04-.47c-.04-.17-.09-.43-.13-.55-.04-.09-.17.04-.17.04v.13ZM102.81,118.97c0,.13.04.21-.04.38-.09.13-.04.17-.09.38s-.3,0-.3.04-.04.17-.09.21c-.04.04-.26.04-.21.26s.17.38.17.38c0,0,.13-.13.17-.13s.13-.04.13-.04c0,0,0-.04-.17-.13-.13-.04-.13-.17-.09-.21,0-.04.17,0,.3,0s.21-.09.34.04c.13.09.34.13.34.13,0,0,.04-.17.09-.26.04-.13.21-.04.43-.13.17-.04.3-.09.26-.17-.04-.09-.04-.21-.09-.34-.04-.13-.17,0-.26.04-.09.04-.21,0-.34-.09s-.34-.38-.43-.47c0,.04-.13-.04-.13.09ZM102.3,120.8s-.13.17-.13.34.17,0-.04.47c-.17.51-.26.6-.43.72-.17.13-.34.13-.38.09s0-.13.09-.17c.04-.04-.17-.04-.26-.04s0,.13,0,.17c0,.09-.17.3-.17.38s0,.13-.09.17c-.13.04-.17-.09-.21-.09s-.21.04-.38.04c-.21.04-.26.09-.34.26s-.3.17-.47.26c-.17.04-.09.26-.26.34s-.17.21-.17.34.09.04.13.04c0,0,0-.17.13-.13.09,0,.13,0,.04.13s-.09.17-.13.26,0,.13.09.26c.09.09.17-.04.34-.21.17-.17.17-.21.17-.43s-.09-.21-.21-.26-.17,0,0-.17c.13-.17.21,0,.3-.09s.34-.09.55-.13c.21-.04.43-.13.43-.04s.09.3.09.34.17-.09.3-.13c.13-.04,0-.09,0-.17s.09-.17.09-.17c0,0,.09.17.3.04.26-.13.26-.17.3-.13.04,0,.09.09.21,0,.09-.04.13,0,.09.04,0,.04.3-.09.34-.13.09-.04.04,0,0-.17s-.13-.17-.04-.43c.04-.21.04-.26.04-.38s.09-.17.09-.17c.04,0,.04-.21.13-.3s.04-.13.04-.38c0-.21-.13-.17-.13-.34s.04-.34.04-.34c0,0-.26.09-.3.17l-.04.04s-.04.04-.13.09ZM100.64,123.31c-.26.04-.47.09-.6.13-.17.04-.17.13-.17.26.04.17.09.3.13.38.04.09.13,0,.26-.09s.13-.3.3-.3.09.17.3-.09c.17-.21.04-.26.04-.38-.09-.04-.26.09-.26.09ZM117.35,110.97c-.3-.04-.38-.13-.38,0-.04.09-.04.13.13.21s.26-.04.43.09.21.13.34.09c.13,0,.17-.09.17-.09,0,0-.43-.26-.68-.3ZM114.16,106.5c-.09.04-.17-.09-.17.17.04.26.09.3.43.26.34-.04.09,0,.51-.04.47-.04.55-.09.55-.09,0,0-.04-.13-.21-.26s-.34.09-.68,0c-.38-.04-.43-.04-.43-.04ZM104.05,102.76c0,.09.47.38.6.47.17.09.3.04.64,0s.38-.17.43-.26c.04-.09-.17-.04-.38-.09-.21-.04-.43.04-.51,0s.13-.09-.09-.17-.26.04-.3,0c-.04-.04-.04-.09-.17-.13-.09,0-.21.09-.21.17ZM102.26,103.35c-.17.04-.13.13.04.26.17.13.13.13.04.21s0,0,.26.13.34.3.51.38c.17.04.26,0,.26,0,0,0-.04-.17-.21-.38-.13-.21-.47-.26-.51-.43-.04-.21-.13-.3-.38-.17ZM103.88,102.5s-.21-.13-.55-.34-.47-.26-.6-.3c-.13,0-.09.13-.13.21-.04.13-.09.09-.26,0-.17-.09-.34-.21-.55-.26-.17-.04-.3.13-.51.3-.21.21-.09.26.17.6.26.3.38.34.55.21.21-.13.13-.21.3-.13.13.04.64-.04.68-.04,0,0-.04.3.21.21.21-.09.43-.13.55-.21.04-.17.13-.26.13-.26ZM88.36,96.59c-.09.04-.47.04-.64.34-.21.3-.34.09-.43.3-.09.17-.17.43-.17.43,0,0,.17.21.38.21.17,0,.51.09.72.34.17.26.34.26.77.34.47.09.26.13.47.13.21-.04.55.04.47-.09s-.13-.17-.09-.43c.04-.21.26-.21,0-.38s-.43-.04-.43-.04c0-.04.21-.13.13-.13s-.51-.04-.55-.26.13-.26.21-.26.04-.04-.17-.21c-.26-.17-.55-.34-.55-.34-.21-.04-.09-.04-.13.04ZM90.62,98.25c-.17.04-.3.21-.43.34-.09.17-.3.38-.43.47-.13.09-.09.13.13.21s.55-.13.68-.13.17.17.51.13c.34-.04.81-.09.55-.26-.26-.17-.17-.09-.43-.3s-.6-.21-.6-.21c0,0,.55-.17.43-.21-.17-.04-.43-.04-.43-.04ZM76.76,95.53c-.3.13-.21.17-.43.34s-.09.21.38.09c.43-.09.47-.17.72-.3.34-.13-.21-.3-.68-.13ZM77.48,96.29c-.3.13-.21.26-.13.38s.3-.09.34.04c.04.13.09.09.34-.13.26-.17.17-.13.09-.34-.13-.13-.13-.17-.64.04ZM75.82,96.21q-.17.09,0,.17c.17.09.6.17.85,0q.21-.13-.09-.17c-.3-.04-.55-.09-.77,0ZM73.05,96.55c.3-.04.55-.04.81,0,.21.04.13.21-.3.26s.04.13.34.09c.3,0,.13-.26.38-.34.26-.09.43-.04.72-.13.3-.13-.17-.21-.51-.21s-.47.04-.77,0c-.3,0-.55.13-.85.17-.64.13-.09.21.17.17ZM75.35,96.63c-.26,0-.9.13-.34.21s.47.09.68,0c.21-.09-.09-.21-.34-.21ZM77.18,96.76c-.38-.13-.38-.09-.64-.04-.26.04-.38.17-.21.26s.3.04.47,0c.17-.04.13-.09.04-.13-.13-.04.55-.04.34-.09ZM78.72,96.29c-.3.04-.3.09-.34.17-.04.09.04.09.34.04s.43-.09.64-.17c.21-.09-.04-.34-.04-.43,0-.04-.26.13-.34.21-.09.04.04.13-.26.17ZM56.76,112.29c-.13.38-.38.55-.09.47.26-.13.55-.43.55-.17,0,.3-.3.26-.21.51.09.3.04.26.47.34.47.09.09.09.21.34.13.26.17.34.09.43-.13.09-.47-.26-.51-.13-.04.13.04.26.13.43s-.04.3-.34.43c-.26.13-.04.21.17.17s.72-.13.64.09c-.09.17-.34-.04-.51.26s-.81.55-.47.55.3-.13,1.28-.26c1.02-.13.3,0,.98-.21.68-.21.47-.26.09-.21-.38.04.26-.34.17-.77-.09-.38-.34,0-.47-.26-.17-.26-.13-.3.17-.21s.26-.04-.3-.43c-.55-.38-.21-.3-.47-.6-.34-.26-.77-.21-.77-.21,0,0,.17-.13.3-.34s.13-.21.26-.47-.13-.26-.43-.17c-.3.09-.38.09-.34-.04.04-.13.09-.17.26-.3.13-.17.17-.21-.09-.17-.26.04-.3.04-.51.17-.38.13-.13.34-.26.77ZM56.03,113.18c-.47.17-.34.3-.26.38.09.09.21-.04-.21.17-.43.26-.43.51-.21.55.21.04.21-.13-.04.3-.26.47-.38.77.09.64.47-.13.64-.38.85-.38.21-.04.26-.21.26-.51s-.17-.3.04-.51c.17-.21.21-.47-.17-.6-.34-.09-.04-.17-.34-.04ZM61.83,119.48s.04.21-.17.34c-.17.13.09.21.17.34.04.13.13-.38.13-.6-.04-.26-.04-.3-.13-.09ZM61.75,120.37c-.3.13-.34.26-.34.47-.04.21.26.04.17.26-.09.21,0,.3.3.13.3-.17.13-.34.17-.6.04-.26.09-.43-.3-.26ZM66.44,122.84c-.26-.04-.38.13.09.21.47.04.68.04.85,0s.04,0-.21-.17c-.26-.13-.38,0-.72-.04ZM68.95,122.97c-.38-.09-.26.38.13.3.38-.09.21.04.38-.26.17-.26-.13.04-.51-.04ZM59.79,120.93c-.3.04-.34.13-.09.21.21.04.21,0,.34-.09.13-.13-.09-.17-.26-.13ZM41.7,115.48c-.17.13-.38.34-.64.81s-.21.43-.47.68-.13.21.64.34c.77.17.72.26.9.21s.21.09.21.26.17.09.26-.17-.09-.68-.26-.98c-.17-.26-.21-.26-.47-.21-.26.09-.17-.04-.26-.26s-.21-.04,0-.34c.21-.26.26-.51.09-.34ZM17.82,114.93c0,.26.26.68.47.81s.17.04.09-.21c-.09-.3,0-.3-.04-.47-.09-.21-.51-.21-.51-.13ZM19.15,116.29s.21.3.47.47.34.21.64.3.43-.04.21-.21c-.17-.17-.04-.17-.38-.21-.34-.09-.43-.04-.55-.17-.17-.09-.51-.3-.38-.17ZM11.85,113.52c-.21-.04-.3-.04-.47.04-.13.13-.17.21-.13.34.09.13.04.04.21-.09.17-.13.09-.13.34-.21.26-.04.17-.13.17-.13,0,0,0,.09-.13.04ZM11.77,113.23c-.13.09-.21.17-.04.13s.13-.13.26-.09.13,0,.13,0c0,0-.17-.13-.34-.04ZM7.63,112.59c-.21.09-.38,0-.26.04.13.09.3.13.43.13s.21,0,.17-.09c-.04-.04-.04-.09-.04-.13-.04-.09-.09-.04-.3.04ZM73.82,139.74c-.21.51-.72.26-1.11.64-.38.38-.34.26-.04.77s-.26.47-.38,1.06c-.13.6.17.47.3,1.02.17.51.21.34.51.3.3-.09.47-.21.47-.21,0,0,.04-.43.26-1.11.17-.64.34-1.15.34-1.57.04-.43.09-.72.17-.6s.13.13.13-.09-.13-.81-.3-.94c-.26-.3-.13.21-.34.72ZM74.16,105.57c-.3.09-.47.26-.21.34.21.09.21.04.6-.09.34-.17-.09-.34-.38-.26ZM80,99.87c-.13-.17-.21.04-1.32.55-1.11.47-1.11.09-2.13.89-1.02.81-.81.72-.85,1.19s-.3.3-.38.72-.64.47-.34.85c.26.38.6.6,1.15.72.55.17.72,0,.6-.09-.13-.04-.55-.72-.47-1.45s.34-.64.6-.89c.26-.3.85-.98,1.28-1.23.38-.26,1.45-.55,1.96-.77h.04c.43-.51,0-.34-.13-.51ZM77.06,104.89c-.13,0-.17.04.04.26.26.21.47.43.38.09-.09-.3-.34-.38-.43-.34ZM80.98,102.63c-.17-.09-.26-.17-.3-.04-.04.13.21.3.43.34s.04-.26-.13-.3ZM39.83,116.59c-.26-.13-.51-.26-.68-.26s.04.17.3.34c.26.17.51,0,.38-.09ZM39.19,117.69c0-.21-.13.26.04.34s.3.13.43,0,.04-.04-.17-.09c-.17,0-.34-.04-.3-.26ZM117.48,110.04c-.34.04-.55-.04-.55-.04,0,0,0,.26-.13.38-.09.13-.04.26-.04.26,0,0-.34-.13-.51-.21-.17-.09-.34,0-.47-.3-.13-.3-.43-.21-.68-.21s-.17-.34-.17-.34h-.17c-.17,0-.13.38-.34.51s-.81.21-.81.21c0,0,.38.3.47.51s.21.47.21.47c0,0-.04.13-.51,0-.47-.09-.43.09-.94.3s-1.11.51-1.24.64-.17.04-.6-.04c-.47-.13-.55.13-.64.17-.13.04-.09-.26-.09-.26,0,0-.17,0-.34.09-2.05,1.02-.64.98-.68,1.19l-.21.81c-.3.89-.51.43-.77,1.15-.81,2.26-1.28-.34-1.28-.94,0-.38-.09-.85.17-.94,2-.94.17-.13,2.09-1.4.6-.43.3-.68.43-.77.13-.13.34-.17.34-.17l-.34-.04c-.34-.04-.34.04-.6.34s-.47.34-.43.13.04-.43-.13-.34c-.21.13-.3.09-.64.17-.38.09-.77.26-1.11.68-.34.43-.13.38-.04.47.13.09-.51.09-.85.04-.3-.04-.13-.09.04-.13.17-.04-.26-.13-.68-.21-.38-.09-.26.09-.47.17-.21.09-.21-.09-.34-.13s-.64-.04-1.02-.09c-.38-.04-.34.04-.43.17s-.77.72-1.07,1.06-.68.43-.98.72c-.34.3-.38.3-.13.34.26.04.3.04.34.26.04.26.17.34.47.34s.21.09.26-.13-.09-.47.17-.26c.26.21.43.34.51.6s0,.47-.13.94-.17,1.11-.34,1.45c-.17.34-.3.6-.51.94-.17.38-1.11,1.28-1.32,1.36s-.34.09-.43-.09c-.09-.17-.17-.17-.38.04s-.34.34-.43.68c-.09.34-.3.34-.51.6s-.26.21-.13.47c.17.3.38.6.43.85s-.13.68-.21.85-.55.26-.55.17v-.72c0-.26-.21-.26-.13-.3.04-.09.34-.21.13-.38-.17-.17-.34-.04-.38-.21-.09-.21.04-.38,0-.47s-.17-.17-.47-.17c-.3-.04-.34.26-.38,0-.04-.26.04-.26-.09-.38s-.21-.04-.55.26c-.34.26-.38.21-.64.34s-.26.17-.21.26.3.51.47.55c.17.04.34-.09.6-.09.3,0,.34.04.26.17s-.26.21-.6.55c-.34.34-.26.3-.13.43s.3.3.43.6c.13.26,0,.38,0,.55s-.04.38.17.64.09.17.04.26c-.04.09-.43.81-.6,1.15-.17.34-.17.38-.77.81-.6.43-.85.47-1.15.51s-.6.17-.72.21c-.17.09-.09.21-.13.3,0,.09-.17,0-.13-.13.04-.13,0-.21-.09-.26s-.34-.13-.6.13c-.26.26-.55.26-.68.6-.13.3-.09.21.04.34s.68.68.81.98c.13.3.17.51.17.81s-.64.89-.94,1.11c-.3.17-.34.38-.3.09.04-.3-.13-.47-.34-.68s-.85-.43-.94-.43c-.13-.04.04-.21-.04-.21s-.26-.04-.26.26c.04.3-.17.21-.21.51s-.09.6.09.55.17.26.3.6c.13.3.09.13.47.43s.26.26.34.55c.09.3.04.47.21.72s.17.34-.13.17-.55-.34-.64-.51-.17-.64-.26-.89c-.09-.21-.55-.51-.72-.68s-.04-.3,0-.68c.09-.38-.04-.77-.04-.98-.04-.21-.21-.89-.3-1.11s-.04-.17-.21,0c-.13.21-.26.3-.38.3s-.34,0-.3-.13c0-.09.17-.43.13-.55-.04-.13-.17-.51-.34-.68-.17-.13-.38-.34-.51-.68-.13-.34-.17-.21-.38-.04s-.77.17-1.02.21-.04.13-.13.26c-.04.13-.38.3-.98.94-.6.64-.68.64-.85.72s-.26.04-.26.3.04.38,0,.64c-.04.21-.09.34-.17.47-.09.13-.13.43-.17.55,0,.13-.17.3-.34.43q-.21.13-.3-.09c-.09-.21-.55-1.02-.94-1.74-.38-.77-.3-.89-.34-1.11s-.04-1.53-.04-1.62c0-.04-.17.17-.26.26-.04.09-.04.21-.26.26-.21,0-.26.04-.47-.17s-.3-.3-.26-.3.26-.04.38-.09c.13-.09.09-.13.09-.13,0,0-.13,0-.34.04-.17,0-.09-.04-.34-.13-.21-.09-.3-.09-.34-.21-.04-.09-.09-.26-.13-.34q-.04-.09-.09-.17c-.04-.09-.17,0-.38.04-.26,0-.17,0-.47.13-.3.13-.34.09-.68.09s-.55-.17-.72-.21-.21-.04-.47-.09-.21-.17-.26-.26-.17-.13-.51-.09c-.34.04-.34,0-.51-.04s-.21-.13-.34-.26c-.17-.17-.09-.04-.21-.13-.09-.09-.21-.17-.3-.43-.09-.21-.04-.26-.17-.38s-.09-.09-.38-.09-.17,0-.21.04c-.04,0-.13.13-.21.26-.09.09.09.26.17.38.13.13,0,.13.21.34.17.21.13.17.26.47s.21.34.26.43.04-.04.09-.13c.04-.09,0-.34,0-.34,0,0,.04.13.13.34.04.21,0,.21.04.34s0,.13.21.13.34,0,.6-.04c.26-.04.34-.3.47-.34.13-.09.13-.3.21-.26s0,.26.09.43.09.09.26.17.21.13.38.17c.17.09.04.09.17.26.09.17.09.09.17.13.09.04.04,0,0,.21q-.09.21-.21.38c-.17.17-.17.13-.17.13-.04,0-.09-.13-.09-.13,0,0-.09.21-.13.43,0,.26.09.17-.21.26-.3.13-.47.17-.55.26-.13.09-.13.21-.17.3-.04.04-.17,0-.34.09-.17.09-.13.04-.3.17s0,.13-.21.17c-.21.09-.6.26-.77.3-.17,0-.17.09-.21.13q-.04.09-.3.13c-.26.04-.55.09-.68.13-.13.09-.34.21-.51.21-.17-.04-.13-.04-.17-.17-.04-.13-.09-.26-.09-.47-.04-.21-.09-.6-.26-.81q-.13-.21-.26-.47c-.13-.26-.26-.43-.38-.51-.13-.09-.17-.09-.26-.17-.04-.09-.04-.3-.09-.47-.04-.21-.09-.38-.21-.51-.09-.13-.26-.21-.38-.47-.13-.21-.13-.26-.34-.6-.17-.34-.26-.38-.38-.64-.13-.26-.04-.21-.09-.34-.04-.13-.17.21-.26.3-.09.09-.13.04-.21-.17s-.13-.38-.21-.3c-.04.09-.09.17-.04.38.09.21.13.17.21.38s.38.77.51.98.09.13.17.47c.09.34.17.38.3.51.13.13.13.09.17.3.04.21.04.51.04.64s.09.21.26.34.09.09.17.26c.09.13.17.34.21.51.04.13.09.26.21.3.13.09.17.09.3.13.13.04.09.09.17.21s.26.21.38.38c.13.17.04.13.04.3s-.04.09,0,.17c.09.09.21.17.43.3.21.17.04.04.26.04s.26-.04.47-.09.51-.13.77-.17c.26-.09.51-.09.68-.17.13-.04.13.09.04.34-.09.21-.17.43-.26.6-.09.17-.13.21-.17.34s-.51.77-.6.98-.21.34-.34.51c-.13.17-.55.47-.77.64s-.13.17-.3.34c-.13.17-.6.72-.72.89s-.17.26-.3.43c-.09.17-.34.43-.34.55s-.17.13-.04.26c.13.13.17.13.21.3.04.13-.13.3,0,.55.09.26.04.09.17.3.17.21.13.34.17.64,0,.3.04.6,0,.81s-.13.34-.17.51c-.09.17-.43.3-.68.38-.21.09-.21.04-.3.17-.09.13-.38.38-.51.55-.09.17-.17.17-.13.3.04.13.13.26.21.51.09.21.04.21,0,.38s0,.17-.04.38-.3.26-.6.34c-.3.13-.21.04-.26.21s0,.51-.04.72c0,.21-.13.13-.3.38-.17.26-.26.38-.43.68-.17.3-.17.26-.38.43s-.43.21-.51.47c-.09.21-.21.09-.72.21-.51.17-.13.09-.6.13-.47.04-.64.09-.9.13s-.21,0-.38-.17-.17-.17-.26-.3c-.09-.13,0-.17-.04-.43,0-.26-.04-.26-.13-.43s-.09-.17-.17-.43-.13-.3-.26-.47c-.13-.17-.13-.13-.26-.21-.09-.13-.13-.21-.13-.34-.04-.17-.04-.51-.13-.89-.04-.38,0-.17-.09-.34-.04-.17-.13-.34-.21-.55s-.09-.17-.21-.43c-.17-.26-.13-.21-.26-.47-.09-.21-.13-.13-.13-.21s.04-.26.04-.43.04-.34.09-.6c.04-.26-.04-.26.04-.38.09-.17.21-.3.26-.51.09-.17.04-.21.04-.43,0-.26-.04-.21-.09-.43-.09-.21-.09-.43-.17-.72s-.09-.3-.09-.43-.09-.38-.13-.55-.09-.09-.21-.21-.04-.04-.17-.17c-.13-.13-.09-.17-.21-.3q-.13-.13-.21-.3c-.09-.13-.04-.04-.04-.3s.09-.72.13-.98q.04-.26-.04-.38c-.09-.13-.17-.3-.26-.3-.09-.04-.26.04-.55.04s-.26-.09-.38-.21c-.13-.13-.3-.34-.34-.38s-.17-.04-.64,0-.17.04-.51.09-.47.21-.68.3c-.26.09-.34.09-.77-.04-.43-.09-.64.09-.9.21s-.34.04-.47-.04c-.17-.13-.26-.21-.51-.34-.26-.13-.17-.17-.43-.3-.26-.13-.17-.13-.38-.3-.21-.17-.21-.38-.34-.6s-.26-.47-.47-.68c-.17-.21-.38-.64-.47-.77-.09-.13-.17-.13-.17-.21,0-.04.17-.43.26-.6s.09-.17.13-.3c.04-.13-.04-.47-.13-.64s-.17-.55-.21-.77c-.04-.17.04-.17.09-.3.09-.09.21-.3.38-.64.17-.3.26-.47.34-.64.09-.13.3-.6.43-.72.13-.13.47-.38.64-.43s.26-.13.3-.17c.04-.09.09-.6.13-.85.04-.21,0-.34.17-.47.17-.09.43-.26.6-.34.13-.09.17-.21.21-.38.09-.17.09-.38.21-.47s.09.04.21.13.17.09.21.13c.09,0,.13-.04.3-.04s.17,0,.3.09c.09.04.04.04.34-.13s.51-.3.85-.43c.38-.13.64-.21.81-.21s.09,0,.26.09c.17.09.21.13.26.04.04-.04.17-.21.26-.21s.17.04.38.09.3,0,.38-.04.17-.13.21-.13c0,0,.21.04.34.13s.13.04.13.09c-.04.04-.09.09-.13.21-.09.17-.04.09.04.26.09.17.13.17.09.26-.04.13-.17.21-.26.34q-.09.13.17.26c.26.13.17.13.47.26s.3.09.6.17q.3.09.38.21c.13.13.13.26.3.3.17.09.38.09.51.13s.21.17.34.21c.17.04.13.04.21-.04.09-.13.13-.21.09-.26s-.13-.13-.09-.21c0-.04.13-.26.17-.34.04-.09.13-.09.38-.09s.38-.04.43.09c.04.13.04.09.21.17.17.09.21.09.34.13.17.04.09.13.17.13s.21,0,.34.04.43.17.68.17c.3,0,.38-.09.43-.09s.26-.26.34-.09c.13.17.26.17.55.17s.3-.04.34-.13c.09-.09.26-.34.3-.55.04-.21.21-.64.26-.81s0-.34,0-.47,0-.21.04-.34-.13-.04-.21-.04c-.09.04-.09-.04-.17-.04s-.13-.04-.17.09c-.04.13-.04.17-.3.17s-.21-.04-.3-.13c-.09-.09-.26-.13-.38-.17q-.13-.04-.13.04c0,.09,0,.13-.09.17s-.3,0-.47-.09c-.17-.09-.21-.13-.38-.3-.17-.17-.13-.17-.21-.43s-.09-.47-.04-.55c.04-.09.09-.09-.04-.04s-.21.04-.13-.13c.09-.21.17-.21.26-.21.09-.04.21-.04.38-.04s.3-.09.34-.13c.04-.04.17-.09.13-.09s-.26-.04-.21-.09.04-.04.17-.04c.09,0,.26,0,.38-.04.13,0,.21,0,.26-.09s.09-.21.21-.26.21-.04.51-.04c.26,0,.21.04.34.13.09.09.17.04.26.04.13.04.04.09.13.13.09.04.26.09.47.13.21.09.09.04.3.04q.26,0,.43-.04c.21-.04.26-.09.43-.21.13-.09.04-.3,0-.47s-.26-.26-.38-.34l-.43-.43c-.13-.09-.26-.13-.38-.21-.13-.09-.34-.17-.38-.26,0-.09.04-.09.21-.13.17-.04.13-.09.17-.17q.04-.09.21-.17c.17-.04-.17-.17-.21-.26s.09-.04.26-.09.17-.13.17-.17c.04-.09,0-.09-.17-.09s-.43.09-.72.17c-.3.09-.17.09-.34.21-.17.13-.21.09-.17.17.04.09.04.17.21.26s.13.09.17.13c.04,0,.17.04.13.04s-.13.09-.17.09-.13.09-.26.17c-.13.09-.21.09-.3.13-.09,0-.17,0-.17-.21,0-.17-.04-.04-.17-.09-.13-.04-.17-.09-.17-.09,0,0,.13-.04.21-.13.13-.09.17-.13.21-.26.04-.13-.13-.04-.26-.09-.13,0-.09-.04-.21-.04s-.17-.13-.17-.13c0,0,.04.04.17,0,.09,0,.09-.04.13-.09s.09-.04.04-.04h-.51c-.13,0-.09.09-.17.13-.09.04-.09.09-.13.17q-.04.09-.09.13s-.04.21-.04.3-.04.13-.09.21c-.04.09-.04.04-.17.09-.09.04-.04.09-.04.17s-.04.13-.04.26-.04.13-.13.21-.13.09-.13.17v.3c0,.17.09.13.21.3.13.17.21.13.17.21s-.04.04-.21.04-.17,0-.3.13-.13.17-.21.21c-.04.04-.04-.09-.09-.13-.04-.04-.3-.09-.47-.13-.17-.04-.26-.09-.3-.09s-.13,0-.3.09c-.21.13-.17.17-.13.3,0,.13.17.17.13.51-.04.34.17.17.26.38.09.21,0,.17-.04.21s-.13.21-.13.38c-.04.17,0,.17-.04.17s-.13.04-.21-.13c-.09-.13-.17,0-.17-.09s-.13-.21-.09-.38.13-.21-.04-.3c-.17-.09-.13-.13-.21-.3q-.09-.21-.26-.43c-.13-.17-.13-.13-.09-.3.04-.17.09-.43,0-.55s-.47-.47-.77-.64-.38-.04-.51-.3-.21-.51-.43-.68-.13-.17-.34-.09c-.21.09-.21.13-.21.17s.09.13.04.3c-.04.17-.09.13.13.26.21.13.13.09.26.34.13.26.13.3.21.38.09.09.13.17.34.26.21.04.17,0,.26.04.04.04-.17.09-.13.09.04.04.09.09.3.21.17.13.38.26.43.34.04.09.21.43-.04.17s-.26-.13-.3.04c-.09.17.04.3.04.43s-.13.09-.21.17c-.09.09-.13.21-.21.3s-.04-.09-.13-.09c-.04,0-.09.04-.13.17s0,.17.04.34.09.17-.09.17-.13-.17-.3-.3c-.17-.13-.26-.09-.38-.17-.13-.09.04-.09.38-.13.34-.04.38-.09.47-.17q.09-.09.17-.26c.13-.17,0-.21-.09-.43-.09-.17-.21-.3-.26-.3s-.17-.17-.26-.26c-.09-.13-.21-.13-.38-.17s-.13-.21-.21-.26-.17-.17-.38-.38-.13-.34-.21-.51c-.09-.17-.21-.3-.43-.3s-.38.17-.6.34c-.21.21-.17.3-.43.17s-.34-.13-.51,0c-.17.17-.21.3-.21.6s-.21.17-.38.26-.34.3-.6.77c-.26.51,0,.26-.04.43s0,.3-.21.51c-.26.21-.13-.04-.3.17-.13.17-.34.3-.68.26s-.26.09-.47.13c-.21.04-.34.13-.3-.13.04-.26,0-.21-.38-.17-.43,0-.55.13-.51.09.04-.04.04-.17.09-.38.04-.21.13-.3.04-.3-.04,0-.21.04-.09-.38.09-.43.13-.51.09-.72-.04-.26,0-.55-.04-.72-.04-.13.13-.3.04-.34-.09-.09-.17-.17-.09-.17.04,0,.3,0,.55.04.3.04.6-.04.77-.04s.51.09.9.17c.34.04.34-.04.3-.6-.04-.51.04-.77-.09-.89-.13-.13-.21-.09-.34-.26-.13-.13-.04-.34-.3-.43-.26-.09-.51,0-.38-.09.13-.04.17-.09.04-.17-.13-.13-.17-.21-.09-.26h.43s.04.17.17.09c.17-.09.38-.13.34-.26-.04-.13-.13-.26-.09-.26s.09.17.43.17.3-.04.3-.17c-.04-.13.21-.13.38-.26.17-.13-.04-.26-.04-.34.04-.13.21-.17.6-.21.34-.04.3-.09.26-.13-.04-.04,0-.21.04-.43s-.04-.3.17-.43c.17-.13.13-.09.51-.09.38-.04.13-.13.21-.13.04,0,.51-.13.6-.17s.09-.04,0-.17c-.09-.17-.17-.26-.26-.98s-.04-.72.38-.85c.47-.13.34-.09.3.3-.04.43-.21.43-.3.72-.04.3,0,.47.17.81.17.3.17.17.55.17s.3.09.6.17c.26.09.17-.17.43-.26s.21.04.81-.04c.21-.04.3-.04.34-.04,0,0-.09,0,0-.04.13-.09.17-.21.38-.26s.34.04.34-.26-.13-.26-.09-.51.04-.13.04-.34-.04-.21.21-.3.09.21.38.3.26.13.34-.13c.04-.26.21-.55.09-.55q-.17,0-.34-.21c-.17-.21-.26-.26-.13-.26.09,0,.43-.09.9-.09s.6.04.64,0-.09-.09.09-.21c.17-.09.68.04.6-.04-.09-.09-.55-.21-.85-.17s-1.07.13-1.19.13-.34-.09-.38-.17c-.04-.04-.21-.09-.21-.38,0-.26.09-.38-.04-.64s.3-.51.6-.77c.3-.3.21-.51.43-.55.17,0,.26-.13.17-.21-.09-.09-.43-.43-.6-.43-.17-.04-.38-.21-.64.21s0,.47.04.68-.34.38-.64.6-.38.17-.51.68c-.09.55-.17.55.17.72.34.17.38.26.26.43-.17.17-.47.17-.68.51-.21.38-.13.55-.21.72s-.34.26-.38.43c-.09.17-.09.47-.38.43s-.13-.47-.26-.68-.26-.38-.38-.64c-.17-.26-.04-.51-.17-.64-.17-.13-.17-.38-.17-.38l-.04.13c-.04.13-.04.21-.34.6s-.77.38-.98.3-.17-.3-.17-.6c0-.26-.04-.64,0-1.06s.17-.38.64-.68c.47-.3.47-.26.6-.47.13-.17.47-.43.64-.6.21-.17.55-.81.72-1.23.17-.47.51-.72.85-1.19s.9-.89,1.62-1.23c.72-.3.6-.34.77-.6.17-.26.26-.09.51-.17.3-.04.26,0-.04.3-.3.3-.43.6-.17.34.26-.21.43-.51.81-.47.38,0,.21,0,.6.17s.43.17.21.3-.55.09-.55.09c0,0,.13.26.47.3.34.04.51-.26.77-.17s.3.21,0,.17-.38.17,0,.3.43.17.9.21c.51.09.72.43,1.07.6.38.17.81.04.68.38-.13.34.09.68-.55.85s-.64-.04-1.19-.21-.94-.34-.94-.34c0,0,.13.21.38.43.26.21.3.47.26.89-.04.43-.13.55.3.77s.38.17.51.13c.13-.04.34-.09.3-.13-.04-.09-.09-.17-.26-.26-.13-.09-.17-.21,0-.3.13-.09.3.09.6.04.3,0,0-.13.17-.26.17-.17.17-.43.51-.55.38-.13.77.09.85-.09s.21-.34,0-.6-.38-.34-.26-.43c.13-.13.38-.43.51-.26s.43.38.04.34c-.38-.04-.13.55.21.51s.3-.13.6-.26.81-.6,1.19-.72c.38-.13.47-.09.6-.04.17.09.17.21.55.13.43-.09.55-.17.94-.26.38-.09-.04.13.17.21.17.04.21.13.34,0,.13-.09.55-.26.38-.38-.21-.17-.34-.26-.34-.26,0,0,.13-.3.51-.3s.94.38,1.32.64c.38.26.81.77.81.77,0,0,.17-.26.04-.72-.13-.47-.47-.34-.47-.77s-.3-.3-.21-.64c.13-.3.43-.43.51-.81s.17-.72.43-.72c.3,0,.9.09.9.09,0,0,0,.34-.21.89s.13.6.04,1.23c-.04.64-.04.72.09.89.17.17.43.34.34.6-.13.3-.17.47-.55.64-.38.17-.9.09-.72.21.17.13.43.21.68.26s.13,0,.34-.21c.21-.17.68-.51.68-.68s-.3-.43-.09-.55c.17-.13.26-.3.51-.17.3.17.55.77.55.72s-.04-.6-.38-.94c-.34-.34-.9,0-.9-.3s.17-.68.13-1.02c-.04-.3-.17-.64.04-.89s.21-.51.21-.51c0,0,.09.26,0,.6-.09.34.04.51.17.51.17,0,.85,0,.47-.09-.38-.13-.47-.21-.13-.43.38-.21.34-.09.9.04.55.13.68.21.85.21s.17-.04.09-.17c-.04-.17-.13-.26-.3-.38-.17-.13-.3.04-.34-.13-.04-.17-.17-.6-.21-.72-.04-.17.13-.04.43-.04s1.07-.04,1.66-.04,0-.64-.04-1.06,1.11-.47,1.66-.55c.55-.09,1.24-.04,2.26-.3s.38-.21.51-.51c.17-.3.43-.34.72-.34s.6.04.47.09-.47.21.09.34.38.13.13.21c-.3.09-.04.3.51.3s.21-.04.13-.21.09-.13.55-.04.64.17.9.38.3.17.38.51,0,.26-.38.6c-.38.3-.6.3-1.19.64-.55.34-.43.55-.72.77s-.21.17.43,0,.98-.26,1.32-.26c.34.04.51.17.72.17.26,0,0,.04.77.04.81,0,.68,0,.38.21-.3.21.04.3.38.3s.77,0,1.11-.04.04-.3.43-.3.51-.04.94-.04.3.17.43.3c.13.17.34.26.21.55s-.21.3-.13.72.3.47.55.55.26-.38.51-.51c.26-.17.3.3.55.21.3-.09.6-.04.85.04.26.09.47.13.81.04.34-.09.21-.21.13-.43q-.13-.21.09-.43c.21-.21.34-.13,1.07.09.68.17.47.17.85.3s.26.09.85.34.47.6.77.77c.3.17.3,0,.85-.04s.55.09,1.15.21c.6.17.47.34.47.55,0,.17-.17.3.21.38s.51.17.85.09.04.09.77.09.47-.09.68.09.26.47.64.43q.34-.04.17-.34c-.13-.3-.21-.34-.04-.34.21,0,.64.09,1.41.21s.81.26,1.45.68c.64.38.81.43,1.28.81.17.13.21.17.21.17,0,0,.04,0,.26.09.51.21.43.17.85.38s.81.51.81.51c0,0,.26.13-.09.13ZM75.65,118.5s-.04.09.21-.13-.13,0-.26-.04-.17-.13-.13-.3c.04-.17,0-.17-.17-.43,0,0-.09-.04-.26.04-.17.09-.26-.09-.47-.04-.21.09-.43.04-.55.34-.13.3-.26.13-.3.34-.04.26-.43.38-.43.38,0,0,.17.17.26.3.13.13.04.04.17.51.13.47.21.43.34.51l.43.21s-.17-.09-.17.17-.26.43-.21.81-.34.72-.04.72c.3.04.21.17.51.26s.51.13.94.13c.47,0,.21-.17.13-.43-.04-.26-.09-.43-.13-.72,0-.3-.13-.21-.21-.38s.04-.26.26-.26.26,0,.13-.21-.04-.26-.17-.34c-.13-.09-.21.26-.21.26,0,0-.09-.09-.04-.43s.04-.17-.04-.26c-.13-.09-.17,0-.3-.21s0-.17-.17-.47-.09-.13.13-.13c.17,0,.09-.04,0-.13-.09-.09-.17-.21.09-.21s.55.09.68.09c.04.04,0,.04,0,.04ZM42.22,105.69c-.09.13.13.34.3.26.17-.04.21,0,.3-.09s.09-.17,0-.3-.09-.17-.09-.17c-.21-.09-.43.13-.51.3ZM86.52,96.5c-.26,0-.51,0-.3.09s.13.47.55.26.34-.21.64-.34.13-.09-.21-.17c-.21-.09-.43.17-.68.17Z"/>
        </g>
      </g>
    </g>
    <path class="cls-2" d="M36.08,119.1v.43c0-.21-.09-.34-.13-.51.04-.04.04-.09.09-.13,0,.04.04.13.04.21Z"/>
    <path class="cls-7" d="M48.19,152.84c0,.09-.04.17-.04.26-.13.47-.13,1.66-.13,4.08,0,.26,0,.51-.04.89-.09.64-.26.77-.47,1.53-.3.98-.47,1.49-.38,2.13.04.17.09.43,0,.77-.09.3-.17.43-.3.68-.17.43-.13.77-.13,1.11,0,.72-.17,1.49-.21,2.21-.21,1.87-.3,1.83-.38,3.15-.09.89-.04,1.62-.04,2.17,0,2,.17,2.26.09,2.64-.72,2.68-13.18,3.02-14.07,0-.17-.51.21-.47,1.15-3.49.77-2.38.68-2.89,1.36-4.08.3-.51.55-.89.81-1.62.26-.77.3-1.4.34-2.26.04-.55.04-1.45-.13-2.51-.09-.47-.13-.98-.34-1.62-.17-.64-.38-1.02-.94-2.17-.6-1.23-.9-1.83-1.24-2.51-.26-.47-.55-1.11-1.32-2.55-1.75-3.36-1.32-2.51-1.83-3.49-.72-1.4-.81-1.62-1.19-2.17-.55-.81-.77-.89-1.32-1.79-.55-.94-.94-1.53-.81-2.21.04-.3.17-.47.21-1.02.09-.51,0-.64.04-1.02.09-.6.38-.77.6-1.23.34-.68.04-1.02.13-2.17.04-1.19.34-1.02.47-2.34.09-1.02.17-1.79-.17-2.68-.17-.43-.3-.6-.26-.94.04-.55.47-.77.72-1.45.17-.47.13-.72.17-1.15.09-1.11.51-1.23.94-2.64.51-1.62.21-2.17.94-3.83.13-.26.09-.17.34-.68.77-1.57,1.24-2.55,1.45-3.74.26-1.4-.09-1.66.34-2.26s1.41-1.15,2.39-.77c1.02.38,1.28,1.66,1.19,2.43-.04.47-.3.51-.34,1.02-.09.6.13.89.21,1.36,0,.09.04.13.04.21v.43c-.04.43-.21.77-.38,1.19q-.09.21-.13.43c-.09.34-.26,1.11-.94,3.53-.3,1.06-.68,2.34-.72,2.81v.13s0,.09.04.09c0,0,.04,0,.04-.04-.09.3-.09.51-.04.51.13.04.38-1.19,1.19-1.4.55-.13,1.15.17,1.49.55.47.51.47,1.11.47,1.91v.51c-.04.38-.13.85-.34,1.28-.04.09-.09.13-.09.21-.04.09-.13.17-.17.3-.3.43-.51.51-.68,1.02-.21.55-.13.85-.21,1.45-.13.81-.51,1.28-.68,1.57-.17.34-.21.68-.21,1.11v.04h0c.04.17.09.3.13.47.34,1.06.68,2.04,1.11,2.94.13.26.26.47.38.72.98,1.83,2.17,3.45,3.5,4.89.47.51,1.92,2.04,4.05,3.7.64.47,1.15.85,1.54,1.15.43.3.77.51,1.07.64.38.13.77.38,1.19.55.17.09.34.13.47.3.13.21.13.51.09.77Z"/>
  </g>
</svg>